G75*
%MOIN*%
%OFA0B0*%
%FSLAX24Y24*%
%IPPOS*%
%LPD*%
%AMOC8*
5,1,8,0,0,1.08239X$1,22.5*
%
%ADD10C,0.0000*%
%ADD11C,0.0160*%
%ADD12C,0.0040*%
%ADD13C,0.0050*%
%ADD14C,0.0080*%
%ADD15C,0.0060*%
%ADD16C,0.0100*%
%ADD17R,0.0040X0.0010*%
%ADD18R,0.0070X0.0010*%
%ADD19R,0.0030X0.0010*%
%ADD20R,0.0020X0.0010*%
%ADD21R,0.0010X0.0010*%
%ADD22R,0.0060X0.0010*%
%ADD23R,0.0080X0.0010*%
%ADD24R,0.0050X0.0010*%
%ADD25R,0.0140X0.0010*%
%ADD26R,0.0270X0.0010*%
%ADD27R,0.0120X0.0010*%
%ADD28R,0.0150X0.0010*%
%ADD29R,0.0200X0.0010*%
%ADD30R,0.0110X0.0010*%
%ADD31R,0.0090X0.0010*%
%ADD32R,0.0290X0.0010*%
%ADD33R,0.0100X0.0010*%
%ADD34R,0.0250X0.0010*%
D10*
X001936Y000937D02*
X001936Y010268D01*
X034082Y010268D01*
X034082Y000937D01*
X001936Y000937D01*
D11*
X017049Y010130D02*
X017051Y010238D01*
X017057Y010347D01*
X017067Y010455D01*
X017081Y010562D01*
X017099Y010669D01*
X017120Y010776D01*
X017146Y010881D01*
X017176Y010986D01*
X017209Y011089D01*
X017246Y011191D01*
X017287Y011291D01*
X017331Y011390D01*
X017380Y011488D01*
X017431Y011583D01*
X017486Y011676D01*
X017545Y011768D01*
X017607Y011857D01*
X017672Y011944D01*
X017740Y012028D01*
X017811Y012110D01*
X017885Y012189D01*
X017962Y012265D01*
X018042Y012339D01*
X018125Y012409D01*
X018210Y012477D01*
X018297Y012541D01*
X018387Y012602D01*
X018479Y012660D01*
X018573Y012714D01*
X018669Y012765D01*
X018766Y012812D01*
X018866Y012856D01*
X018967Y012896D01*
X019069Y012932D01*
X019172Y012964D01*
X019277Y012993D01*
X019383Y013017D01*
X019489Y013038D01*
X019596Y013055D01*
X019704Y013068D01*
X019812Y013077D01*
X019921Y013082D01*
X020029Y013083D01*
X020138Y013080D01*
X020246Y013073D01*
X020354Y013062D01*
X020461Y013047D01*
X020568Y013028D01*
X020674Y013005D01*
X020779Y012979D01*
X020884Y012948D01*
X020986Y012914D01*
X021088Y012876D01*
X021188Y012834D01*
X021287Y012789D01*
X021384Y012740D01*
X021478Y012687D01*
X021571Y012631D01*
X021662Y012572D01*
X021751Y012509D01*
X021837Y012444D01*
X021921Y012375D01*
X022002Y012303D01*
X022080Y012228D01*
X022156Y012150D01*
X022229Y012069D01*
X022299Y011986D01*
X022365Y011901D01*
X022429Y011813D01*
X022489Y011722D01*
X022546Y011630D01*
X022599Y011535D01*
X022649Y011439D01*
X022695Y011341D01*
X022738Y011241D01*
X022777Y011140D01*
X022812Y011037D01*
X022844Y010934D01*
X022871Y010829D01*
X022895Y010723D01*
X022915Y010616D01*
X022931Y010509D01*
X022943Y010401D01*
X022951Y010293D01*
X022955Y010184D01*
X022955Y010076D01*
X022951Y009967D01*
X022943Y009859D01*
X022931Y009751D01*
X022915Y009644D01*
X022895Y009537D01*
X022871Y009431D01*
X022844Y009326D01*
X022812Y009223D01*
X022777Y009120D01*
X022738Y009019D01*
X022695Y008919D01*
X022649Y008821D01*
X022599Y008725D01*
X022546Y008630D01*
X022489Y008538D01*
X022429Y008447D01*
X022365Y008359D01*
X022299Y008274D01*
X022229Y008191D01*
X022156Y008110D01*
X022080Y008032D01*
X022002Y007957D01*
X021921Y007885D01*
X021837Y007816D01*
X021751Y007751D01*
X021662Y007688D01*
X021571Y007629D01*
X021479Y007573D01*
X021384Y007520D01*
X021287Y007471D01*
X021188Y007426D01*
X021088Y007384D01*
X020986Y007346D01*
X020884Y007312D01*
X020779Y007281D01*
X020674Y007255D01*
X020568Y007232D01*
X020461Y007213D01*
X020354Y007198D01*
X020246Y007187D01*
X020138Y007180D01*
X020029Y007177D01*
X019921Y007178D01*
X019812Y007183D01*
X019704Y007192D01*
X019596Y007205D01*
X019489Y007222D01*
X019383Y007243D01*
X019277Y007267D01*
X019172Y007296D01*
X019069Y007328D01*
X018967Y007364D01*
X018866Y007404D01*
X018766Y007448D01*
X018669Y007495D01*
X018573Y007546D01*
X018479Y007600D01*
X018387Y007658D01*
X018297Y007719D01*
X018210Y007783D01*
X018125Y007851D01*
X018042Y007921D01*
X017962Y007995D01*
X017885Y008071D01*
X017811Y008150D01*
X017740Y008232D01*
X017672Y008316D01*
X017607Y008403D01*
X017545Y008492D01*
X017486Y008584D01*
X017431Y008677D01*
X017380Y008772D01*
X017331Y008870D01*
X017287Y008969D01*
X017246Y009069D01*
X017209Y009171D01*
X017176Y009274D01*
X017146Y009379D01*
X017120Y009484D01*
X017099Y009591D01*
X017081Y009698D01*
X017067Y009805D01*
X017057Y009913D01*
X017051Y010022D01*
X017049Y010130D01*
D12*
X019218Y009929D02*
X019218Y009622D01*
X019295Y009546D01*
X019525Y009546D01*
X019525Y010006D01*
X019295Y010006D01*
X019218Y009929D01*
X019679Y010006D02*
X019986Y010006D01*
X019986Y009546D01*
X019679Y009546D01*
X019832Y009776D02*
X019986Y009776D01*
X020293Y009776D02*
X020446Y009776D01*
X020600Y009776D02*
X020676Y009699D01*
X020906Y009699D01*
X020753Y009699D02*
X020600Y009546D01*
X020446Y009546D02*
X020139Y009546D01*
X020446Y009546D02*
X020446Y010006D01*
X020139Y010006D01*
X020600Y009929D02*
X020600Y009776D01*
X020600Y009929D02*
X020676Y010006D01*
X020906Y010006D01*
X020906Y009546D01*
X026291Y009538D02*
X026598Y009538D01*
X026598Y009077D01*
X026291Y009077D01*
X026445Y009308D02*
X026598Y009308D01*
X026752Y009231D02*
X026752Y009154D01*
X026828Y009077D01*
X026982Y009077D01*
X027059Y009154D01*
X027212Y009154D02*
X027289Y009077D01*
X027442Y009077D01*
X027519Y009154D01*
X027519Y009461D01*
X027442Y009538D01*
X027289Y009538D01*
X027212Y009461D01*
X027212Y009154D01*
X026982Y009308D02*
X026828Y009308D01*
X026752Y009231D01*
X026982Y009308D02*
X027059Y009384D01*
X027059Y009461D01*
X026982Y009538D01*
X026828Y009538D01*
X026752Y009461D01*
X027672Y009077D02*
X027979Y009077D01*
X027979Y009538D01*
X028133Y009461D02*
X028210Y009538D01*
X028363Y009538D01*
X028440Y009461D01*
X028440Y009154D01*
X028363Y009077D01*
X028210Y009077D01*
X028133Y009154D01*
X028210Y008788D02*
X028440Y008788D01*
X028440Y008327D01*
X028210Y008327D01*
X028133Y008404D01*
X028133Y008711D01*
X028210Y008788D01*
X027979Y008711D02*
X027979Y008404D01*
X027903Y008327D01*
X027749Y008327D01*
X027672Y008404D01*
X027672Y008711D01*
X027749Y008788D01*
X027903Y008788D01*
X027979Y008711D01*
X027519Y008711D02*
X027442Y008788D01*
X027289Y008788D01*
X027212Y008711D01*
X027212Y008404D01*
X027289Y008327D01*
X027442Y008327D01*
X027519Y008404D01*
X027519Y008711D01*
X027059Y008788D02*
X026828Y008788D01*
X026752Y008711D01*
X026752Y008558D01*
X026828Y008481D01*
X027059Y008481D01*
X027059Y008327D02*
X027059Y008788D01*
X026905Y008481D02*
X026752Y008327D01*
X030672Y008327D02*
X030825Y008481D01*
X030749Y008481D02*
X030979Y008481D01*
X030979Y008327D02*
X030979Y008788D01*
X030749Y008788D01*
X030672Y008711D01*
X030672Y008558D01*
X030749Y008481D01*
X031132Y008327D02*
X031132Y008788D01*
X031439Y008788D02*
X031439Y008327D01*
X031286Y008481D01*
X031132Y008327D01*
X031593Y008558D02*
X031670Y008481D01*
X031900Y008481D01*
X031900Y008327D02*
X031900Y008788D01*
X031670Y008788D01*
X031593Y008711D01*
X031593Y008558D01*
X022033Y006329D02*
X022033Y005869D01*
X021726Y005869D02*
X021726Y006329D01*
X021573Y006176D02*
X021496Y006176D01*
X021496Y005869D01*
X021573Y005869D02*
X021419Y005869D01*
X021266Y005869D02*
X021266Y006176D01*
X021036Y006176D01*
X020959Y006099D01*
X020959Y005869D01*
X020805Y005715D02*
X020729Y005715D01*
X020652Y005792D01*
X020652Y006176D01*
X020652Y006329D02*
X020652Y006406D01*
X020422Y006176D02*
X020268Y006176D01*
X020192Y006099D01*
X020192Y005869D01*
X020422Y005869D01*
X020498Y005945D01*
X020422Y006022D01*
X020192Y006022D01*
X020038Y006099D02*
X019885Y006099D01*
X020038Y005869D02*
X020038Y006329D01*
X019731Y006329D01*
X019578Y006176D02*
X019578Y005945D01*
X019501Y005869D01*
X019271Y005869D01*
X019271Y006176D01*
X019117Y006099D02*
X019041Y006176D01*
X018810Y006176D01*
X018810Y005792D01*
X018887Y005715D01*
X018964Y005715D01*
X019041Y005869D02*
X018810Y005869D01*
X018657Y005945D02*
X018657Y006099D01*
X018580Y006176D01*
X018427Y006176D01*
X018350Y006099D01*
X018350Y006022D01*
X018657Y006022D01*
X018657Y005945D02*
X018580Y005869D01*
X018427Y005869D01*
X019041Y005869D02*
X019117Y005945D01*
X019117Y006099D01*
X017736Y006176D02*
X017583Y005869D01*
X017429Y006176D01*
X017276Y006099D02*
X017199Y006176D01*
X017046Y006176D01*
X016969Y006099D01*
X016969Y006022D01*
X017276Y006022D01*
X017276Y005945D02*
X017276Y006099D01*
X017276Y005945D02*
X017199Y005869D01*
X017046Y005869D01*
X016815Y005869D02*
X016815Y006176D01*
X016662Y006176D02*
X016585Y006176D01*
X016662Y006176D02*
X016815Y006022D01*
X016432Y005945D02*
X016355Y005945D01*
X016355Y005869D01*
X016432Y005869D01*
X016432Y005945D01*
X016201Y005869D02*
X015895Y005869D01*
X016048Y005869D02*
X016048Y006329D01*
X016201Y006176D01*
X015741Y006329D02*
X015434Y006329D01*
X015434Y006252D01*
X015741Y005945D01*
X015741Y005869D01*
X015281Y005869D02*
X014974Y005869D01*
X015127Y005869D02*
X015127Y006329D01*
X015281Y006176D01*
X014820Y006252D02*
X014744Y006329D01*
X014590Y006329D01*
X014513Y006252D01*
X014820Y005945D01*
X014744Y005869D01*
X014590Y005869D01*
X014513Y005945D01*
X014513Y006252D01*
X014360Y006252D02*
X014283Y006329D01*
X014130Y006329D01*
X014053Y006252D01*
X014360Y005945D01*
X014283Y005869D01*
X014130Y005869D01*
X014053Y005945D01*
X014053Y006252D01*
X013900Y006252D02*
X013823Y006329D01*
X013669Y006329D01*
X013593Y006252D01*
X013593Y006176D01*
X013669Y006099D01*
X013593Y006022D01*
X013593Y005945D01*
X013669Y005869D01*
X013823Y005869D01*
X013900Y005945D01*
X013746Y006099D02*
X013669Y006099D01*
X014360Y005945D02*
X014360Y006252D01*
X014820Y006252D02*
X014820Y005945D01*
X009084Y007555D02*
X008777Y007555D01*
X008624Y007555D02*
X008624Y007172D01*
X008547Y007095D01*
X008394Y007095D01*
X008317Y007172D01*
X008317Y007555D01*
X008164Y007555D02*
X007857Y007095D01*
X007857Y007555D01*
X007703Y007555D02*
X007703Y007095D01*
X007396Y007095D01*
X007550Y007325D02*
X007703Y007325D01*
X007703Y007555D02*
X007396Y007555D01*
X008164Y007555D02*
X008164Y007095D01*
X008931Y007095D02*
X008931Y007555D01*
X021496Y006406D02*
X021496Y006329D01*
X021726Y005869D02*
X022033Y006329D01*
X028603Y004408D02*
X028603Y003948D01*
X028910Y003948D02*
X028910Y004408D01*
X029064Y004332D02*
X029140Y004408D01*
X029294Y004408D01*
X029371Y004332D01*
X029371Y004025D01*
X029294Y003948D01*
X029140Y003948D01*
X029064Y004025D01*
X028910Y004178D02*
X028603Y004178D01*
X029524Y004408D02*
X029831Y004408D01*
X029984Y004408D02*
X030138Y004408D01*
X030061Y004408D02*
X030061Y003948D01*
X030138Y003948D02*
X029984Y003948D01*
X029678Y003948D02*
X029678Y004408D01*
X030291Y004408D02*
X030291Y003948D01*
X030445Y004101D01*
X030598Y003948D01*
X030598Y004408D01*
X030752Y004332D02*
X030829Y004408D01*
X030982Y004408D01*
X031059Y004332D01*
X031059Y004255D01*
X030982Y004178D01*
X030829Y004178D01*
X030752Y004101D01*
X030752Y004025D01*
X030829Y003948D01*
X030982Y003948D01*
X031059Y004025D01*
D13*
X033688Y003024D02*
X033688Y008181D01*
X026011Y008181D01*
X026011Y003024D01*
X033688Y003024D01*
X016752Y004066D02*
X016677Y003991D01*
X016527Y003991D01*
X016452Y004066D01*
X016452Y004141D01*
X016527Y004216D01*
X016677Y004216D01*
X016752Y004291D01*
X016752Y004366D01*
X016677Y004441D01*
X016527Y004441D01*
X016452Y004366D01*
X016292Y004441D02*
X015991Y004441D01*
X015831Y004441D02*
X015606Y004441D01*
X015531Y004366D01*
X015531Y004216D01*
X015606Y004141D01*
X015831Y004141D01*
X015681Y004141D02*
X015531Y003991D01*
X015371Y003991D02*
X015221Y003991D01*
X015296Y003991D02*
X015296Y004441D01*
X015371Y004441D02*
X015221Y004441D01*
X015064Y004291D02*
X014914Y004441D01*
X014764Y004291D01*
X014764Y003991D01*
X014604Y003991D02*
X014303Y003991D01*
X014604Y003991D02*
X014604Y004441D01*
X015064Y004291D02*
X015064Y003991D01*
X015064Y004216D02*
X014764Y004216D01*
X015831Y003991D02*
X015831Y004441D01*
X016292Y004441D02*
X016292Y003991D01*
X015991Y003991D01*
X016142Y004216D02*
X016292Y004216D01*
X010125Y002847D02*
X010125Y007768D01*
X006267Y007768D01*
X006267Y002847D01*
X010125Y002847D01*
X007015Y005603D02*
X007017Y005672D01*
X007023Y005740D01*
X007033Y005808D01*
X007047Y005875D01*
X007065Y005942D01*
X007086Y006007D01*
X007112Y006071D01*
X007141Y006133D01*
X007173Y006193D01*
X007209Y006252D01*
X007249Y006308D01*
X007291Y006362D01*
X007337Y006413D01*
X007386Y006462D01*
X007437Y006508D01*
X007491Y006550D01*
X007547Y006590D01*
X007605Y006626D01*
X007666Y006658D01*
X007728Y006687D01*
X007792Y006713D01*
X007857Y006734D01*
X007924Y006752D01*
X007991Y006766D01*
X008059Y006776D01*
X008127Y006782D01*
X008196Y006784D01*
X008265Y006782D01*
X008333Y006776D01*
X008401Y006766D01*
X008468Y006752D01*
X008535Y006734D01*
X008600Y006713D01*
X008664Y006687D01*
X008726Y006658D01*
X008786Y006626D01*
X008845Y006590D01*
X008901Y006550D01*
X008955Y006508D01*
X009006Y006462D01*
X009055Y006413D01*
X009101Y006362D01*
X009143Y006308D01*
X009183Y006252D01*
X009219Y006193D01*
X009251Y006133D01*
X009280Y006071D01*
X009306Y006007D01*
X009327Y005942D01*
X009345Y005875D01*
X009359Y005808D01*
X009369Y005740D01*
X009375Y005672D01*
X009377Y005603D01*
X009375Y005534D01*
X009369Y005466D01*
X009359Y005398D01*
X009345Y005331D01*
X009327Y005264D01*
X009306Y005199D01*
X009280Y005135D01*
X009251Y005073D01*
X009219Y005012D01*
X009183Y004954D01*
X009143Y004898D01*
X009101Y004844D01*
X009055Y004793D01*
X009006Y004744D01*
X008955Y004698D01*
X008901Y004656D01*
X008845Y004616D01*
X008787Y004580D01*
X008726Y004548D01*
X008664Y004519D01*
X008600Y004493D01*
X008535Y004472D01*
X008468Y004454D01*
X008401Y004440D01*
X008333Y004430D01*
X008265Y004424D01*
X008196Y004422D01*
X008127Y004424D01*
X008059Y004430D01*
X007991Y004440D01*
X007924Y004454D01*
X007857Y004472D01*
X007792Y004493D01*
X007728Y004519D01*
X007666Y004548D01*
X007605Y004580D01*
X007547Y004616D01*
X007491Y004656D01*
X007437Y004698D01*
X007386Y004744D01*
X007337Y004793D01*
X007291Y004844D01*
X007249Y004898D01*
X007209Y004954D01*
X007173Y005012D01*
X007141Y005073D01*
X007112Y005135D01*
X007086Y005199D01*
X007065Y005264D01*
X007047Y005331D01*
X007033Y005398D01*
X007023Y005466D01*
X007017Y005534D01*
X007015Y005603D01*
D14*
X018280Y009185D02*
X021725Y009185D01*
X021725Y009186D02*
X021773Y009188D01*
X021820Y009194D01*
X021867Y009203D01*
X021914Y009216D01*
X021958Y009232D01*
X022002Y009252D01*
X022044Y009276D01*
X022084Y009302D01*
X022121Y009332D01*
X022156Y009365D01*
X022189Y009400D01*
X022219Y009437D01*
X022245Y009477D01*
X022269Y009519D01*
X022289Y009563D01*
X022305Y009607D01*
X022318Y009654D01*
X022327Y009701D01*
X022333Y009748D01*
X022335Y009796D01*
X022333Y009844D01*
X022327Y009891D01*
X022318Y009938D01*
X022305Y009985D01*
X022289Y010029D01*
X022269Y010073D01*
X022245Y010115D01*
X022219Y010155D01*
X022189Y010192D01*
X022156Y010227D01*
X022121Y010260D01*
X022084Y010290D01*
X022044Y010316D01*
X022002Y010340D01*
X021958Y010360D01*
X021914Y010376D01*
X021867Y010389D01*
X021820Y010398D01*
X021773Y010404D01*
X021725Y010406D01*
X018280Y010406D01*
X018232Y010404D01*
X018185Y010398D01*
X018138Y010389D01*
X018091Y010376D01*
X018047Y010360D01*
X018003Y010340D01*
X017961Y010316D01*
X017921Y010290D01*
X017884Y010260D01*
X017849Y010227D01*
X017816Y010192D01*
X017786Y010155D01*
X017760Y010115D01*
X017736Y010073D01*
X017716Y010029D01*
X017700Y009985D01*
X017687Y009938D01*
X017678Y009891D01*
X017672Y009844D01*
X017670Y009796D01*
X017672Y009748D01*
X017678Y009701D01*
X017687Y009654D01*
X017700Y009607D01*
X017716Y009563D01*
X017736Y009519D01*
X017760Y009477D01*
X017786Y009437D01*
X017816Y009400D01*
X017849Y009365D01*
X017884Y009332D01*
X017921Y009302D01*
X017961Y009276D01*
X018003Y009252D01*
X018047Y009232D01*
X018091Y009216D01*
X018138Y009203D01*
X018185Y009194D01*
X018232Y009188D01*
X018280Y009186D01*
D15*
X029495Y008605D02*
X029540Y008607D01*
X029586Y008612D01*
X029630Y008620D01*
X029674Y008632D01*
X029717Y008648D01*
X029759Y008666D01*
X029799Y008688D01*
X029837Y008712D01*
X029873Y008739D01*
X029908Y008769D01*
X029939Y008802D01*
X029969Y008837D01*
X029495Y009805D02*
X029448Y009803D01*
X029400Y009797D01*
X029354Y009788D01*
X029308Y009775D01*
X029264Y009759D01*
X029220Y009738D01*
X029179Y009715D01*
X029140Y009689D01*
X029103Y009659D01*
X029068Y009626D01*
X029036Y009591D01*
X029007Y009554D01*
X029495Y009805D02*
X029541Y009803D01*
X029587Y009798D01*
X029633Y009789D01*
X029678Y009777D01*
X029721Y009761D01*
X029763Y009742D01*
X029804Y009719D01*
X029843Y009694D01*
X029879Y009666D01*
X029914Y009635D01*
X029946Y009601D01*
X029975Y009565D01*
X029495Y008605D02*
X029450Y008607D01*
X029404Y008612D01*
X029360Y008620D01*
X029316Y008632D01*
X029273Y008648D01*
X029231Y008666D01*
X029191Y008688D01*
X029153Y008712D01*
X029117Y008739D01*
X029082Y008769D01*
X029051Y008802D01*
X029021Y008837D01*
X032645Y008605D02*
X032690Y008607D01*
X032736Y008612D01*
X032780Y008620D01*
X032824Y008632D01*
X032867Y008648D01*
X032909Y008666D01*
X032949Y008688D01*
X032987Y008712D01*
X033023Y008739D01*
X033058Y008769D01*
X033089Y008802D01*
X033119Y008837D01*
X032645Y009805D02*
X032598Y009803D01*
X032550Y009797D01*
X032504Y009788D01*
X032458Y009775D01*
X032414Y009759D01*
X032370Y009738D01*
X032329Y009715D01*
X032290Y009689D01*
X032253Y009659D01*
X032218Y009626D01*
X032186Y009591D01*
X032157Y009554D01*
X032645Y009805D02*
X032691Y009803D01*
X032737Y009798D01*
X032783Y009789D01*
X032828Y009777D01*
X032871Y009761D01*
X032913Y009742D01*
X032954Y009719D01*
X032993Y009694D01*
X033029Y009666D01*
X033064Y009635D01*
X033096Y009601D01*
X033125Y009565D01*
X032645Y008605D02*
X032600Y008607D01*
X032554Y008612D01*
X032510Y008620D01*
X032466Y008632D01*
X032423Y008648D01*
X032381Y008666D01*
X032341Y008688D01*
X032303Y008712D01*
X032267Y008739D01*
X032232Y008769D01*
X032201Y008802D01*
X032171Y008837D01*
X016747Y003496D02*
X016747Y002996D01*
X016497Y002746D01*
X015997Y002746D01*
X015747Y002996D01*
X015497Y002746D01*
X014997Y002746D01*
X014747Y002996D01*
X014747Y003496D01*
X014997Y003746D01*
X015497Y003746D01*
X015747Y003496D01*
X015747Y002996D01*
X014747Y002996D02*
X014497Y002746D01*
X013997Y002746D01*
X013747Y002996D01*
X013497Y002746D01*
X012997Y002746D01*
X012747Y002996D01*
X012497Y002746D01*
X011997Y002746D01*
X011747Y002996D01*
X011497Y002746D01*
X010997Y002746D01*
X010747Y002996D01*
X010747Y003496D01*
X010997Y003746D01*
X011497Y003746D01*
X011747Y003496D01*
X011747Y002996D01*
X012747Y002996D02*
X012747Y003496D01*
X012497Y003746D01*
X011997Y003746D01*
X011747Y003496D01*
X012747Y003496D02*
X012997Y003746D01*
X013497Y003746D01*
X013747Y003496D01*
X013747Y002996D01*
X013747Y003496D02*
X013997Y003746D01*
X014497Y003746D01*
X014747Y003496D01*
X015747Y003496D02*
X015997Y003746D01*
X016497Y003746D01*
X016747Y003496D01*
D16*
X029495Y010005D02*
X029549Y010003D01*
X029603Y009998D01*
X029656Y009989D01*
X029709Y009976D01*
X029760Y009960D01*
X029810Y009940D01*
X029859Y009917D01*
X029907Y009891D01*
X029952Y009862D01*
X029995Y009829D01*
X030036Y009794D01*
X030075Y009756D01*
X030111Y009716D01*
X030144Y009673D01*
X030174Y009628D01*
X030201Y009581D01*
X030190Y008808D02*
X030160Y008760D01*
X030127Y008715D01*
X030091Y008672D01*
X030053Y008631D01*
X030011Y008594D01*
X029967Y008559D01*
X029921Y008528D01*
X029872Y008499D01*
X029822Y008475D01*
X029770Y008454D01*
X029716Y008436D01*
X029662Y008423D01*
X029607Y008413D01*
X029551Y008407D01*
X029495Y008405D01*
X029442Y008407D01*
X029388Y008412D01*
X029336Y008421D01*
X029284Y008433D01*
X029233Y008449D01*
X029183Y008468D01*
X029134Y008491D01*
X029087Y008517D01*
X029042Y008545D01*
X028999Y008577D01*
X028959Y008611D01*
X028920Y008649D01*
X028884Y008688D01*
X028880Y009717D02*
X028916Y009757D01*
X028955Y009795D01*
X028996Y009830D01*
X029039Y009862D01*
X029084Y009892D01*
X029131Y009918D01*
X029180Y009940D01*
X029231Y009960D01*
X029282Y009976D01*
X029334Y009989D01*
X029388Y009998D01*
X029441Y010003D01*
X029495Y010005D01*
X032645Y010005D02*
X032699Y010003D01*
X032753Y009998D01*
X032806Y009989D01*
X032859Y009976D01*
X032910Y009960D01*
X032960Y009940D01*
X033009Y009917D01*
X033057Y009891D01*
X033102Y009862D01*
X033145Y009829D01*
X033186Y009794D01*
X033225Y009756D01*
X033261Y009716D01*
X033294Y009673D01*
X033324Y009628D01*
X033351Y009581D01*
X033340Y008808D02*
X033310Y008760D01*
X033277Y008715D01*
X033241Y008672D01*
X033203Y008631D01*
X033161Y008594D01*
X033117Y008559D01*
X033071Y008528D01*
X033022Y008499D01*
X032972Y008475D01*
X032920Y008454D01*
X032866Y008436D01*
X032812Y008423D01*
X032757Y008413D01*
X032701Y008407D01*
X032645Y008405D01*
X032592Y008407D01*
X032538Y008412D01*
X032486Y008421D01*
X032434Y008433D01*
X032383Y008449D01*
X032333Y008468D01*
X032284Y008491D01*
X032237Y008517D01*
X032192Y008545D01*
X032149Y008577D01*
X032109Y008611D01*
X032070Y008649D01*
X032034Y008688D01*
X032030Y009717D02*
X032066Y009757D01*
X032105Y009795D01*
X032146Y009830D01*
X032189Y009862D01*
X032234Y009892D01*
X032281Y009918D01*
X032330Y009940D01*
X032381Y009960D01*
X032432Y009976D01*
X032484Y009989D01*
X032538Y009998D01*
X032591Y010003D01*
X032645Y010005D01*
D17*
X023494Y007133D03*
X023454Y007153D03*
X023434Y007163D03*
X023094Y007173D03*
X023074Y007163D03*
X023034Y007143D03*
X023094Y007013D03*
X022834Y006993D03*
X022814Y006983D03*
X022794Y006973D03*
X022744Y006943D03*
X022794Y006753D03*
X022814Y006743D03*
X022834Y006733D03*
X022874Y006713D03*
X022884Y006673D03*
X022884Y006663D03*
X022884Y006653D03*
X022884Y006643D03*
X022884Y006633D03*
X023054Y006613D03*
X023054Y006503D03*
X023024Y006403D03*
X022974Y006353D03*
X022954Y006363D03*
X022914Y006383D03*
X022894Y006363D03*
X022884Y006353D03*
X022814Y006303D03*
X022794Y006293D03*
X022894Y006453D03*
X022914Y006443D03*
X022834Y006483D03*
X023064Y006323D03*
X023124Y006343D03*
X023234Y006343D03*
X023234Y006353D03*
X023484Y006413D03*
X023514Y006433D03*
X023524Y006393D03*
X023744Y006253D03*
X023784Y006273D03*
X023664Y006223D03*
X023614Y005983D03*
X023634Y005973D03*
X023204Y006073D03*
X023164Y006053D03*
X023004Y005843D03*
X023044Y005823D03*
X023064Y005813D03*
X023014Y005663D03*
X023524Y005823D03*
X023544Y005833D03*
X022764Y006013D03*
X022744Y006003D03*
D18*
X022919Y006373D03*
X022859Y006463D03*
X023679Y006233D03*
X023749Y005933D03*
X023019Y005673D03*
X023379Y007183D03*
D19*
X023479Y007143D03*
X023509Y007123D03*
X023519Y007113D03*
X023589Y007043D03*
X023189Y006923D03*
X023109Y007003D03*
X023009Y007123D03*
X023019Y007133D03*
X023049Y007153D03*
X022949Y007063D03*
X022779Y006963D03*
X022759Y006953D03*
X022729Y006933D03*
X022709Y006923D03*
X022699Y006913D03*
X022679Y006903D03*
X022669Y006893D03*
X022659Y006853D03*
X022669Y006843D03*
X022679Y006833D03*
X022689Y006823D03*
X022709Y006813D03*
X022719Y006803D03*
X022729Y006793D03*
X022749Y006783D03*
X022759Y006773D03*
X022779Y006763D03*
X022879Y006683D03*
X022879Y006623D03*
X022879Y006613D03*
X022829Y006493D03*
X022839Y006453D03*
X022909Y006393D03*
X022829Y006313D03*
X022789Y006343D03*
X022769Y006313D03*
X023089Y006203D03*
X023099Y006213D03*
X023129Y006233D03*
X023159Y006253D03*
X023239Y006363D03*
X023239Y006373D03*
X023239Y006383D03*
X023059Y006493D03*
X023499Y006423D03*
X023529Y006443D03*
X023549Y006453D03*
X023559Y006463D03*
X023569Y006473D03*
X023579Y006483D03*
X023589Y006493D03*
X023599Y006503D03*
X023539Y006383D03*
X023559Y006373D03*
X023569Y006363D03*
X023579Y006353D03*
X023719Y006133D03*
X023749Y006103D03*
X023749Y006093D03*
X023759Y006083D03*
X023789Y006153D03*
X023819Y006013D03*
X023829Y006003D03*
X023859Y005933D03*
X023659Y005923D03*
X023649Y005913D03*
X023639Y005903D03*
X023629Y005893D03*
X023619Y005883D03*
X023589Y005863D03*
X023579Y005853D03*
X023559Y005843D03*
X023509Y005933D03*
X023539Y005953D03*
X023579Y006003D03*
X023469Y005953D03*
X023399Y006053D03*
X023399Y006063D03*
X023359Y006013D03*
X023319Y006013D03*
X023299Y006033D03*
X023249Y006103D03*
X023259Y006113D03*
X023269Y006123D03*
X023309Y006163D03*
X023219Y006083D03*
X022989Y005863D03*
X022999Y005853D03*
X022979Y005823D03*
X022959Y005793D03*
X023029Y005833D03*
X023059Y005693D03*
X023049Y005683D03*
X022919Y005703D03*
X022919Y005933D03*
X022779Y006023D03*
X022759Y006053D03*
X022749Y006063D03*
X022729Y005993D03*
X022719Y005983D03*
X023319Y006703D03*
X023309Y006723D03*
X023299Y006743D03*
D20*
X023304Y006733D03*
X023314Y006713D03*
X023334Y006683D03*
X023334Y006673D03*
X023334Y006663D03*
X023344Y006653D03*
X023344Y006643D03*
X023354Y006623D03*
X023354Y006613D03*
X023354Y006603D03*
X023364Y006593D03*
X023364Y006583D03*
X023364Y006573D03*
X023374Y006553D03*
X023374Y006543D03*
X023374Y006533D03*
X023374Y006523D03*
X023374Y006513D03*
X023384Y006483D03*
X023384Y006473D03*
X023384Y006463D03*
X023384Y006453D03*
X023384Y006443D03*
X023384Y006433D03*
X023384Y006423D03*
X023384Y006413D03*
X023384Y006403D03*
X023384Y006393D03*
X023384Y006383D03*
X023384Y006373D03*
X023384Y006363D03*
X023384Y006353D03*
X023384Y006343D03*
X023384Y006333D03*
X023374Y006303D03*
X023374Y006293D03*
X023374Y006283D03*
X023364Y006273D03*
X023364Y006263D03*
X023364Y006253D03*
X023354Y006243D03*
X023354Y006233D03*
X023344Y006223D03*
X023344Y006213D03*
X023334Y006203D03*
X023334Y006193D03*
X023324Y006183D03*
X023314Y006173D03*
X023304Y006153D03*
X023294Y006143D03*
X023284Y006133D03*
X023264Y006083D03*
X023274Y006073D03*
X023274Y006063D03*
X023284Y006053D03*
X023294Y006043D03*
X023304Y006023D03*
X023374Y006023D03*
X023384Y006033D03*
X023384Y006043D03*
X023414Y006043D03*
X023414Y006033D03*
X023414Y006023D03*
X023424Y006013D03*
X023424Y006003D03*
X023434Y005993D03*
X023434Y005983D03*
X023444Y005973D03*
X023454Y005963D03*
X023554Y005963D03*
X023564Y005973D03*
X023564Y005983D03*
X023664Y005933D03*
X023604Y005873D03*
X023784Y006053D03*
X023774Y006063D03*
X023764Y006073D03*
X023764Y006113D03*
X023774Y006123D03*
X023774Y006133D03*
X023784Y006143D03*
X023794Y006163D03*
X023804Y006173D03*
X023804Y006183D03*
X023814Y006193D03*
X023814Y006203D03*
X023814Y006213D03*
X023824Y006223D03*
X023824Y006233D03*
X023824Y006243D03*
X023814Y006253D03*
X023694Y006173D03*
X023694Y006163D03*
X023704Y006153D03*
X023714Y006143D03*
X023724Y006123D03*
X023734Y006113D03*
X023684Y006183D03*
X023674Y006193D03*
X023674Y006203D03*
X023664Y006213D03*
X023644Y006243D03*
X023644Y006253D03*
X023634Y006263D03*
X023634Y006273D03*
X023624Y006283D03*
X023624Y006293D03*
X023614Y006303D03*
X023604Y006313D03*
X023604Y006323D03*
X023594Y006333D03*
X023584Y006343D03*
X023244Y006333D03*
X023234Y006313D03*
X023234Y006303D03*
X023234Y006293D03*
X023234Y006283D03*
X023224Y006263D03*
X023224Y006253D03*
X023224Y006243D03*
X023214Y006223D03*
X023214Y006213D03*
X023214Y006203D03*
X023204Y006183D03*
X023204Y006173D03*
X023194Y006153D03*
X023194Y006143D03*
X023184Y006123D03*
X023184Y006113D03*
X023174Y006103D03*
X023174Y006093D03*
X023174Y006083D03*
X023164Y006073D03*
X023154Y006043D03*
X023094Y006233D03*
X023104Y006243D03*
X023104Y006253D03*
X023104Y006263D03*
X023114Y006273D03*
X023114Y006283D03*
X023114Y006293D03*
X023124Y006303D03*
X023124Y006313D03*
X023124Y006323D03*
X023134Y006353D03*
X023144Y006373D03*
X023144Y006383D03*
X023144Y006393D03*
X023154Y006423D03*
X023154Y006433D03*
X023154Y006443D03*
X023154Y006453D03*
X023244Y006463D03*
X023244Y006473D03*
X023244Y006483D03*
X023244Y006493D03*
X023244Y006503D03*
X023244Y006513D03*
X023244Y006523D03*
X023244Y006533D03*
X023244Y006543D03*
X023244Y006553D03*
X023234Y006583D03*
X023234Y006593D03*
X023234Y006603D03*
X023234Y006613D03*
X023234Y006623D03*
X023224Y006643D03*
X023224Y006653D03*
X023224Y006663D03*
X023154Y006653D03*
X023154Y006643D03*
X023154Y006633D03*
X023154Y006623D03*
X023154Y006613D03*
X023154Y006603D03*
X023154Y006593D03*
X023154Y006583D03*
X023054Y006623D03*
X022884Y006603D03*
X022814Y006603D03*
X022814Y006613D03*
X022814Y006623D03*
X022814Y006633D03*
X022814Y006643D03*
X022814Y006653D03*
X022814Y006663D03*
X022824Y006683D03*
X022824Y006693D03*
X022824Y006703D03*
X022824Y006713D03*
X022814Y006553D03*
X022814Y006543D03*
X022814Y006533D03*
X022814Y006523D03*
X022814Y006513D03*
X022824Y006433D03*
X022824Y006423D03*
X022824Y006413D03*
X022814Y006403D03*
X022814Y006393D03*
X022804Y006373D03*
X022804Y006363D03*
X022794Y006353D03*
X022784Y006333D03*
X022774Y006323D03*
X022764Y006303D03*
X022754Y006293D03*
X022834Y006253D03*
X022834Y006243D03*
X022824Y006233D03*
X022824Y006223D03*
X022824Y006213D03*
X022814Y006193D03*
X022814Y006183D03*
X022814Y006173D03*
X022814Y006163D03*
X022814Y006153D03*
X022814Y006143D03*
X022814Y006133D03*
X022814Y006123D03*
X022824Y006103D03*
X022834Y006073D03*
X022834Y006063D03*
X022844Y006053D03*
X022844Y006043D03*
X022854Y006033D03*
X022854Y006023D03*
X022864Y006013D03*
X022874Y006003D03*
X022874Y005993D03*
X022884Y005983D03*
X022904Y005953D03*
X022914Y005943D03*
X022924Y005923D03*
X022934Y005913D03*
X022944Y005903D03*
X022954Y005893D03*
X022964Y005883D03*
X022974Y005873D03*
X022984Y005833D03*
X022974Y005813D03*
X022964Y005803D03*
X022954Y005783D03*
X022944Y005773D03*
X022934Y005763D03*
X022934Y005753D03*
X022924Y005743D03*
X022924Y005733D03*
X022914Y005723D03*
X022994Y005693D03*
X022994Y005683D03*
X023004Y005713D03*
X023074Y005703D03*
X023084Y005713D03*
X023094Y005723D03*
X023104Y005733D03*
X023114Y005743D03*
X023124Y005753D03*
X023134Y005763D03*
X022784Y006033D03*
X022774Y006043D03*
X022734Y006073D03*
X022844Y006273D03*
X022854Y006293D03*
X022864Y006303D03*
X022864Y006313D03*
X022874Y006323D03*
X022844Y006323D03*
X022894Y006403D03*
X022884Y006413D03*
X022874Y006423D03*
X022864Y006433D03*
X022854Y006443D03*
X023144Y006243D03*
X023164Y006263D03*
X023174Y006273D03*
X023184Y006283D03*
X023194Y006293D03*
X023194Y006303D03*
X023204Y006313D03*
X023214Y006323D03*
X023214Y006333D03*
X023244Y006393D03*
X023244Y006403D03*
X023244Y006413D03*
X023604Y006513D03*
X023614Y006523D03*
X023624Y006533D03*
X023624Y006543D03*
X023634Y006553D03*
X023644Y006563D03*
X023644Y006573D03*
X023654Y006593D03*
X023654Y006603D03*
X023664Y006613D03*
X023664Y006623D03*
X023664Y006633D03*
X023674Y006653D03*
X023674Y006663D03*
X023674Y006673D03*
X023674Y006683D03*
X023674Y006693D03*
X023674Y006793D03*
X023674Y006803D03*
X023674Y006813D03*
X023674Y006823D03*
X023674Y006833D03*
X023674Y006843D03*
X023664Y006863D03*
X023664Y006873D03*
X023664Y006883D03*
X023654Y006903D03*
X023654Y006913D03*
X023654Y006923D03*
X023644Y006933D03*
X023644Y006943D03*
X023644Y006953D03*
X023634Y006963D03*
X023634Y006973D03*
X023624Y006983D03*
X023624Y006993D03*
X023614Y007003D03*
X023614Y007013D03*
X023604Y007023D03*
X023594Y007033D03*
X023584Y007053D03*
X023574Y007063D03*
X023564Y007073D03*
X023554Y007083D03*
X023544Y007093D03*
X023534Y007103D03*
X023204Y006903D03*
X023194Y006913D03*
X023184Y006933D03*
X023174Y006943D03*
X023164Y006953D03*
X023154Y006963D03*
X023144Y006973D03*
X023134Y006983D03*
X023124Y006993D03*
X023214Y006893D03*
X023214Y006883D03*
X023224Y006873D03*
X023234Y006863D03*
X023234Y006853D03*
X023244Y006843D03*
X023254Y006833D03*
X023254Y006823D03*
X023264Y006813D03*
X023264Y006803D03*
X023274Y006793D03*
X023274Y006783D03*
X023284Y006773D03*
X023284Y006763D03*
X023294Y006753D03*
X022654Y006883D03*
X022644Y006873D03*
X022644Y006863D03*
X022934Y007043D03*
X022944Y007053D03*
X022954Y007073D03*
X022964Y007083D03*
X022974Y007093D03*
X022984Y007103D03*
X022994Y007113D03*
X023794Y006043D03*
X023804Y006033D03*
X023814Y006023D03*
X023834Y005993D03*
X023844Y005983D03*
X023854Y005973D03*
X023854Y005963D03*
X023864Y005953D03*
X023864Y005943D03*
D21*
X023579Y006013D03*
X023399Y006073D03*
X023189Y006133D03*
X023199Y006163D03*
X023209Y006193D03*
X023219Y006233D03*
X023229Y006273D03*
X023239Y006323D03*
X023249Y006423D03*
X023249Y006433D03*
X023249Y006443D03*
X023249Y006453D03*
X023159Y006463D03*
X023159Y006473D03*
X023159Y006483D03*
X023159Y006493D03*
X023159Y006503D03*
X023159Y006513D03*
X023159Y006523D03*
X023159Y006533D03*
X023159Y006543D03*
X023159Y006553D03*
X023159Y006563D03*
X023159Y006573D03*
X023239Y006573D03*
X023239Y006563D03*
X023229Y006633D03*
X023349Y006633D03*
X023369Y006563D03*
X023379Y006503D03*
X023379Y006493D03*
X023379Y006323D03*
X023379Y006313D03*
X023139Y006363D03*
X023149Y006403D03*
X023149Y006413D03*
X022829Y006443D03*
X022819Y006503D03*
X022809Y006563D03*
X022809Y006573D03*
X022809Y006583D03*
X022809Y006593D03*
X022819Y006673D03*
X022809Y006383D03*
X022849Y006283D03*
X022839Y006263D03*
X022819Y006203D03*
X022819Y006113D03*
X022999Y005703D03*
X023649Y006583D03*
X023669Y006643D03*
X023679Y006703D03*
X023679Y006713D03*
X023679Y006723D03*
X023679Y006733D03*
X023679Y006743D03*
X023679Y006753D03*
X023679Y006763D03*
X023679Y006773D03*
X023679Y006783D03*
X023669Y006853D03*
X023659Y006893D03*
D22*
X023054Y006583D03*
X023054Y006573D03*
X023054Y006563D03*
X023054Y006553D03*
X023054Y006543D03*
X023054Y006533D03*
X022964Y006423D03*
X022764Y006283D03*
X023494Y006403D03*
X022894Y007013D03*
X023124Y007183D03*
X023444Y005793D03*
X022934Y005713D03*
D23*
X022974Y005723D03*
X023154Y005783D03*
X023404Y005783D03*
X023504Y005943D03*
X023704Y005943D03*
X023784Y006263D03*
X022794Y006093D03*
D24*
X023109Y006223D03*
X022999Y006343D03*
X022939Y006433D03*
X022849Y006473D03*
X022879Y006343D03*
X022869Y006333D03*
X023059Y006513D03*
X023059Y006523D03*
X023059Y006593D03*
X023059Y006603D03*
X022899Y006703D03*
X022849Y006723D03*
X022859Y007003D03*
X023309Y006693D03*
X023719Y006243D03*
X023589Y005993D03*
X023659Y005963D03*
X023679Y005953D03*
X023819Y005913D03*
X023499Y005813D03*
X023469Y005803D03*
X023119Y005793D03*
X023089Y005803D03*
X022989Y005733D03*
X023179Y006063D03*
X023249Y006093D03*
X023339Y006003D03*
X023409Y007173D03*
D25*
X022994Y007033D03*
X023074Y006333D03*
X023284Y005763D03*
D26*
X023269Y005773D03*
D27*
X023804Y005923D03*
D28*
X022829Y005963D03*
X023109Y006663D03*
X023249Y007203D03*
D29*
X022994Y007023D03*
X022804Y005973D03*
D30*
X022779Y006083D03*
D31*
X023009Y006413D03*
X022969Y006683D03*
X022909Y006693D03*
D32*
X023119Y006673D03*
D33*
X023264Y006683D03*
D34*
X023249Y007193D03*
M02*
