G75*
%MOIN*%
%OFA0B0*%
%FSLAX24Y24*%
%IPPOS*%
%LPD*%
%AMOC8*
5,1,8,0,0,1.08239X$1,22.5*
%
%ADD10C,0.0000*%
%ADD11R,0.0669X0.0669*%
%ADD12C,0.0669*%
%ADD13C,0.1890*%
%ADD14C,0.1266*%
%ADD15C,0.0594*%
%ADD16C,0.1581*%
%ADD17C,0.0600*%
%ADD18OC8,0.0520*%
%ADD19C,0.0436*%
%ADD20OC8,0.0600*%
%ADD21C,0.0500*%
%ADD22C,0.0120*%
%ADD23C,0.0150*%
%ADD24C,0.0100*%
D10*
X001936Y000937D02*
X001936Y010268D01*
X034082Y010268D01*
X034082Y000937D01*
X001936Y000937D01*
D11*
X011578Y004949D03*
D12*
X012578Y004949D03*
X013578Y004949D03*
X014578Y004949D03*
X015578Y004949D03*
X016578Y004949D03*
X017578Y004949D03*
X018578Y004949D03*
X019578Y004949D03*
X020578Y004949D03*
X021578Y004949D03*
X022578Y004949D03*
X023578Y004949D03*
X024578Y004949D03*
X024578Y007949D03*
X023578Y007949D03*
X022578Y007949D03*
X021578Y007949D03*
X020578Y007949D03*
X019578Y007949D03*
X018578Y007949D03*
X017578Y007949D03*
X016578Y007949D03*
X015578Y007949D03*
X014578Y007949D03*
X013578Y007949D03*
X012578Y007949D03*
X011578Y007949D03*
D13*
X005515Y007256D03*
X003192Y007256D03*
X004334Y005406D03*
D14*
X006464Y005603D03*
X009928Y005603D03*
D15*
X009180Y003144D02*
X009180Y002550D01*
X008196Y002550D02*
X008196Y003144D01*
X007212Y003144D02*
X007212Y002550D01*
D16*
X027015Y005603D03*
X029849Y005603D03*
X032684Y005603D03*
D17*
X027604Y002407D02*
X027604Y001807D01*
X026604Y001807D02*
X026604Y002407D01*
X016247Y002946D02*
X016247Y003546D01*
X015247Y003546D02*
X015247Y002946D01*
X014247Y002946D02*
X014247Y003546D01*
X013247Y003546D02*
X013247Y002946D01*
X012247Y002946D02*
X012247Y003546D01*
X011247Y003546D02*
X011247Y002946D01*
X010991Y002025D02*
X010991Y001425D01*
X009991Y001425D02*
X009991Y002025D01*
X011991Y002025D02*
X011991Y001425D01*
X006479Y001425D02*
X006479Y002025D01*
X005479Y002025D02*
X005479Y001425D01*
X004479Y001425D02*
X004479Y002025D01*
X007235Y008693D02*
X007235Y009293D01*
X008235Y009293D02*
X008235Y008693D01*
X009235Y008693D02*
X009235Y009293D01*
D18*
X010779Y009599D03*
X012779Y009599D03*
X004511Y009599D03*
X002511Y009599D03*
X017617Y003474D03*
X018617Y003474D03*
X019617Y003474D03*
X020617Y003474D03*
X020617Y001474D03*
X019617Y001474D03*
X018617Y001474D03*
X017617Y001474D03*
X023653Y008969D03*
X025653Y008969D03*
X025653Y009756D03*
X023653Y009756D03*
X028995Y009205D03*
X029995Y009205D03*
X032145Y009205D03*
X033145Y009205D03*
D19*
X022002Y009796D03*
X018002Y009796D03*
D20*
X022393Y003012D03*
X023393Y003012D03*
X024393Y003012D03*
X024393Y002012D03*
X023393Y002012D03*
X022393Y002012D03*
D21*
X026604Y002107D02*
X026604Y002801D01*
X028310Y004507D01*
X028310Y007037D01*
X027780Y007567D01*
X026070Y007567D01*
X024720Y008917D01*
X024720Y009457D01*
X024421Y009756D01*
X023653Y009756D01*
X012779Y009599D02*
X011851Y009599D01*
X010430Y008177D01*
X010430Y006104D01*
X009928Y005603D01*
X009235Y007023D02*
X007600Y005387D01*
X007600Y004747D01*
X007275Y004422D01*
X005479Y002627D01*
X005479Y001725D01*
X006464Y005603D02*
X008235Y007374D01*
X008235Y008993D01*
X009235Y008993D02*
X009235Y007023D01*
D22*
X010930Y006287D02*
X010930Y005357D01*
X010200Y004627D01*
X008900Y004627D01*
X008196Y003924D01*
X008196Y002847D01*
X008660Y002027D02*
X009180Y002548D01*
X009180Y002847D01*
X009530Y002497D01*
X010991Y002497D01*
X011156Y002497D01*
X012660Y002497D01*
X013247Y003085D01*
X013247Y003246D01*
X013247Y002540D01*
X013460Y002327D01*
X017471Y002327D01*
X018617Y003474D01*
X018617Y003910D01*
X017578Y004949D01*
X017578Y006949D01*
X018578Y007949D01*
X019578Y007949D01*
X020080Y007657D02*
X020080Y008357D01*
X019920Y008517D01*
X018146Y008517D01*
X017578Y007949D01*
X017080Y007451D01*
X017080Y004467D01*
X016820Y004207D01*
X012209Y004207D01*
X011247Y003246D01*
X010991Y002497D02*
X010991Y001725D01*
X009991Y001725D02*
X009694Y001427D01*
X007846Y001427D01*
X007212Y002062D01*
X007212Y002847D01*
X007690Y002207D02*
X007690Y004007D01*
X007275Y004422D01*
X010930Y006287D02*
X011930Y007287D01*
X014916Y007287D01*
X015578Y007949D01*
X016080Y008577D02*
X016640Y009137D01*
X018050Y009137D01*
X018708Y009796D01*
X022002Y009796D01*
X021578Y007949D02*
X020956Y007327D01*
X020530Y007327D01*
X020080Y006877D01*
X020080Y004587D01*
X020360Y004307D01*
X020680Y004307D01*
X021360Y003627D01*
X021360Y003045D01*
X022393Y002012D01*
X022898Y001517D02*
X023393Y002012D01*
X022898Y002507D02*
X022393Y003012D01*
X023393Y003012D02*
X021978Y004427D01*
X021410Y004427D01*
X021080Y004757D01*
X021080Y007067D01*
X021410Y007397D01*
X022026Y007397D01*
X022578Y007949D01*
X022430Y007387D02*
X021578Y006535D01*
X021578Y004949D01*
X019140Y003897D02*
X019070Y003967D01*
X019070Y006967D01*
X019230Y007127D01*
X019900Y007127D01*
X020578Y007805D01*
X020578Y007949D01*
X020080Y007657D02*
X019840Y007417D01*
X018990Y007417D01*
X018578Y007005D01*
X018578Y004949D01*
X019140Y003897D02*
X019140Y002857D01*
X019520Y002477D01*
X021020Y002477D01*
X021980Y001517D01*
X022898Y001517D01*
X023698Y001317D02*
X021570Y001317D01*
X020830Y002057D01*
X019030Y002057D01*
X018617Y001645D01*
X018617Y001474D01*
X022898Y002507D02*
X025030Y002507D01*
X026320Y001217D01*
X027860Y001217D01*
X031210Y004567D01*
X031210Y007203D01*
X024393Y002012D02*
X023698Y001317D01*
X016080Y006451D02*
X014578Y004949D01*
X016080Y006451D02*
X016080Y008577D01*
X007870Y002027D02*
X007690Y002207D01*
X007870Y002027D02*
X008660Y002027D01*
D23*
X022430Y007387D02*
X022950Y007387D01*
X023080Y007517D01*
X023080Y008396D01*
X023653Y008969D01*
X025653Y008969D02*
X025889Y009205D01*
X028995Y009205D01*
X029995Y009205D02*
X031210Y007990D01*
X031210Y007203D01*
X032145Y009205D02*
X031594Y009756D01*
X025653Y009756D01*
D24*
X025283Y009802D02*
X024063Y009802D01*
X024063Y009786D02*
X024063Y009926D01*
X023871Y010118D01*
X025491Y010118D01*
X025283Y009910D01*
X025283Y009603D01*
X025499Y009386D01*
X025806Y009386D01*
X025991Y009571D01*
X028838Y009571D01*
X028657Y009390D01*
X025812Y009390D01*
X025761Y009339D01*
X025499Y009339D01*
X025283Y009122D01*
X025283Y008816D01*
X025499Y008599D01*
X025806Y008599D01*
X026023Y008816D01*
X026023Y009020D01*
X028657Y009020D01*
X028842Y008835D01*
X029148Y008835D01*
X029365Y009052D01*
X029365Y009358D01*
X029152Y009571D01*
X029838Y009571D01*
X029625Y009358D01*
X029625Y009052D01*
X029842Y008835D01*
X030103Y008835D01*
X031025Y007914D01*
X031025Y007126D01*
X031040Y007111D01*
X031040Y004638D01*
X027789Y001387D01*
X026769Y001387D01*
X026777Y001390D01*
X026840Y001422D01*
X026897Y001464D01*
X026947Y001514D01*
X026989Y001571D01*
X027021Y001634D01*
X027043Y001702D01*
X027054Y001772D01*
X027054Y002057D01*
X026654Y002057D01*
X026654Y002157D01*
X027054Y002157D01*
X027054Y002442D01*
X027043Y002512D01*
X027021Y002580D01*
X026989Y002643D01*
X026947Y002700D01*
X026897Y002750D01*
X026840Y002792D01*
X026777Y002824D01*
X026709Y002846D01*
X026654Y002855D01*
X026654Y002157D01*
X026554Y002157D01*
X026554Y002855D01*
X026498Y002846D01*
X026431Y002824D01*
X026368Y002792D01*
X026311Y002750D01*
X026261Y002700D01*
X026219Y002643D01*
X026187Y002580D01*
X026165Y002512D01*
X026154Y002442D01*
X026154Y002157D01*
X026554Y002157D01*
X026554Y002057D01*
X026154Y002057D01*
X026154Y001772D01*
X026165Y001702D01*
X026187Y001634D01*
X026219Y001571D01*
X026252Y001525D01*
X025200Y002578D01*
X025100Y002677D01*
X024694Y002677D01*
X024843Y002826D01*
X024843Y002962D01*
X024443Y002962D01*
X024443Y003062D01*
X024843Y003062D01*
X024843Y003199D01*
X024579Y003462D01*
X024443Y003462D01*
X024443Y003062D01*
X024343Y003062D01*
X024343Y002962D01*
X023943Y002962D01*
X023943Y002826D01*
X024091Y002677D01*
X023638Y002677D01*
X023803Y002842D01*
X023803Y003182D01*
X023563Y003422D01*
X023223Y003422D01*
X022148Y004498D01*
X022048Y004597D01*
X021855Y004597D01*
X021955Y004697D01*
X022022Y004861D01*
X022022Y005038D01*
X021955Y005201D01*
X021830Y005326D01*
X021748Y005360D01*
X021748Y006465D01*
X022485Y007202D01*
X023026Y007202D01*
X023156Y007332D01*
X023265Y007441D01*
X023265Y007633D01*
X023326Y007572D01*
X023489Y007505D01*
X023666Y007505D01*
X023830Y007572D01*
X023955Y007697D01*
X024022Y007861D01*
X024022Y008038D01*
X023955Y008201D01*
X023830Y008326D01*
X023666Y008394D01*
X023489Y008394D01*
X023326Y008326D01*
X023265Y008265D01*
X023265Y008319D01*
X023544Y008599D01*
X023806Y008599D01*
X024023Y008816D01*
X024023Y009122D01*
X023806Y009339D01*
X023499Y009339D01*
X023283Y009122D01*
X023283Y008861D01*
X022895Y008473D01*
X022895Y008261D01*
X022830Y008326D01*
X022666Y008394D01*
X022489Y008394D01*
X022326Y008326D01*
X022201Y008201D01*
X022133Y008038D01*
X022133Y007861D01*
X022167Y007779D01*
X021956Y007567D01*
X021818Y007567D01*
X021830Y007572D01*
X021955Y007697D01*
X022022Y007861D01*
X022022Y008038D01*
X021955Y008201D01*
X021830Y008326D01*
X021666Y008394D01*
X021489Y008394D01*
X021326Y008326D01*
X021201Y008201D01*
X021133Y008038D01*
X021133Y007861D01*
X021167Y007779D01*
X020886Y007497D01*
X020510Y007497D01*
X020517Y007505D01*
X020666Y007505D01*
X020830Y007572D01*
X020955Y007697D01*
X021022Y007861D01*
X021022Y008038D01*
X020955Y008201D01*
X020830Y008326D01*
X020666Y008394D01*
X020489Y008394D01*
X020326Y008326D01*
X020201Y008201D01*
X020133Y008038D01*
X020133Y007861D01*
X020201Y007697D01*
X020215Y007683D01*
X019829Y007297D01*
X019159Y007297D01*
X019060Y007198D01*
X018900Y007038D01*
X018900Y005313D01*
X018893Y005319D01*
X018832Y005364D01*
X018764Y005398D01*
X018691Y005422D01*
X018626Y005432D01*
X018626Y004998D01*
X018529Y004998D01*
X018529Y005432D01*
X018464Y005422D01*
X018392Y005398D01*
X018324Y005364D01*
X018262Y005319D01*
X018208Y005265D01*
X018163Y005203D01*
X018129Y005135D01*
X018105Y005063D01*
X018095Y004998D01*
X018529Y004998D01*
X018529Y004901D01*
X018095Y004901D01*
X018105Y004836D01*
X018129Y004763D01*
X018163Y004695D01*
X018208Y004633D01*
X018262Y004580D01*
X018324Y004535D01*
X018392Y004500D01*
X018464Y004477D01*
X018529Y004466D01*
X018529Y004901D01*
X018626Y004901D01*
X018626Y004466D01*
X018691Y004477D01*
X018764Y004500D01*
X018832Y004535D01*
X018893Y004580D01*
X018900Y004586D01*
X018900Y003897D01*
X018970Y003827D01*
X018970Y003644D01*
X018787Y003827D01*
X018787Y003980D01*
X017988Y004779D01*
X018022Y004861D01*
X018022Y005038D01*
X017955Y005201D01*
X017830Y005326D01*
X017748Y005360D01*
X017748Y006879D01*
X018407Y007538D01*
X018489Y007505D01*
X018666Y007505D01*
X018830Y007572D01*
X018955Y007697D01*
X018989Y007779D01*
X019167Y007779D01*
X019201Y007697D01*
X019326Y007572D01*
X019489Y007505D01*
X019666Y007505D01*
X019830Y007572D01*
X019955Y007697D01*
X020022Y007861D01*
X020022Y008038D01*
X019955Y008201D01*
X019830Y008326D01*
X019666Y008394D01*
X019489Y008394D01*
X019326Y008326D01*
X019201Y008201D01*
X019167Y008119D01*
X018989Y008119D01*
X018955Y008201D01*
X018830Y008326D01*
X018666Y008394D01*
X018489Y008394D01*
X018326Y008326D01*
X018201Y008201D01*
X018133Y008038D01*
X018133Y007861D01*
X018167Y007779D01*
X017507Y007119D01*
X017408Y007020D01*
X017408Y005360D01*
X017326Y005326D01*
X017201Y005201D01*
X017133Y005038D01*
X017133Y004861D01*
X017201Y004697D01*
X017326Y004572D01*
X017489Y004505D01*
X017666Y004505D01*
X017748Y004538D01*
X018447Y003839D01*
X018447Y003827D01*
X018247Y003627D01*
X018247Y003344D01*
X017400Y002497D01*
X013530Y002497D01*
X013444Y002584D01*
X013479Y002598D01*
X013595Y002714D01*
X013657Y002864D01*
X013657Y003627D01*
X013595Y003778D01*
X013479Y003893D01*
X013329Y003956D01*
X013165Y003956D01*
X013015Y003893D01*
X012899Y003778D01*
X012837Y003627D01*
X012837Y002915D01*
X012632Y002710D01*
X012664Y002773D01*
X012686Y002841D01*
X012697Y002910D01*
X012697Y003196D01*
X012297Y003196D01*
X012297Y003296D01*
X012197Y003296D01*
X012197Y003994D01*
X012142Y003985D01*
X012074Y003963D01*
X012011Y003931D01*
X011954Y003889D01*
X011904Y003839D01*
X011862Y003782D01*
X011830Y003719D01*
X011808Y003651D01*
X011797Y003581D01*
X011797Y003296D01*
X012197Y003296D01*
X012197Y003196D01*
X011797Y003196D01*
X011797Y002910D01*
X011808Y002841D01*
X011830Y002773D01*
X011862Y002710D01*
X011893Y002667D01*
X011601Y002667D01*
X011632Y002710D01*
X011664Y002773D01*
X011686Y002841D01*
X011697Y002910D01*
X011697Y003196D01*
X011297Y003196D01*
X011297Y003296D01*
X011197Y003296D01*
X011197Y003994D01*
X011142Y003985D01*
X011074Y003963D01*
X011011Y003931D01*
X010954Y003889D01*
X010904Y003839D01*
X010862Y003782D01*
X010830Y003719D01*
X010808Y003651D01*
X010797Y003581D01*
X010797Y003296D01*
X011197Y003296D01*
X011197Y003196D01*
X010797Y003196D01*
X010797Y002910D01*
X010808Y002841D01*
X010830Y002773D01*
X010862Y002710D01*
X010893Y002667D01*
X009600Y002667D01*
X009587Y002680D01*
X009587Y003225D01*
X009525Y003374D01*
X009411Y003489D01*
X009261Y003551D01*
X009099Y003551D01*
X008950Y003489D01*
X008835Y003374D01*
X008773Y003225D01*
X008773Y002469D01*
X008799Y002407D01*
X008589Y002197D01*
X008408Y002197D01*
X008426Y002205D01*
X008541Y002320D01*
X008603Y002469D01*
X008603Y003225D01*
X008541Y003374D01*
X008426Y003489D01*
X008366Y003514D01*
X008366Y003853D01*
X008970Y004457D01*
X010270Y004457D01*
X010370Y004557D01*
X011100Y005287D01*
X011100Y006217D01*
X012000Y007117D01*
X014986Y007117D01*
X015086Y007217D01*
X015407Y007538D01*
X015489Y007505D01*
X015666Y007505D01*
X015830Y007572D01*
X015910Y007652D01*
X015910Y006522D01*
X014748Y005360D01*
X014666Y005394D01*
X014489Y005394D01*
X014326Y005326D01*
X014201Y005201D01*
X014133Y005038D01*
X014133Y004861D01*
X014201Y004697D01*
X014326Y004572D01*
X014489Y004505D01*
X014666Y004505D01*
X014830Y004572D01*
X014955Y004697D01*
X015022Y004861D01*
X015022Y005038D01*
X014988Y005120D01*
X016150Y006281D01*
X016250Y006381D01*
X016250Y007648D01*
X016326Y007572D01*
X016489Y007505D01*
X016666Y007505D01*
X016830Y007572D01*
X016955Y007697D01*
X017022Y007861D01*
X017022Y008038D01*
X016955Y008201D01*
X016830Y008326D01*
X016666Y008394D01*
X016489Y008394D01*
X016326Y008326D01*
X016250Y008250D01*
X016250Y008507D01*
X016710Y008967D01*
X018120Y008967D01*
X018220Y009067D01*
X018778Y009626D01*
X021717Y009626D01*
X021724Y009610D01*
X021816Y009518D01*
X021937Y009468D01*
X022067Y009468D01*
X022188Y009518D01*
X022280Y009610D01*
X022330Y009730D01*
X022330Y009861D01*
X022280Y009982D01*
X022188Y010074D01*
X022081Y010118D01*
X023435Y010118D01*
X023243Y009926D01*
X023243Y009786D01*
X023623Y009786D01*
X023623Y009726D01*
X023683Y009726D01*
X023683Y009786D01*
X024063Y009786D01*
X024063Y009726D02*
X023683Y009726D01*
X023683Y009346D01*
X023822Y009346D01*
X024063Y009586D01*
X024063Y009726D01*
X024063Y009704D02*
X025283Y009704D01*
X025283Y009605D02*
X024063Y009605D01*
X023983Y009507D02*
X025379Y009507D01*
X025477Y009408D02*
X023885Y009408D01*
X023835Y009310D02*
X025470Y009310D01*
X025372Y009211D02*
X023933Y009211D01*
X024023Y009113D02*
X025283Y009113D01*
X025283Y009014D02*
X024023Y009014D01*
X024023Y008916D02*
X025283Y008916D01*
X025283Y008817D02*
X024023Y008817D01*
X023926Y008719D02*
X025379Y008719D01*
X025478Y008620D02*
X023827Y008620D01*
X023467Y008522D02*
X030417Y008522D01*
X030515Y008423D02*
X023369Y008423D01*
X023325Y008325D02*
X023270Y008325D01*
X022895Y008325D02*
X022831Y008325D01*
X022895Y008423D02*
X017682Y008423D01*
X017691Y008422D02*
X017626Y008432D01*
X017626Y007998D01*
X017529Y007998D01*
X017529Y008432D01*
X017464Y008422D01*
X017392Y008398D01*
X017324Y008364D01*
X017262Y008319D01*
X017208Y008265D01*
X017163Y008203D01*
X017129Y008135D01*
X017105Y008063D01*
X017095Y007998D01*
X017529Y007998D01*
X017529Y007901D01*
X017095Y007901D01*
X017105Y007836D01*
X017129Y007763D01*
X017163Y007695D01*
X017208Y007633D01*
X017262Y007580D01*
X017324Y007535D01*
X017392Y007500D01*
X017464Y007477D01*
X017529Y007466D01*
X017529Y007901D01*
X017626Y007901D01*
X017626Y007998D01*
X018061Y007998D01*
X018050Y008063D01*
X018027Y008135D01*
X017992Y008203D01*
X017947Y008265D01*
X017893Y008319D01*
X017832Y008364D01*
X017764Y008398D01*
X017691Y008422D01*
X017626Y008423D02*
X017529Y008423D01*
X017474Y008423D02*
X016250Y008423D01*
X016250Y008325D02*
X016325Y008325D01*
X015910Y008325D02*
X015831Y008325D01*
X015830Y008326D02*
X015666Y008394D01*
X015489Y008394D01*
X015326Y008326D01*
X015201Y008201D01*
X015133Y008038D01*
X015133Y007861D01*
X015167Y007779D01*
X014846Y007457D01*
X011859Y007457D01*
X010859Y006457D01*
X010760Y006358D01*
X010760Y005428D01*
X010663Y005331D01*
X010671Y005351D01*
X010698Y005450D01*
X010711Y005551D01*
X010711Y005553D01*
X009978Y005553D01*
X009978Y005653D01*
X009878Y005653D01*
X009878Y006386D01*
X009877Y006386D01*
X009775Y006372D01*
X009676Y006346D01*
X009581Y006307D01*
X009492Y006255D01*
X009411Y006193D01*
X009338Y006120D01*
X009276Y006039D01*
X009224Y005950D01*
X009185Y005855D01*
X009158Y005756D01*
X009145Y005654D01*
X009145Y005653D01*
X009878Y005653D01*
X009878Y005553D01*
X009145Y005553D01*
X009145Y005551D01*
X009158Y005450D01*
X009185Y005351D01*
X009224Y005256D01*
X009276Y005167D01*
X009338Y005085D01*
X009411Y005013D01*
X009492Y004950D01*
X009581Y004899D01*
X009676Y004860D01*
X009775Y004833D01*
X009877Y004820D01*
X009878Y004820D01*
X009878Y005553D01*
X009978Y005553D01*
X009978Y004820D01*
X009979Y004820D01*
X010081Y004833D01*
X010180Y004860D01*
X010199Y004868D01*
X010129Y004797D01*
X008829Y004797D01*
X008125Y004094D01*
X008026Y003994D01*
X008026Y003514D01*
X007965Y003489D01*
X007860Y003383D01*
X007860Y004078D01*
X007649Y004288D01*
X007905Y004543D01*
X007960Y004676D01*
X007960Y005238D01*
X009540Y006819D01*
X009595Y006951D01*
X009595Y008490D01*
X009645Y008611D01*
X009645Y009374D01*
X009583Y009525D01*
X009467Y009640D01*
X009317Y009703D01*
X009154Y009703D01*
X009003Y009640D01*
X008888Y009525D01*
X008825Y009374D01*
X008825Y008611D01*
X008875Y008490D01*
X008875Y007172D01*
X007396Y005693D01*
X007295Y005591D01*
X007240Y005459D01*
X007240Y004897D01*
X007071Y004728D01*
X005275Y002932D01*
X005174Y002831D01*
X005119Y002699D01*
X005119Y002227D01*
X005069Y002106D01*
X005069Y001343D01*
X005132Y001193D01*
X005237Y001087D01*
X004778Y001087D01*
X004823Y001132D01*
X004864Y001189D01*
X004896Y001252D01*
X004918Y001319D01*
X004929Y001389D01*
X004929Y001675D01*
X004529Y001675D01*
X004529Y001775D01*
X004429Y001775D01*
X004429Y001675D01*
X004029Y001675D01*
X004029Y001389D01*
X004040Y001319D01*
X004062Y001252D01*
X004094Y001189D01*
X004136Y001132D01*
X004180Y001087D01*
X002086Y001087D01*
X002086Y010118D01*
X017822Y010118D01*
X017768Y010082D01*
X017716Y010030D01*
X017676Y009970D01*
X017648Y009903D01*
X017634Y009832D01*
X017634Y009805D01*
X017993Y009805D01*
X017993Y009787D01*
X017634Y009787D01*
X017634Y009759D01*
X017648Y009688D01*
X017676Y009621D01*
X017716Y009561D01*
X017768Y009510D01*
X017828Y009469D01*
X017895Y009442D01*
X017966Y009428D01*
X017993Y009428D01*
X017993Y009787D01*
X018011Y009787D01*
X018011Y009805D01*
X018370Y009805D01*
X018370Y009832D01*
X018356Y009903D01*
X018328Y009970D01*
X018288Y010030D01*
X018237Y010082D01*
X018182Y010118D01*
X021923Y010118D01*
X021816Y010074D01*
X021724Y009982D01*
X021717Y009966D01*
X018638Y009966D01*
X018353Y009681D01*
X018356Y009688D01*
X018370Y009759D01*
X018370Y009787D01*
X018011Y009787D01*
X018011Y009428D01*
X018038Y009428D01*
X018110Y009442D01*
X018116Y009445D01*
X017979Y009307D01*
X016569Y009307D01*
X016470Y009208D01*
X015910Y008648D01*
X015910Y008246D01*
X015830Y008326D01*
X015910Y008423D02*
X009595Y008423D01*
X009595Y008325D02*
X011325Y008325D01*
X011326Y008326D02*
X011201Y008201D01*
X011133Y008038D01*
X011133Y007861D01*
X011201Y007697D01*
X011326Y007572D01*
X011489Y007505D01*
X011666Y007505D01*
X011830Y007572D01*
X011955Y007697D01*
X012022Y007861D01*
X012022Y008038D01*
X011955Y008201D01*
X011830Y008326D01*
X011666Y008394D01*
X011489Y008394D01*
X011326Y008326D01*
X011226Y008226D02*
X009595Y008226D01*
X009595Y008128D02*
X011170Y008128D01*
X011133Y008029D02*
X009595Y008029D01*
X009595Y007931D02*
X011133Y007931D01*
X011145Y007832D02*
X009595Y007832D01*
X009595Y007734D02*
X011186Y007734D01*
X011263Y007635D02*
X009595Y007635D01*
X009595Y007537D02*
X011411Y007537D01*
X011744Y007537D02*
X012411Y007537D01*
X012489Y007505D02*
X012666Y007505D01*
X012830Y007572D01*
X012955Y007697D01*
X013022Y007861D01*
X013022Y008038D01*
X012955Y008201D01*
X012830Y008326D01*
X012666Y008394D01*
X012489Y008394D01*
X012326Y008326D01*
X012201Y008201D01*
X012133Y008038D01*
X012133Y007861D01*
X012201Y007697D01*
X012326Y007572D01*
X012489Y007505D01*
X012744Y007537D02*
X013411Y007537D01*
X013489Y007505D02*
X013666Y007505D01*
X013830Y007572D01*
X013955Y007697D01*
X014022Y007861D01*
X014022Y008038D01*
X013955Y008201D01*
X013830Y008326D01*
X013666Y008394D01*
X013489Y008394D01*
X013326Y008326D01*
X013201Y008201D01*
X013133Y008038D01*
X013133Y007861D01*
X013201Y007697D01*
X013326Y007572D01*
X013489Y007505D01*
X013744Y007537D02*
X014411Y007537D01*
X014489Y007505D02*
X014326Y007572D01*
X014201Y007697D01*
X014133Y007861D01*
X014133Y008038D01*
X014201Y008201D01*
X014326Y008326D01*
X014489Y008394D01*
X014666Y008394D01*
X014830Y008326D01*
X014955Y008201D01*
X015022Y008038D01*
X015022Y007861D01*
X014955Y007697D01*
X014830Y007572D01*
X014666Y007505D01*
X014489Y007505D01*
X014744Y007537D02*
X014925Y007537D01*
X014893Y007635D02*
X015024Y007635D01*
X014970Y007734D02*
X015122Y007734D01*
X015145Y007832D02*
X015011Y007832D01*
X015022Y007931D02*
X015133Y007931D01*
X015133Y008029D02*
X015022Y008029D01*
X014985Y008128D02*
X015170Y008128D01*
X015226Y008226D02*
X014929Y008226D01*
X014831Y008325D02*
X015325Y008325D01*
X015910Y008522D02*
X009608Y008522D01*
X009645Y008620D02*
X015910Y008620D01*
X015981Y008719D02*
X009645Y008719D01*
X009645Y008817D02*
X016079Y008817D01*
X016178Y008916D02*
X009645Y008916D01*
X009645Y009014D02*
X016276Y009014D01*
X016375Y009113D02*
X009645Y009113D01*
X009645Y009211D02*
X012586Y009211D01*
X012609Y009189D02*
X012749Y009189D01*
X012749Y009569D01*
X012809Y009569D01*
X012809Y009629D01*
X013189Y009629D01*
X013189Y009769D01*
X012948Y010009D01*
X012809Y010009D01*
X012809Y009629D01*
X012749Y009629D01*
X012749Y010009D01*
X012609Y010009D01*
X012369Y009769D01*
X012369Y009629D01*
X012749Y009629D01*
X012749Y009569D01*
X012369Y009569D01*
X012369Y009429D01*
X012609Y009189D01*
X012749Y009211D02*
X012809Y009211D01*
X012809Y009189D02*
X012948Y009189D01*
X013189Y009429D01*
X013189Y009569D01*
X012809Y009569D01*
X012809Y009189D01*
X012809Y009310D02*
X012749Y009310D01*
X012749Y009408D02*
X012809Y009408D01*
X012809Y009507D02*
X012749Y009507D01*
X012749Y009605D02*
X011149Y009605D01*
X011149Y009507D02*
X012369Y009507D01*
X012389Y009408D02*
X011111Y009408D01*
X011149Y009446D02*
X010932Y009229D01*
X010625Y009229D01*
X010409Y009446D01*
X010409Y009752D01*
X010625Y009969D01*
X010932Y009969D01*
X011149Y009752D01*
X011149Y009446D01*
X011013Y009310D02*
X012488Y009310D01*
X012971Y009211D02*
X016473Y009211D01*
X016659Y008916D02*
X023283Y008916D01*
X023283Y009014D02*
X018167Y009014D01*
X018266Y009113D02*
X023283Y009113D01*
X023372Y009211D02*
X018364Y009211D01*
X018463Y009310D02*
X023470Y009310D01*
X023483Y009346D02*
X023623Y009346D01*
X023623Y009726D01*
X023243Y009726D01*
X023243Y009586D01*
X023483Y009346D01*
X023421Y009408D02*
X018561Y009408D01*
X018660Y009507D02*
X021842Y009507D01*
X021728Y009605D02*
X018758Y009605D01*
X018474Y009802D02*
X018011Y009802D01*
X017993Y009802D02*
X013155Y009802D01*
X013189Y009704D02*
X017645Y009704D01*
X017687Y009605D02*
X012809Y009605D01*
X012809Y009704D02*
X012749Y009704D01*
X012749Y009802D02*
X012809Y009802D01*
X012809Y009901D02*
X012749Y009901D01*
X012749Y009999D02*
X012809Y009999D01*
X012958Y009999D02*
X017696Y009999D01*
X017648Y009901D02*
X013056Y009901D01*
X012599Y009999D02*
X002690Y009999D01*
X002681Y010009D02*
X002541Y010009D01*
X002541Y009629D01*
X002921Y009629D01*
X002921Y009769D01*
X002681Y010009D01*
X002541Y009999D02*
X002481Y009999D01*
X002481Y010009D02*
X002341Y010009D01*
X002101Y009769D01*
X002101Y009629D01*
X002481Y009629D01*
X002481Y010009D01*
X002481Y009901D02*
X002541Y009901D01*
X002541Y009802D02*
X002481Y009802D01*
X002481Y009704D02*
X002541Y009704D01*
X002541Y009629D02*
X002481Y009629D01*
X002481Y009569D01*
X002541Y009569D01*
X002541Y009629D01*
X002541Y009605D02*
X004141Y009605D01*
X004141Y009507D02*
X002921Y009507D01*
X002921Y009569D02*
X002921Y009429D01*
X002681Y009189D01*
X002541Y009189D01*
X002541Y009569D01*
X002921Y009569D01*
X002921Y009704D02*
X004141Y009704D01*
X004141Y009752D02*
X004141Y009446D01*
X004358Y009229D01*
X004664Y009229D01*
X004881Y009446D01*
X004881Y009752D01*
X004664Y009969D01*
X004358Y009969D01*
X004141Y009752D01*
X004191Y009802D02*
X002887Y009802D01*
X002789Y009901D02*
X004290Y009901D01*
X004732Y009901D02*
X010557Y009901D01*
X010459Y009802D02*
X004830Y009802D01*
X004881Y009704D02*
X008051Y009704D01*
X008062Y009710D02*
X007999Y009677D01*
X007942Y009636D01*
X007892Y009586D01*
X007850Y009528D01*
X007818Y009465D01*
X007796Y009398D01*
X007785Y009328D01*
X007785Y009043D01*
X008185Y009043D01*
X008185Y009740D01*
X008130Y009731D01*
X008062Y009710D01*
X008185Y009704D02*
X008285Y009704D01*
X008285Y009740D02*
X008285Y009043D01*
X008185Y009043D01*
X008185Y008943D01*
X007785Y008943D01*
X007785Y008657D01*
X007796Y008587D01*
X007818Y008520D01*
X007850Y008457D01*
X007892Y008399D01*
X007942Y008349D01*
X007999Y008308D01*
X008062Y008275D01*
X008130Y008254D01*
X008185Y008245D01*
X008185Y008943D01*
X008285Y008943D01*
X008285Y009043D01*
X008685Y009043D01*
X008685Y009328D01*
X008674Y009398D01*
X008652Y009465D01*
X008620Y009528D01*
X008578Y009586D01*
X008528Y009636D01*
X008471Y009677D01*
X008408Y009710D01*
X008341Y009731D01*
X008285Y009740D01*
X008285Y009605D02*
X008185Y009605D01*
X008185Y009507D02*
X008285Y009507D01*
X008285Y009408D02*
X008185Y009408D01*
X008185Y009310D02*
X008285Y009310D01*
X008285Y009211D02*
X008185Y009211D01*
X008185Y009113D02*
X008285Y009113D01*
X008285Y009014D02*
X008825Y009014D01*
X008825Y008916D02*
X008685Y008916D01*
X008685Y008943D02*
X008285Y008943D01*
X008285Y008245D01*
X008341Y008254D01*
X008408Y008275D01*
X008471Y008308D01*
X008528Y008349D01*
X008578Y008399D01*
X008620Y008457D01*
X008652Y008520D01*
X008674Y008587D01*
X008685Y008657D01*
X008685Y008943D01*
X008685Y008817D02*
X008825Y008817D01*
X008825Y008719D02*
X008685Y008719D01*
X008679Y008620D02*
X008825Y008620D01*
X008862Y008522D02*
X008653Y008522D01*
X008596Y008423D02*
X008875Y008423D01*
X008875Y008325D02*
X008495Y008325D01*
X008285Y008325D02*
X008185Y008325D01*
X008185Y008423D02*
X008285Y008423D01*
X008285Y008522D02*
X008185Y008522D01*
X008185Y008620D02*
X008285Y008620D01*
X008285Y008719D02*
X008185Y008719D01*
X008185Y008817D02*
X008285Y008817D01*
X008285Y008916D02*
X008185Y008916D01*
X008185Y009014D02*
X007645Y009014D01*
X007645Y008916D02*
X007785Y008916D01*
X007785Y008817D02*
X007645Y008817D01*
X007645Y008719D02*
X007785Y008719D01*
X007791Y008620D02*
X007645Y008620D01*
X007645Y008611D02*
X007645Y009374D01*
X007583Y009525D01*
X007467Y009640D01*
X007317Y009703D01*
X007154Y009703D01*
X007003Y009640D01*
X006888Y009525D01*
X006825Y009374D01*
X006825Y008611D01*
X006888Y008460D01*
X007003Y008345D01*
X007154Y008283D01*
X007317Y008283D01*
X007467Y008345D01*
X007583Y008460D01*
X007645Y008611D01*
X007608Y008522D02*
X007818Y008522D01*
X007875Y008423D02*
X007546Y008423D01*
X007419Y008325D02*
X007976Y008325D01*
X007051Y008325D02*
X003430Y008325D01*
X003376Y008337D02*
X003253Y008351D01*
X003242Y008351D01*
X003242Y007306D01*
X004287Y007306D01*
X004287Y007318D01*
X004273Y007440D01*
X004246Y007560D01*
X004205Y007676D01*
X004152Y007787D01*
X004086Y007891D01*
X004010Y007987D01*
X003923Y008074D01*
X003827Y008151D01*
X003722Y008216D01*
X003612Y008269D01*
X003496Y008310D01*
X003376Y008337D01*
X003242Y008325D02*
X003142Y008325D01*
X003142Y008351D02*
X003130Y008351D01*
X003008Y008337D01*
X002888Y008310D01*
X002772Y008269D01*
X002661Y008216D01*
X002557Y008151D01*
X002461Y008074D01*
X002374Y007987D01*
X002298Y007891D01*
X002232Y007787D01*
X002179Y007676D01*
X002138Y007560D01*
X002111Y007440D01*
X002097Y007318D01*
X002097Y007306D01*
X003142Y007306D01*
X003142Y007206D01*
X003242Y007206D01*
X003242Y006161D01*
X003253Y006161D01*
X003376Y006175D01*
X003496Y006203D01*
X003612Y006243D01*
X003722Y006297D01*
X003827Y006362D01*
X003923Y006439D01*
X004010Y006526D01*
X004086Y006622D01*
X004152Y006726D01*
X004205Y006837D01*
X004246Y006953D01*
X004273Y007073D01*
X004287Y007195D01*
X004287Y007206D01*
X003242Y007206D01*
X003242Y007306D01*
X003142Y007306D01*
X003142Y008351D01*
X003142Y008226D02*
X003242Y008226D01*
X003242Y008128D02*
X003142Y008128D01*
X003142Y008029D02*
X003242Y008029D01*
X003242Y007931D02*
X003142Y007931D01*
X003142Y007832D02*
X003242Y007832D01*
X003242Y007734D02*
X003142Y007734D01*
X003142Y007635D02*
X003242Y007635D01*
X003242Y007537D02*
X003142Y007537D01*
X003142Y007438D02*
X003242Y007438D01*
X003242Y007340D02*
X003142Y007340D01*
X003142Y007241D02*
X002086Y007241D01*
X002097Y007206D02*
X002097Y007195D01*
X002111Y007073D01*
X002138Y006953D01*
X002179Y006837D01*
X002232Y006726D01*
X002298Y006622D01*
X002374Y006526D01*
X002461Y006439D01*
X002557Y006362D01*
X002661Y006297D01*
X002772Y006243D01*
X002888Y006203D01*
X003008Y006175D01*
X003130Y006161D01*
X003142Y006161D01*
X003142Y007206D01*
X002097Y007206D01*
X002086Y007143D02*
X002103Y007143D01*
X002117Y007044D02*
X002086Y007044D01*
X002086Y006946D02*
X002141Y006946D01*
X002175Y006847D02*
X002086Y006847D01*
X002086Y006749D02*
X002221Y006749D01*
X002280Y006650D02*
X002086Y006650D01*
X002086Y006552D02*
X002353Y006552D01*
X002446Y006453D02*
X002086Y006453D01*
X002086Y006355D02*
X002569Y006355D01*
X002745Y006256D02*
X002086Y006256D01*
X002086Y006158D02*
X003594Y006158D01*
X003639Y006256D02*
X003697Y006256D01*
X003686Y006250D02*
X003490Y006054D01*
X003351Y005813D01*
X003279Y005545D01*
X003279Y005267D01*
X003351Y004999D01*
X003490Y004758D01*
X003686Y004562D01*
X003926Y004423D01*
X004195Y004351D01*
X004473Y004351D01*
X004741Y004423D01*
X004981Y004562D01*
X005178Y004758D01*
X005317Y004999D01*
X005389Y005267D01*
X005389Y005545D01*
X005317Y005813D01*
X005178Y006054D01*
X004981Y006250D01*
X004741Y006389D01*
X004473Y006461D01*
X004195Y006461D01*
X003926Y006389D01*
X003686Y006250D01*
X003815Y006355D02*
X003868Y006355D01*
X003937Y006453D02*
X004167Y006453D01*
X004031Y006552D02*
X004727Y006552D01*
X004671Y006609D02*
X004867Y006412D01*
X005108Y006273D01*
X005376Y006201D01*
X005654Y006201D01*
X005922Y006273D01*
X006162Y006412D01*
X006359Y006609D01*
X006498Y006849D01*
X006570Y007117D01*
X006570Y007395D01*
X006498Y007663D01*
X006359Y007904D01*
X006162Y008100D01*
X005922Y008239D01*
X005654Y008311D01*
X005376Y008311D01*
X005108Y008239D01*
X004867Y008100D01*
X004671Y007904D01*
X004532Y007663D01*
X004460Y007395D01*
X004460Y007117D01*
X004532Y006849D01*
X004671Y006609D01*
X004646Y006650D02*
X004104Y006650D01*
X004163Y006749D02*
X004590Y006749D01*
X004533Y006847D02*
X004209Y006847D01*
X004243Y006946D02*
X004506Y006946D01*
X004479Y007044D02*
X004267Y007044D01*
X004281Y007143D02*
X004460Y007143D01*
X004460Y007241D02*
X003242Y007241D01*
X003242Y007143D02*
X003142Y007143D01*
X003142Y007044D02*
X003242Y007044D01*
X003242Y006946D02*
X003142Y006946D01*
X003142Y006847D02*
X003242Y006847D01*
X003242Y006749D02*
X003142Y006749D01*
X003142Y006650D02*
X003242Y006650D01*
X003242Y006552D02*
X003142Y006552D01*
X003142Y006453D02*
X003242Y006453D01*
X003242Y006355D02*
X003142Y006355D01*
X003142Y006256D02*
X003242Y006256D01*
X003495Y006059D02*
X002086Y006059D01*
X002086Y005961D02*
X003436Y005961D01*
X003379Y005862D02*
X002086Y005862D01*
X002086Y005764D02*
X003337Y005764D01*
X003311Y005665D02*
X002086Y005665D01*
X002086Y005567D02*
X003285Y005567D01*
X003279Y005468D02*
X002086Y005468D01*
X002086Y005370D02*
X003279Y005370D01*
X003279Y005271D02*
X002086Y005271D01*
X002086Y005173D02*
X003304Y005173D01*
X003330Y005074D02*
X002086Y005074D01*
X002086Y004976D02*
X003364Y004976D01*
X003421Y004877D02*
X002086Y004877D01*
X002086Y004779D02*
X003478Y004779D01*
X003567Y004680D02*
X002086Y004680D01*
X002086Y004582D02*
X003666Y004582D01*
X003822Y004483D02*
X002086Y004483D01*
X002086Y004385D02*
X004068Y004385D01*
X004599Y004385D02*
X006728Y004385D01*
X006630Y004286D02*
X002086Y004286D01*
X002086Y004188D02*
X006531Y004188D01*
X006433Y004089D02*
X002086Y004089D01*
X002086Y003991D02*
X006334Y003991D01*
X006236Y003892D02*
X002086Y003892D01*
X002086Y003794D02*
X006137Y003794D01*
X006039Y003695D02*
X002086Y003695D01*
X002086Y003597D02*
X005940Y003597D01*
X005842Y003498D02*
X002086Y003498D01*
X002086Y003400D02*
X005743Y003400D01*
X005645Y003301D02*
X002086Y003301D01*
X002086Y003203D02*
X005546Y003203D01*
X005448Y003104D02*
X002086Y003104D01*
X002086Y003006D02*
X005349Y003006D01*
X005251Y002907D02*
X002086Y002907D01*
X002086Y002809D02*
X005165Y002809D01*
X005124Y002710D02*
X002086Y002710D01*
X002086Y002612D02*
X005119Y002612D01*
X005119Y002513D02*
X002086Y002513D01*
X002086Y002415D02*
X004254Y002415D01*
X004243Y002410D02*
X004186Y002368D01*
X004136Y002318D01*
X004094Y002261D01*
X004062Y002198D01*
X004040Y002130D01*
X004029Y002060D01*
X004029Y001775D01*
X004429Y001775D01*
X004429Y002472D01*
X004374Y002464D01*
X004307Y002442D01*
X004243Y002410D01*
X004135Y002316D02*
X002086Y002316D01*
X002086Y002218D02*
X004073Y002218D01*
X004039Y002119D02*
X002086Y002119D01*
X002086Y002021D02*
X004029Y002021D01*
X004029Y001922D02*
X002086Y001922D01*
X002086Y001824D02*
X004029Y001824D01*
X004029Y001627D02*
X002086Y001627D01*
X002086Y001725D02*
X004429Y001725D01*
X004429Y001824D02*
X004529Y001824D01*
X004529Y001775D02*
X004529Y002472D01*
X004585Y002464D01*
X004652Y002442D01*
X004715Y002410D01*
X004772Y002368D01*
X004823Y002318D01*
X004864Y002261D01*
X004896Y002198D01*
X004918Y002130D01*
X004929Y002060D01*
X004929Y001775D01*
X004529Y001775D01*
X004529Y001725D02*
X005069Y001725D01*
X005069Y001627D02*
X004929Y001627D01*
X004929Y001528D02*
X005069Y001528D01*
X005069Y001430D02*
X004929Y001430D01*
X004920Y001331D02*
X005074Y001331D01*
X005115Y001233D02*
X004887Y001233D01*
X004825Y001134D02*
X005190Y001134D01*
X005722Y001087D02*
X005827Y001193D01*
X005889Y001343D01*
X005889Y002106D01*
X005839Y002227D01*
X005839Y002478D01*
X007409Y004048D01*
X007520Y003937D01*
X007520Y003468D01*
X007503Y003485D01*
X007446Y003526D01*
X007383Y003558D01*
X007316Y003580D01*
X007260Y003588D01*
X007260Y002895D01*
X007163Y002895D01*
X007163Y002798D01*
X007260Y002798D01*
X007260Y002105D01*
X007316Y002114D01*
X007383Y002136D01*
X007446Y002168D01*
X007503Y002209D01*
X007520Y002226D01*
X007520Y002137D01*
X007619Y002037D01*
X007799Y001857D01*
X008730Y001857D01*
X008830Y001957D01*
X009040Y002168D01*
X009099Y002143D01*
X009261Y002143D01*
X009411Y002205D01*
X009525Y002320D01*
X009528Y002327D01*
X009657Y002327D01*
X009648Y002318D01*
X009606Y002261D01*
X009574Y002198D01*
X009552Y002130D01*
X009541Y002060D01*
X009541Y001775D01*
X009941Y001775D01*
X009941Y001675D01*
X009541Y001675D01*
X009541Y001389D01*
X009552Y001319D01*
X009574Y001252D01*
X009606Y001189D01*
X009648Y001132D01*
X009692Y001087D01*
X006722Y001087D01*
X006827Y001193D01*
X006889Y001343D01*
X006889Y002106D01*
X006827Y002257D01*
X006712Y002372D01*
X006561Y002435D01*
X006398Y002435D01*
X006247Y002372D01*
X006132Y002257D01*
X006069Y002106D01*
X006069Y001343D01*
X006132Y001193D01*
X006237Y001087D01*
X005722Y001087D01*
X005769Y001134D02*
X006190Y001134D01*
X006115Y001233D02*
X005844Y001233D01*
X005884Y001331D02*
X006074Y001331D01*
X006069Y001430D02*
X005889Y001430D01*
X005889Y001528D02*
X006069Y001528D01*
X006069Y001627D02*
X005889Y001627D01*
X005889Y001725D02*
X006069Y001725D01*
X006069Y001824D02*
X005889Y001824D01*
X005889Y001922D02*
X006069Y001922D01*
X006069Y002021D02*
X005889Y002021D01*
X005884Y002119D02*
X006075Y002119D01*
X006116Y002218D02*
X005843Y002218D01*
X005839Y002316D02*
X006191Y002316D01*
X006350Y002415D02*
X005839Y002415D01*
X005875Y002513D02*
X006765Y002513D01*
X006765Y002515D02*
X006776Y002445D01*
X006798Y002378D01*
X006829Y002316D01*
X006768Y002316D01*
X006829Y002316D02*
X006871Y002259D01*
X006921Y002209D01*
X006977Y002168D01*
X007040Y002136D01*
X007107Y002114D01*
X007163Y002105D01*
X007163Y002798D01*
X006765Y002798D01*
X006765Y002515D01*
X006765Y002612D02*
X005973Y002612D01*
X006072Y002710D02*
X006765Y002710D01*
X006765Y002895D02*
X007163Y002895D01*
X007163Y003588D01*
X007107Y003580D01*
X007040Y003558D01*
X006977Y003526D01*
X006921Y003485D01*
X006871Y003435D01*
X006829Y003378D01*
X006798Y003315D01*
X006776Y003248D01*
X006765Y003179D01*
X006765Y002895D01*
X006765Y002907D02*
X006269Y002907D01*
X006170Y002809D02*
X007163Y002809D01*
X007163Y002907D02*
X007260Y002907D01*
X007260Y003006D02*
X007163Y003006D01*
X007163Y003104D02*
X007260Y003104D01*
X007260Y003203D02*
X007163Y003203D01*
X007163Y003301D02*
X007260Y003301D01*
X007260Y003400D02*
X007163Y003400D01*
X007163Y003498D02*
X007260Y003498D01*
X007484Y003498D02*
X007520Y003498D01*
X007520Y003597D02*
X006958Y003597D01*
X006940Y003498D02*
X006860Y003498D01*
X006845Y003400D02*
X006761Y003400D01*
X006793Y003301D02*
X006663Y003301D01*
X006564Y003203D02*
X006769Y003203D01*
X006765Y003104D02*
X006466Y003104D01*
X006367Y003006D02*
X006765Y003006D01*
X007163Y002710D02*
X007260Y002710D01*
X007260Y002612D02*
X007163Y002612D01*
X007163Y002513D02*
X007260Y002513D01*
X007260Y002415D02*
X007163Y002415D01*
X007163Y002316D02*
X007260Y002316D01*
X007260Y002218D02*
X007163Y002218D01*
X007163Y002119D02*
X007260Y002119D01*
X007332Y002119D02*
X007537Y002119D01*
X007520Y002218D02*
X007511Y002218D01*
X007636Y002021D02*
X006889Y002021D01*
X006884Y002119D02*
X007091Y002119D01*
X006912Y002218D02*
X006843Y002218D01*
X006786Y002415D02*
X006609Y002415D01*
X006889Y001922D02*
X007734Y001922D01*
X006889Y001824D02*
X009541Y001824D01*
X009541Y001922D02*
X008795Y001922D01*
X008830Y001957D02*
X008830Y001957D01*
X008894Y002021D02*
X009541Y002021D01*
X009551Y002119D02*
X008992Y002119D01*
X008610Y002218D02*
X008439Y002218D01*
X008538Y002316D02*
X008708Y002316D01*
X008796Y002415D02*
X008580Y002415D01*
X008603Y002513D02*
X008773Y002513D01*
X008773Y002612D02*
X008603Y002612D01*
X008603Y002710D02*
X008773Y002710D01*
X008773Y002809D02*
X008603Y002809D01*
X008603Y002907D02*
X008773Y002907D01*
X008773Y003006D02*
X008603Y003006D01*
X008603Y003104D02*
X008773Y003104D01*
X008773Y003203D02*
X008603Y003203D01*
X008571Y003301D02*
X008805Y003301D01*
X008861Y003400D02*
X008515Y003400D01*
X008403Y003498D02*
X008973Y003498D01*
X009387Y003498D02*
X010797Y003498D01*
X010797Y003400D02*
X009499Y003400D01*
X009555Y003301D02*
X010797Y003301D01*
X010797Y003104D02*
X009587Y003104D01*
X009587Y003006D02*
X010797Y003006D01*
X010798Y002907D02*
X009587Y002907D01*
X009587Y002809D02*
X010818Y002809D01*
X010862Y002710D02*
X009587Y002710D01*
X009647Y002316D02*
X009522Y002316D01*
X009584Y002218D02*
X009423Y002218D01*
X009941Y001725D02*
X006889Y001725D01*
X006889Y001627D02*
X009541Y001627D01*
X009541Y001528D02*
X006889Y001528D01*
X006889Y001430D02*
X009541Y001430D01*
X009550Y001331D02*
X006884Y001331D01*
X006844Y001233D02*
X009584Y001233D01*
X009646Y001134D02*
X006769Y001134D01*
X005069Y001824D02*
X004929Y001824D01*
X004929Y001922D02*
X005069Y001922D01*
X005069Y002021D02*
X004929Y002021D01*
X004920Y002119D02*
X005075Y002119D01*
X005116Y002218D02*
X004886Y002218D01*
X004824Y002316D02*
X005119Y002316D01*
X005119Y002415D02*
X004705Y002415D01*
X004529Y002415D02*
X004429Y002415D01*
X004429Y002316D02*
X004529Y002316D01*
X004529Y002218D02*
X004429Y002218D01*
X004429Y002119D02*
X004529Y002119D01*
X004529Y002021D02*
X004429Y002021D01*
X004429Y001922D02*
X004529Y001922D01*
X004029Y001528D02*
X002086Y001528D01*
X002086Y001430D02*
X004029Y001430D01*
X004039Y001331D02*
X002086Y001331D01*
X002086Y001233D02*
X004072Y001233D01*
X004134Y001134D02*
X002086Y001134D01*
X007860Y003400D02*
X007877Y003400D01*
X007860Y003498D02*
X007989Y003498D01*
X008026Y003597D02*
X007860Y003597D01*
X007860Y003695D02*
X008026Y003695D01*
X008026Y003794D02*
X007860Y003794D01*
X007860Y003892D02*
X008026Y003892D01*
X008026Y003991D02*
X007860Y003991D01*
X007848Y004089D02*
X008121Y004089D01*
X008220Y004188D02*
X007750Y004188D01*
X007651Y004286D02*
X008318Y004286D01*
X008417Y004385D02*
X007746Y004385D01*
X007845Y004483D02*
X008515Y004483D01*
X008614Y004582D02*
X007921Y004582D01*
X007960Y004680D02*
X008712Y004680D01*
X008811Y004779D02*
X007960Y004779D01*
X007960Y004877D02*
X009633Y004877D01*
X009459Y004976D02*
X007960Y004976D01*
X007960Y005074D02*
X009349Y005074D01*
X009272Y005173D02*
X007960Y005173D01*
X007993Y005271D02*
X009218Y005271D01*
X009180Y005370D02*
X008091Y005370D01*
X008190Y005468D02*
X009156Y005468D01*
X009147Y005665D02*
X008387Y005665D01*
X008288Y005567D02*
X009878Y005567D01*
X009878Y005665D02*
X009978Y005665D01*
X009978Y005653D02*
X009978Y006386D01*
X009979Y006386D01*
X010081Y006372D01*
X010180Y006346D01*
X010275Y006307D01*
X010364Y006255D01*
X010446Y006193D01*
X010518Y006120D01*
X010581Y006039D01*
X010632Y005950D01*
X010671Y005855D01*
X010698Y005756D01*
X010711Y005654D01*
X010711Y005653D01*
X009978Y005653D01*
X009978Y005567D02*
X010760Y005567D01*
X010760Y005665D02*
X010710Y005665D01*
X010696Y005764D02*
X010760Y005764D01*
X010760Y005862D02*
X010668Y005862D01*
X010626Y005961D02*
X010760Y005961D01*
X010760Y006059D02*
X010565Y006059D01*
X010480Y006158D02*
X010760Y006158D01*
X010760Y006256D02*
X010362Y006256D01*
X010147Y006355D02*
X010760Y006355D01*
X010855Y006453D02*
X009175Y006453D01*
X009076Y006355D02*
X009710Y006355D01*
X009878Y006355D02*
X009978Y006355D01*
X009978Y006256D02*
X009878Y006256D01*
X009878Y006158D02*
X009978Y006158D01*
X009978Y006059D02*
X009878Y006059D01*
X009878Y005961D02*
X009978Y005961D01*
X009978Y005862D02*
X009878Y005862D01*
X009878Y005764D02*
X009978Y005764D01*
X009978Y005468D02*
X009878Y005468D01*
X009878Y005370D02*
X009978Y005370D01*
X009978Y005271D02*
X009878Y005271D01*
X009878Y005173D02*
X009978Y005173D01*
X009978Y005074D02*
X009878Y005074D01*
X009878Y004976D02*
X009978Y004976D01*
X009978Y004877D02*
X009878Y004877D01*
X010493Y004680D02*
X011133Y004680D01*
X011133Y004582D02*
X010395Y004582D01*
X010296Y004483D02*
X017803Y004483D01*
X017902Y004385D02*
X008898Y004385D01*
X008799Y004286D02*
X018000Y004286D01*
X018099Y004188D02*
X008701Y004188D01*
X008602Y004089D02*
X018197Y004089D01*
X018296Y003991D02*
X012314Y003991D01*
X012297Y003991D02*
X012197Y003991D01*
X012180Y003991D02*
X011314Y003991D01*
X011297Y003991D02*
X011197Y003991D01*
X011180Y003991D02*
X008504Y003991D01*
X008405Y003892D02*
X010958Y003892D01*
X010871Y003794D02*
X008366Y003794D01*
X008366Y003695D02*
X010822Y003695D01*
X010800Y003597D02*
X008366Y003597D01*
X007520Y003695D02*
X007057Y003695D01*
X007155Y003794D02*
X007520Y003794D01*
X007520Y003892D02*
X007254Y003892D01*
X007352Y003991D02*
X007466Y003991D01*
X006827Y004483D02*
X004846Y004483D01*
X005001Y004582D02*
X006925Y004582D01*
X007024Y004680D02*
X005100Y004680D01*
X005190Y004779D02*
X007122Y004779D01*
X007221Y004877D02*
X006759Y004877D01*
X006716Y004860D02*
X006811Y004899D01*
X006900Y004950D01*
X006981Y005013D01*
X007054Y005085D01*
X007116Y005167D01*
X007167Y005256D01*
X007207Y005351D01*
X007233Y005450D01*
X007247Y005551D01*
X007247Y005553D01*
X006514Y005553D01*
X006514Y005653D01*
X007247Y005653D01*
X007247Y005654D01*
X007233Y005756D01*
X007207Y005855D01*
X007167Y005950D01*
X007116Y006039D01*
X007054Y006120D01*
X006981Y006193D01*
X006900Y006255D01*
X006811Y006307D01*
X006716Y006346D01*
X006617Y006372D01*
X006515Y006386D01*
X006514Y006386D01*
X006514Y005653D01*
X006414Y005653D01*
X006414Y006386D01*
X006412Y006386D01*
X006310Y006372D01*
X006211Y006346D01*
X006116Y006307D01*
X006028Y006255D01*
X005946Y006193D01*
X005874Y006120D01*
X005811Y006039D01*
X005760Y005950D01*
X005720Y005855D01*
X005694Y005756D01*
X005681Y005654D01*
X005681Y005653D01*
X006414Y005653D01*
X006414Y005553D01*
X006514Y005553D01*
X006514Y004820D01*
X006515Y004820D01*
X006617Y004833D01*
X006716Y004860D01*
X006514Y004877D02*
X006414Y004877D01*
X006414Y004820D02*
X006414Y005553D01*
X005681Y005553D01*
X005681Y005551D01*
X005694Y005450D01*
X005720Y005351D01*
X005760Y005256D01*
X005811Y005167D01*
X005874Y005085D01*
X005946Y005013D01*
X006028Y004950D01*
X006116Y004899D01*
X006211Y004860D01*
X006310Y004833D01*
X006412Y004820D01*
X006414Y004820D01*
X006414Y004976D02*
X006514Y004976D01*
X006514Y005074D02*
X006414Y005074D01*
X006414Y005173D02*
X006514Y005173D01*
X006514Y005271D02*
X006414Y005271D01*
X006414Y005370D02*
X006514Y005370D01*
X006514Y005468D02*
X006414Y005468D01*
X006414Y005567D02*
X005383Y005567D01*
X005389Y005468D02*
X005691Y005468D01*
X005715Y005370D02*
X005389Y005370D01*
X005389Y005271D02*
X005753Y005271D01*
X005808Y005173D02*
X005363Y005173D01*
X005337Y005074D02*
X005884Y005074D01*
X005994Y004976D02*
X005303Y004976D01*
X005247Y004877D02*
X006168Y004877D01*
X006933Y004976D02*
X007240Y004976D01*
X007240Y005074D02*
X007043Y005074D01*
X007120Y005173D02*
X007240Y005173D01*
X007240Y005271D02*
X007174Y005271D01*
X007212Y005370D02*
X007240Y005370D01*
X007236Y005468D02*
X007244Y005468D01*
X007284Y005567D02*
X006514Y005567D01*
X006514Y005665D02*
X006414Y005665D01*
X006414Y005764D02*
X006514Y005764D01*
X006514Y005862D02*
X006414Y005862D01*
X006414Y005961D02*
X006514Y005961D01*
X006514Y006059D02*
X006414Y006059D01*
X006414Y006158D02*
X006514Y006158D01*
X006514Y006256D02*
X006414Y006256D01*
X006414Y006355D02*
X006514Y006355D01*
X006682Y006355D02*
X008058Y006355D01*
X007960Y006256D02*
X006898Y006256D01*
X007016Y006158D02*
X007861Y006158D01*
X007763Y006059D02*
X007100Y006059D01*
X007161Y005961D02*
X007664Y005961D01*
X007566Y005862D02*
X007204Y005862D01*
X007231Y005764D02*
X007467Y005764D01*
X007369Y005665D02*
X007245Y005665D01*
X008485Y005764D02*
X009161Y005764D01*
X009188Y005862D02*
X008584Y005862D01*
X008682Y005961D02*
X009231Y005961D01*
X009292Y006059D02*
X008781Y006059D01*
X008879Y006158D02*
X009376Y006158D01*
X009494Y006256D02*
X008978Y006256D01*
X009273Y006552D02*
X010954Y006552D01*
X011052Y006650D02*
X009372Y006650D01*
X009470Y006749D02*
X011151Y006749D01*
X011249Y006847D02*
X009552Y006847D01*
X009593Y006946D02*
X011348Y006946D01*
X011446Y007044D02*
X009595Y007044D01*
X009595Y007143D02*
X011545Y007143D01*
X011643Y007241D02*
X009595Y007241D01*
X009595Y007340D02*
X011742Y007340D01*
X011840Y007438D02*
X009595Y007438D01*
X008875Y007438D02*
X006558Y007438D01*
X006570Y007340D02*
X008875Y007340D01*
X008875Y007241D02*
X006570Y007241D01*
X006570Y007143D02*
X008846Y007143D01*
X008748Y007044D02*
X006550Y007044D01*
X006524Y006946D02*
X008649Y006946D01*
X008551Y006847D02*
X006497Y006847D01*
X006440Y006749D02*
X008452Y006749D01*
X008354Y006650D02*
X006383Y006650D01*
X006302Y006552D02*
X008255Y006552D01*
X008157Y006453D02*
X006204Y006453D01*
X006245Y006355D02*
X006063Y006355D01*
X006030Y006256D02*
X005859Y006256D01*
X005911Y006158D02*
X005073Y006158D01*
X005171Y006256D02*
X004970Y006256D01*
X004966Y006355D02*
X004800Y006355D01*
X004826Y006453D02*
X004500Y006453D01*
X005172Y006059D02*
X005827Y006059D01*
X005766Y005961D02*
X005231Y005961D01*
X005288Y005862D02*
X005724Y005862D01*
X005696Y005764D02*
X005330Y005764D01*
X005356Y005665D02*
X005682Y005665D01*
X004460Y007340D02*
X004284Y007340D01*
X004273Y007438D02*
X004471Y007438D01*
X004498Y007537D02*
X004251Y007537D01*
X004219Y007635D02*
X004524Y007635D01*
X004572Y007734D02*
X004177Y007734D01*
X004123Y007832D02*
X004629Y007832D01*
X004698Y007931D02*
X004054Y007931D01*
X003967Y008029D02*
X004796Y008029D01*
X004915Y008128D02*
X003855Y008128D01*
X003701Y008226D02*
X005085Y008226D01*
X005944Y008226D02*
X008875Y008226D01*
X008875Y008128D02*
X006115Y008128D01*
X006233Y008029D02*
X008875Y008029D01*
X008875Y007931D02*
X006332Y007931D01*
X006400Y007832D02*
X008875Y007832D01*
X008875Y007734D02*
X006457Y007734D01*
X006505Y007635D02*
X008875Y007635D01*
X008875Y007537D02*
X006532Y007537D01*
X006925Y008423D02*
X002086Y008423D01*
X002086Y008325D02*
X002954Y008325D01*
X002683Y008226D02*
X002086Y008226D01*
X002086Y008128D02*
X002529Y008128D01*
X002417Y008029D02*
X002086Y008029D01*
X002086Y007931D02*
X002330Y007931D01*
X002261Y007832D02*
X002086Y007832D01*
X002086Y007734D02*
X002207Y007734D01*
X002165Y007635D02*
X002086Y007635D01*
X002086Y007537D02*
X002133Y007537D01*
X002111Y007438D02*
X002086Y007438D01*
X002086Y007340D02*
X002100Y007340D01*
X002086Y008522D02*
X006862Y008522D01*
X006825Y008620D02*
X002086Y008620D01*
X002086Y008719D02*
X006825Y008719D01*
X006825Y008817D02*
X002086Y008817D01*
X002086Y008916D02*
X006825Y008916D01*
X006825Y009014D02*
X002086Y009014D01*
X002086Y009113D02*
X006825Y009113D01*
X006825Y009211D02*
X002703Y009211D01*
X002802Y009310D02*
X004276Y009310D01*
X004178Y009408D02*
X002900Y009408D01*
X002541Y009408D02*
X002481Y009408D01*
X002481Y009310D02*
X002541Y009310D01*
X002541Y009211D02*
X002481Y009211D01*
X002481Y009189D02*
X002481Y009569D01*
X002101Y009569D01*
X002101Y009429D01*
X002341Y009189D01*
X002481Y009189D01*
X002318Y009211D02*
X002086Y009211D01*
X002086Y009310D02*
X002220Y009310D01*
X002121Y009408D02*
X002086Y009408D01*
X002086Y009507D02*
X002101Y009507D01*
X002086Y009605D02*
X002481Y009605D01*
X002481Y009507D02*
X002541Y009507D01*
X002101Y009704D02*
X002086Y009704D01*
X002086Y009802D02*
X002135Y009802D01*
X002086Y009901D02*
X002233Y009901D01*
X002332Y009999D02*
X002086Y009999D01*
X002086Y010098D02*
X017792Y010098D01*
X018212Y010098D02*
X021874Y010098D01*
X021742Y009999D02*
X018309Y009999D01*
X018357Y009901D02*
X018573Y009901D01*
X018376Y009704D02*
X018359Y009704D01*
X018011Y009704D02*
X017993Y009704D01*
X017993Y009605D02*
X018011Y009605D01*
X018011Y009507D02*
X017993Y009507D01*
X018080Y009408D02*
X013168Y009408D01*
X013189Y009507D02*
X017772Y009507D01*
X017982Y009310D02*
X013069Y009310D01*
X012369Y009704D02*
X011149Y009704D01*
X011098Y009802D02*
X012402Y009802D01*
X012501Y009901D02*
X011000Y009901D01*
X010409Y009704D02*
X008419Y009704D01*
X008559Y009605D02*
X008968Y009605D01*
X008880Y009507D02*
X008631Y009507D01*
X008671Y009408D02*
X008839Y009408D01*
X008825Y009310D02*
X008685Y009310D01*
X008685Y009211D02*
X008825Y009211D01*
X008825Y009113D02*
X008685Y009113D01*
X007785Y009113D02*
X007645Y009113D01*
X007645Y009211D02*
X007785Y009211D01*
X007785Y009310D02*
X007645Y009310D01*
X007631Y009408D02*
X007800Y009408D01*
X007839Y009507D02*
X007590Y009507D01*
X007502Y009605D02*
X007912Y009605D01*
X006968Y009605D02*
X004881Y009605D01*
X004881Y009507D02*
X006880Y009507D01*
X006839Y009408D02*
X004844Y009408D01*
X004745Y009310D02*
X006825Y009310D01*
X009502Y009605D02*
X010409Y009605D01*
X010409Y009507D02*
X009590Y009507D01*
X009631Y009408D02*
X010446Y009408D01*
X010544Y009310D02*
X009645Y009310D01*
X011831Y008325D02*
X012325Y008325D01*
X012226Y008226D02*
X011929Y008226D01*
X011985Y008128D02*
X012170Y008128D01*
X012133Y008029D02*
X012022Y008029D01*
X012022Y007931D02*
X012133Y007931D01*
X012145Y007832D02*
X012011Y007832D01*
X011970Y007734D02*
X012186Y007734D01*
X012263Y007635D02*
X011893Y007635D01*
X012893Y007635D02*
X013263Y007635D01*
X013186Y007734D02*
X012970Y007734D01*
X013011Y007832D02*
X013145Y007832D01*
X013133Y007931D02*
X013022Y007931D01*
X013022Y008029D02*
X013133Y008029D01*
X013170Y008128D02*
X012985Y008128D01*
X012929Y008226D02*
X013226Y008226D01*
X013325Y008325D02*
X012831Y008325D01*
X013831Y008325D02*
X014325Y008325D01*
X014226Y008226D02*
X013929Y008226D01*
X013985Y008128D02*
X014170Y008128D01*
X014133Y008029D02*
X014022Y008029D01*
X014022Y007931D02*
X014133Y007931D01*
X014145Y007832D02*
X014011Y007832D01*
X013970Y007734D02*
X014186Y007734D01*
X014263Y007635D02*
X013893Y007635D01*
X015110Y007241D02*
X015910Y007241D01*
X015910Y007143D02*
X015012Y007143D01*
X015209Y007340D02*
X015910Y007340D01*
X015910Y007438D02*
X015307Y007438D01*
X015406Y007537D02*
X015411Y007537D01*
X015744Y007537D02*
X015910Y007537D01*
X015910Y007635D02*
X015893Y007635D01*
X016250Y007635D02*
X016263Y007635D01*
X016250Y007537D02*
X016411Y007537D01*
X016250Y007438D02*
X017827Y007438D01*
X017764Y007500D02*
X017832Y007535D01*
X017893Y007580D01*
X017947Y007633D01*
X017992Y007695D01*
X018027Y007763D01*
X018050Y007836D01*
X018061Y007901D01*
X017626Y007901D01*
X017626Y007466D01*
X017691Y007477D01*
X017764Y007500D01*
X017835Y007537D02*
X017925Y007537D01*
X017949Y007635D02*
X018024Y007635D01*
X018012Y007734D02*
X018122Y007734D01*
X018145Y007832D02*
X018049Y007832D01*
X018133Y007931D02*
X017626Y007931D01*
X017529Y007931D02*
X017022Y007931D01*
X017022Y008029D02*
X017100Y008029D01*
X017126Y008128D02*
X016985Y008128D01*
X016929Y008226D02*
X017180Y008226D01*
X017270Y008325D02*
X016831Y008325D01*
X016363Y008620D02*
X023042Y008620D01*
X022944Y008522D02*
X016265Y008522D01*
X016462Y008719D02*
X023141Y008719D01*
X023239Y008817D02*
X016560Y008817D01*
X017529Y008325D02*
X017626Y008325D01*
X017626Y008226D02*
X017529Y008226D01*
X017529Y008128D02*
X017626Y008128D01*
X017626Y008029D02*
X017529Y008029D01*
X017529Y007832D02*
X017626Y007832D01*
X017626Y007734D02*
X017529Y007734D01*
X017529Y007635D02*
X017626Y007635D01*
X017626Y007537D02*
X017529Y007537D01*
X017321Y007537D02*
X016744Y007537D01*
X016893Y007635D02*
X017207Y007635D01*
X017144Y007734D02*
X016970Y007734D01*
X017011Y007832D02*
X017106Y007832D01*
X017885Y008325D02*
X018325Y008325D01*
X018226Y008226D02*
X017975Y008226D01*
X018029Y008128D02*
X018170Y008128D01*
X018133Y008029D02*
X018056Y008029D01*
X018831Y008325D02*
X019325Y008325D01*
X019226Y008226D02*
X018929Y008226D01*
X018985Y008128D02*
X019170Y008128D01*
X019831Y008325D02*
X020325Y008325D01*
X020226Y008226D02*
X019929Y008226D01*
X019985Y008128D02*
X020170Y008128D01*
X020133Y008029D02*
X020022Y008029D01*
X020022Y007931D02*
X020133Y007931D01*
X020145Y007832D02*
X020011Y007832D01*
X019970Y007734D02*
X020186Y007734D01*
X020167Y007635D02*
X019893Y007635D01*
X019744Y007537D02*
X020069Y007537D01*
X019970Y007438D02*
X018307Y007438D01*
X018209Y007340D02*
X019872Y007340D01*
X019411Y007537D02*
X018744Y007537D01*
X018893Y007635D02*
X019263Y007635D01*
X019186Y007734D02*
X018970Y007734D01*
X018411Y007537D02*
X018406Y007537D01*
X018110Y007241D02*
X019103Y007241D01*
X019005Y007143D02*
X018012Y007143D01*
X017913Y007044D02*
X018906Y007044D01*
X018900Y006946D02*
X017815Y006946D01*
X017748Y006847D02*
X018900Y006847D01*
X018900Y006749D02*
X017748Y006749D01*
X017748Y006650D02*
X018900Y006650D01*
X018900Y006552D02*
X017748Y006552D01*
X017748Y006453D02*
X018900Y006453D01*
X018900Y006355D02*
X017748Y006355D01*
X017748Y006256D02*
X018900Y006256D01*
X018900Y006158D02*
X017748Y006158D01*
X017748Y006059D02*
X018900Y006059D01*
X018900Y005961D02*
X017748Y005961D01*
X017748Y005862D02*
X018900Y005862D01*
X018900Y005764D02*
X017748Y005764D01*
X017748Y005665D02*
X018900Y005665D01*
X018900Y005567D02*
X017748Y005567D01*
X017748Y005468D02*
X018900Y005468D01*
X018900Y005370D02*
X018820Y005370D01*
X018626Y005370D02*
X018529Y005370D01*
X018529Y005271D02*
X018626Y005271D01*
X018626Y005173D02*
X018529Y005173D01*
X018529Y005074D02*
X018626Y005074D01*
X018529Y004976D02*
X018022Y004976D01*
X018022Y004877D02*
X018098Y004877D01*
X018124Y004779D02*
X017988Y004779D01*
X018087Y004680D02*
X018174Y004680D01*
X018185Y004582D02*
X018260Y004582D01*
X018284Y004483D02*
X018443Y004483D01*
X018529Y004483D02*
X018626Y004483D01*
X018713Y004483D02*
X018900Y004483D01*
X018900Y004385D02*
X018382Y004385D01*
X018481Y004286D02*
X018900Y004286D01*
X018900Y004188D02*
X018579Y004188D01*
X018678Y004089D02*
X018900Y004089D01*
X018900Y003991D02*
X018776Y003991D01*
X018787Y003892D02*
X018904Y003892D01*
X018970Y003794D02*
X018820Y003794D01*
X018919Y003695D02*
X018970Y003695D01*
X018414Y003794D02*
X017820Y003794D01*
X017770Y003844D02*
X017464Y003844D01*
X017247Y003627D01*
X017247Y003320D01*
X017464Y003104D01*
X017770Y003104D01*
X017987Y003320D01*
X017987Y003627D01*
X017770Y003844D01*
X017919Y003695D02*
X018316Y003695D01*
X018247Y003597D02*
X017987Y003597D01*
X017987Y003498D02*
X018247Y003498D01*
X018247Y003400D02*
X017987Y003400D01*
X017968Y003301D02*
X018204Y003301D01*
X018106Y003203D02*
X017870Y003203D01*
X017771Y003104D02*
X018007Y003104D01*
X017909Y003006D02*
X016657Y003006D01*
X016657Y003104D02*
X017463Y003104D01*
X017365Y003203D02*
X016657Y003203D01*
X016657Y003301D02*
X017266Y003301D01*
X017247Y003400D02*
X016657Y003400D01*
X016657Y003498D02*
X017247Y003498D01*
X017247Y003597D02*
X016657Y003597D01*
X016657Y003627D02*
X016595Y003778D01*
X016479Y003893D01*
X016329Y003956D01*
X016165Y003956D01*
X016015Y003893D01*
X015899Y003778D01*
X015837Y003627D01*
X015837Y002864D01*
X015899Y002714D01*
X016015Y002598D01*
X016165Y002536D01*
X016329Y002536D01*
X016479Y002598D01*
X016595Y002714D01*
X016657Y002864D01*
X016657Y003627D01*
X016629Y003695D02*
X017316Y003695D01*
X017414Y003794D02*
X016579Y003794D01*
X016480Y003892D02*
X018394Y003892D01*
X018529Y004582D02*
X018626Y004582D01*
X018626Y004680D02*
X018529Y004680D01*
X018529Y004779D02*
X018626Y004779D01*
X018626Y004877D02*
X018529Y004877D01*
X018109Y005074D02*
X018007Y005074D01*
X017966Y005173D02*
X018148Y005173D01*
X018215Y005271D02*
X017884Y005271D01*
X017748Y005370D02*
X018336Y005370D01*
X017408Y005370D02*
X016724Y005370D01*
X016666Y005394D02*
X016489Y005394D01*
X016326Y005326D01*
X016201Y005201D01*
X016133Y005038D01*
X016133Y004861D01*
X016201Y004697D01*
X016326Y004572D01*
X016489Y004505D01*
X016666Y004505D01*
X016830Y004572D01*
X016955Y004697D01*
X017022Y004861D01*
X017022Y005038D01*
X016955Y005201D01*
X016830Y005326D01*
X016666Y005394D01*
X016432Y005370D02*
X015724Y005370D01*
X015666Y005394D02*
X015489Y005394D01*
X015326Y005326D01*
X015201Y005201D01*
X015133Y005038D01*
X015133Y004861D01*
X015201Y004697D01*
X015326Y004572D01*
X015489Y004505D01*
X015666Y004505D01*
X015830Y004572D01*
X015955Y004697D01*
X016022Y004861D01*
X016022Y005038D01*
X015955Y005201D01*
X015830Y005326D01*
X015666Y005394D01*
X015432Y005370D02*
X015239Y005370D01*
X015271Y005271D02*
X015140Y005271D01*
X015189Y005173D02*
X015042Y005173D01*
X015007Y005074D02*
X015148Y005074D01*
X015133Y004976D02*
X015022Y004976D01*
X015022Y004877D02*
X015133Y004877D01*
X015167Y004779D02*
X014988Y004779D01*
X014938Y004680D02*
X015218Y004680D01*
X015316Y004582D02*
X014839Y004582D01*
X014316Y004582D02*
X013839Y004582D01*
X013830Y004572D02*
X013955Y004697D01*
X014022Y004861D01*
X014022Y005038D01*
X013955Y005201D01*
X013830Y005326D01*
X013666Y005394D01*
X013489Y005394D01*
X013326Y005326D01*
X013201Y005201D01*
X013133Y005038D01*
X013133Y004861D01*
X013201Y004697D01*
X013326Y004572D01*
X013489Y004505D01*
X013666Y004505D01*
X013830Y004572D01*
X013938Y004680D02*
X014218Y004680D01*
X014167Y004779D02*
X013988Y004779D01*
X014022Y004877D02*
X014133Y004877D01*
X014133Y004976D02*
X014022Y004976D01*
X014007Y005074D02*
X014148Y005074D01*
X014189Y005173D02*
X013966Y005173D01*
X013884Y005271D02*
X014271Y005271D01*
X014432Y005370D02*
X013724Y005370D01*
X013432Y005370D02*
X012724Y005370D01*
X012666Y005394D02*
X012489Y005394D01*
X012326Y005326D01*
X012201Y005201D01*
X012133Y005038D01*
X012133Y004861D01*
X012201Y004697D01*
X012326Y004572D01*
X012489Y004505D01*
X012666Y004505D01*
X012830Y004572D01*
X012955Y004697D01*
X013022Y004861D01*
X013022Y005038D01*
X012955Y005201D01*
X012830Y005326D01*
X012666Y005394D01*
X012432Y005370D02*
X011982Y005370D01*
X011958Y005394D02*
X011198Y005394D01*
X011133Y005329D01*
X011133Y004569D01*
X011198Y004505D01*
X011958Y004505D01*
X012022Y004569D01*
X012022Y005329D01*
X011958Y005394D01*
X012022Y005271D02*
X012271Y005271D01*
X012189Y005173D02*
X012022Y005173D01*
X012022Y005074D02*
X012148Y005074D01*
X012133Y004976D02*
X012022Y004976D01*
X012022Y004877D02*
X012133Y004877D01*
X012167Y004779D02*
X012022Y004779D01*
X012022Y004680D02*
X012218Y004680D01*
X012316Y004582D02*
X012022Y004582D01*
X012839Y004582D02*
X013316Y004582D01*
X013218Y004680D02*
X012938Y004680D01*
X012988Y004779D02*
X013167Y004779D01*
X013133Y004877D02*
X013022Y004877D01*
X013022Y004976D02*
X013133Y004976D01*
X013148Y005074D02*
X013007Y005074D01*
X012966Y005173D02*
X013189Y005173D01*
X013271Y005271D02*
X012884Y005271D01*
X011174Y005370D02*
X011100Y005370D01*
X011100Y005468D02*
X014857Y005468D01*
X014955Y005567D02*
X011100Y005567D01*
X011100Y005665D02*
X015054Y005665D01*
X015152Y005764D02*
X011100Y005764D01*
X011100Y005862D02*
X015251Y005862D01*
X015349Y005961D02*
X011100Y005961D01*
X011100Y006059D02*
X015448Y006059D01*
X015546Y006158D02*
X011100Y006158D01*
X011139Y006256D02*
X015645Y006256D01*
X015743Y006355D02*
X011238Y006355D01*
X011336Y006453D02*
X015842Y006453D01*
X015910Y006552D02*
X011435Y006552D01*
X011533Y006650D02*
X015910Y006650D01*
X015910Y006749D02*
X011632Y006749D01*
X011730Y006847D02*
X015910Y006847D01*
X015910Y006946D02*
X011829Y006946D01*
X011927Y007044D02*
X015910Y007044D01*
X016250Y007044D02*
X017433Y007044D01*
X017408Y006946D02*
X016250Y006946D01*
X016250Y006847D02*
X017408Y006847D01*
X017408Y006749D02*
X016250Y006749D01*
X016250Y006650D02*
X017408Y006650D01*
X017408Y006552D02*
X016250Y006552D01*
X016250Y006453D02*
X017408Y006453D01*
X017408Y006355D02*
X016224Y006355D01*
X016125Y006256D02*
X017408Y006256D01*
X017408Y006158D02*
X016027Y006158D01*
X015928Y006059D02*
X017408Y006059D01*
X017408Y005961D02*
X015830Y005961D01*
X015731Y005862D02*
X017408Y005862D01*
X017408Y005764D02*
X015633Y005764D01*
X015534Y005665D02*
X017408Y005665D01*
X017408Y005567D02*
X015436Y005567D01*
X015337Y005468D02*
X017408Y005468D01*
X017271Y005271D02*
X016884Y005271D01*
X016966Y005173D02*
X017189Y005173D01*
X017148Y005074D02*
X017007Y005074D01*
X017022Y004976D02*
X017133Y004976D01*
X017133Y004877D02*
X017022Y004877D01*
X016988Y004779D02*
X017167Y004779D01*
X017218Y004680D02*
X016938Y004680D01*
X016839Y004582D02*
X017316Y004582D01*
X016316Y004582D02*
X015839Y004582D01*
X015938Y004680D02*
X016218Y004680D01*
X016167Y004779D02*
X015988Y004779D01*
X016022Y004877D02*
X016133Y004877D01*
X016133Y004976D02*
X016022Y004976D01*
X016007Y005074D02*
X016148Y005074D01*
X016189Y005173D02*
X015966Y005173D01*
X015884Y005271D02*
X016271Y005271D01*
X014758Y005370D02*
X014724Y005370D01*
X012420Y003963D02*
X012352Y003985D01*
X012297Y003994D01*
X012297Y003296D01*
X012697Y003296D01*
X012697Y003581D01*
X012686Y003651D01*
X012664Y003719D01*
X012632Y003782D01*
X012590Y003839D01*
X012540Y003889D01*
X012483Y003931D01*
X012420Y003963D01*
X012536Y003892D02*
X013014Y003892D01*
X012915Y003794D02*
X012623Y003794D01*
X012672Y003695D02*
X012865Y003695D01*
X012837Y003597D02*
X012695Y003597D01*
X012697Y003498D02*
X012837Y003498D01*
X012837Y003400D02*
X012697Y003400D01*
X012697Y003301D02*
X012837Y003301D01*
X012837Y003203D02*
X012297Y003203D01*
X012297Y003301D02*
X012197Y003301D01*
X012197Y003203D02*
X011297Y003203D01*
X011297Y003296D02*
X011697Y003296D01*
X011697Y003581D01*
X011686Y003651D01*
X011664Y003719D01*
X011632Y003782D01*
X011590Y003839D01*
X011540Y003889D01*
X011483Y003931D01*
X011420Y003963D01*
X011352Y003985D01*
X011297Y003994D01*
X011297Y003296D01*
X011297Y003301D02*
X011197Y003301D01*
X011197Y003203D02*
X009587Y003203D01*
X011197Y003400D02*
X011297Y003400D01*
X011297Y003498D02*
X011197Y003498D01*
X011197Y003597D02*
X011297Y003597D01*
X011297Y003695D02*
X011197Y003695D01*
X011197Y003794D02*
X011297Y003794D01*
X011297Y003892D02*
X011197Y003892D01*
X011536Y003892D02*
X011958Y003892D01*
X011871Y003794D02*
X011623Y003794D01*
X011672Y003695D02*
X011822Y003695D01*
X011800Y003597D02*
X011695Y003597D01*
X011697Y003498D02*
X011797Y003498D01*
X011797Y003400D02*
X011697Y003400D01*
X011697Y003301D02*
X011797Y003301D01*
X011797Y003104D02*
X011697Y003104D01*
X011697Y003006D02*
X011797Y003006D01*
X011798Y002907D02*
X011697Y002907D01*
X011676Y002809D02*
X011818Y002809D01*
X011862Y002710D02*
X011632Y002710D01*
X012632Y002710D02*
X012632Y002710D01*
X012632Y002710D01*
X012676Y002809D02*
X012731Y002809D01*
X012697Y002907D02*
X012829Y002907D01*
X012837Y003006D02*
X012697Y003006D01*
X012697Y003104D02*
X012837Y003104D01*
X012297Y003400D02*
X012197Y003400D01*
X012197Y003498D02*
X012297Y003498D01*
X012297Y003597D02*
X012197Y003597D01*
X012197Y003695D02*
X012297Y003695D01*
X012297Y003794D02*
X012197Y003794D01*
X012197Y003892D02*
X012297Y003892D01*
X013480Y003892D02*
X014014Y003892D01*
X014015Y003893D02*
X013899Y003778D01*
X013837Y003627D01*
X013837Y002864D01*
X013899Y002714D01*
X014015Y002598D01*
X014165Y002536D01*
X014329Y002536D01*
X014479Y002598D01*
X014595Y002714D01*
X014657Y002864D01*
X014657Y003627D01*
X014595Y003778D01*
X014479Y003893D01*
X014329Y003956D01*
X014165Y003956D01*
X014015Y003893D01*
X013915Y003794D02*
X013579Y003794D01*
X013629Y003695D02*
X013865Y003695D01*
X013837Y003597D02*
X013657Y003597D01*
X013657Y003498D02*
X013837Y003498D01*
X013837Y003400D02*
X013657Y003400D01*
X013657Y003301D02*
X013837Y003301D01*
X013837Y003203D02*
X013657Y003203D01*
X013657Y003104D02*
X013837Y003104D01*
X013837Y003006D02*
X013657Y003006D01*
X013657Y002907D02*
X013837Y002907D01*
X013860Y002809D02*
X013634Y002809D01*
X013591Y002710D02*
X013903Y002710D01*
X014001Y002612D02*
X013493Y002612D01*
X013514Y002513D02*
X017416Y002513D01*
X017515Y002612D02*
X016493Y002612D01*
X016591Y002710D02*
X017613Y002710D01*
X017712Y002809D02*
X016634Y002809D01*
X016657Y002907D02*
X017810Y002907D01*
X016001Y002612D02*
X015493Y002612D01*
X015479Y002598D02*
X015595Y002714D01*
X015657Y002864D01*
X015657Y003627D01*
X015595Y003778D01*
X015479Y003893D01*
X015329Y003956D01*
X015165Y003956D01*
X015015Y003893D01*
X014899Y003778D01*
X014837Y003627D01*
X014837Y002864D01*
X014899Y002714D01*
X015015Y002598D01*
X015165Y002536D01*
X015329Y002536D01*
X015479Y002598D01*
X015591Y002710D02*
X015903Y002710D01*
X015860Y002809D02*
X015634Y002809D01*
X015657Y002907D02*
X015837Y002907D01*
X015837Y003006D02*
X015657Y003006D01*
X015657Y003104D02*
X015837Y003104D01*
X015837Y003203D02*
X015657Y003203D01*
X015657Y003301D02*
X015837Y003301D01*
X015837Y003400D02*
X015657Y003400D01*
X015657Y003498D02*
X015837Y003498D01*
X015837Y003597D02*
X015657Y003597D01*
X015629Y003695D02*
X015865Y003695D01*
X015915Y003794D02*
X015579Y003794D01*
X015480Y003892D02*
X016014Y003892D01*
X015014Y003892D02*
X014480Y003892D01*
X014579Y003794D02*
X014915Y003794D01*
X014865Y003695D02*
X014629Y003695D01*
X014657Y003597D02*
X014837Y003597D01*
X014837Y003498D02*
X014657Y003498D01*
X014657Y003400D02*
X014837Y003400D01*
X014837Y003301D02*
X014657Y003301D01*
X014657Y003203D02*
X014837Y003203D01*
X014837Y003104D02*
X014657Y003104D01*
X014657Y003006D02*
X014837Y003006D01*
X014837Y002907D02*
X014657Y002907D01*
X014634Y002809D02*
X014860Y002809D01*
X014903Y002710D02*
X014591Y002710D01*
X014493Y002612D02*
X015001Y002612D01*
X010714Y002327D02*
X010644Y002257D01*
X010581Y002106D01*
X010581Y001343D01*
X010644Y001193D01*
X010749Y001087D01*
X010290Y001087D01*
X010334Y001132D01*
X010376Y001189D01*
X010408Y001252D01*
X010430Y001319D01*
X010441Y001389D01*
X010441Y001675D01*
X010041Y001675D01*
X010041Y001775D01*
X010441Y001775D01*
X010441Y002060D01*
X010430Y002130D01*
X010408Y002198D01*
X010376Y002261D01*
X010334Y002318D01*
X010325Y002327D01*
X010714Y002327D01*
X010703Y002316D02*
X010336Y002316D01*
X010398Y002218D02*
X010627Y002218D01*
X010587Y002119D02*
X010432Y002119D01*
X010441Y002021D02*
X010581Y002021D01*
X010581Y001922D02*
X010441Y001922D01*
X010441Y001824D02*
X010581Y001824D01*
X010581Y001725D02*
X010041Y001725D01*
X010441Y001627D02*
X010581Y001627D01*
X010581Y001528D02*
X010441Y001528D01*
X010441Y001430D02*
X010581Y001430D01*
X010586Y001331D02*
X010432Y001331D01*
X010398Y001233D02*
X010627Y001233D01*
X010702Y001134D02*
X010336Y001134D01*
X018896Y004582D02*
X018900Y004582D01*
X021748Y005370D02*
X022432Y005370D01*
X022489Y005394D02*
X022326Y005326D01*
X022201Y005201D01*
X022133Y005038D01*
X022133Y004861D01*
X022201Y004697D01*
X022326Y004572D01*
X022489Y004505D01*
X022666Y004505D01*
X022830Y004572D01*
X022955Y004697D01*
X023022Y004861D01*
X023022Y005038D01*
X022955Y005201D01*
X022830Y005326D01*
X022666Y005394D01*
X022489Y005394D01*
X022724Y005370D02*
X023432Y005370D01*
X023489Y005394D02*
X023326Y005326D01*
X023201Y005201D01*
X023133Y005038D01*
X023133Y004861D01*
X023201Y004697D01*
X023326Y004572D01*
X023489Y004505D01*
X023666Y004505D01*
X023830Y004572D01*
X023955Y004697D01*
X024022Y004861D01*
X024022Y005038D01*
X023955Y005201D01*
X023830Y005326D01*
X023666Y005394D01*
X023489Y005394D01*
X023724Y005370D02*
X024432Y005370D01*
X024489Y005394D02*
X024326Y005326D01*
X024201Y005201D01*
X024133Y005038D01*
X024133Y004861D01*
X024201Y004697D01*
X024326Y004572D01*
X024489Y004505D01*
X024666Y004505D01*
X024830Y004572D01*
X024955Y004697D01*
X025022Y004861D01*
X025022Y005038D01*
X024955Y005201D01*
X024830Y005326D01*
X024666Y005394D01*
X024489Y005394D01*
X024724Y005370D02*
X026136Y005370D01*
X026114Y005424D02*
X026251Y005093D01*
X026505Y004839D01*
X026836Y004702D01*
X027194Y004702D01*
X027525Y004839D01*
X027778Y005093D01*
X027915Y005424D01*
X027915Y005782D01*
X027778Y006113D01*
X027525Y006366D01*
X027194Y006503D01*
X026836Y006503D01*
X026505Y006366D01*
X026251Y006113D01*
X026114Y005782D01*
X026114Y005424D01*
X026114Y005468D02*
X021748Y005468D01*
X021748Y005567D02*
X026114Y005567D01*
X026114Y005665D02*
X021748Y005665D01*
X021748Y005764D02*
X026114Y005764D01*
X026148Y005862D02*
X021748Y005862D01*
X021748Y005961D02*
X026188Y005961D01*
X026229Y006059D02*
X021748Y006059D01*
X021748Y006158D02*
X026296Y006158D01*
X026395Y006256D02*
X021748Y006256D01*
X021748Y006355D02*
X026493Y006355D01*
X026715Y006453D02*
X021748Y006453D01*
X021835Y006552D02*
X031040Y006552D01*
X031040Y006650D02*
X021933Y006650D01*
X022032Y006749D02*
X031040Y006749D01*
X031040Y006847D02*
X022130Y006847D01*
X022229Y006946D02*
X031040Y006946D01*
X031040Y007044D02*
X022327Y007044D01*
X022426Y007143D02*
X031025Y007143D01*
X031025Y007241D02*
X023065Y007241D01*
X023164Y007340D02*
X031025Y007340D01*
X031025Y007438D02*
X023262Y007438D01*
X023265Y007537D02*
X023411Y007537D01*
X023744Y007537D02*
X024411Y007537D01*
X024489Y007505D02*
X024666Y007505D01*
X024830Y007572D01*
X024955Y007697D01*
X025022Y007861D01*
X025022Y008038D01*
X024955Y008201D01*
X024830Y008326D01*
X024666Y008394D01*
X024489Y008394D01*
X024326Y008326D01*
X024201Y008201D01*
X024133Y008038D01*
X024133Y007861D01*
X024201Y007697D01*
X024326Y007572D01*
X024489Y007505D01*
X024744Y007537D02*
X031025Y007537D01*
X031025Y007635D02*
X024893Y007635D01*
X024970Y007734D02*
X031025Y007734D01*
X031025Y007832D02*
X025011Y007832D01*
X025022Y007931D02*
X031008Y007931D01*
X030909Y008029D02*
X025022Y008029D01*
X024985Y008128D02*
X030811Y008128D01*
X030712Y008226D02*
X024929Y008226D01*
X024831Y008325D02*
X030614Y008325D01*
X030318Y008620D02*
X025827Y008620D01*
X025926Y008719D02*
X030220Y008719D01*
X030121Y008817D02*
X026023Y008817D01*
X026023Y008916D02*
X028761Y008916D01*
X028663Y009014D02*
X026023Y009014D01*
X025828Y009408D02*
X028675Y009408D01*
X028774Y009507D02*
X025926Y009507D01*
X025283Y009901D02*
X024063Y009901D01*
X023989Y009999D02*
X025372Y009999D01*
X025471Y010098D02*
X023891Y010098D01*
X023414Y010098D02*
X022130Y010098D01*
X022262Y009999D02*
X023316Y009999D01*
X023243Y009901D02*
X022314Y009901D01*
X022330Y009802D02*
X023243Y009802D01*
X023243Y009704D02*
X022319Y009704D01*
X022276Y009605D02*
X023243Y009605D01*
X023322Y009507D02*
X022162Y009507D01*
X023623Y009507D02*
X023683Y009507D01*
X023683Y009605D02*
X023623Y009605D01*
X023623Y009704D02*
X023683Y009704D01*
X023683Y009408D02*
X023623Y009408D01*
X023831Y008325D02*
X024325Y008325D01*
X024226Y008226D02*
X023929Y008226D01*
X023985Y008128D02*
X024170Y008128D01*
X024133Y008029D02*
X024022Y008029D01*
X024022Y007931D02*
X024133Y007931D01*
X024145Y007832D02*
X024011Y007832D01*
X023970Y007734D02*
X024186Y007734D01*
X024263Y007635D02*
X023893Y007635D01*
X022170Y008128D02*
X021985Y008128D01*
X022022Y008029D02*
X022133Y008029D01*
X022133Y007931D02*
X022022Y007931D01*
X022011Y007832D02*
X022145Y007832D01*
X022122Y007734D02*
X021970Y007734D01*
X022024Y007635D02*
X021893Y007635D01*
X021145Y007832D02*
X021011Y007832D01*
X021022Y007931D02*
X021133Y007931D01*
X021133Y008029D02*
X021022Y008029D01*
X020985Y008128D02*
X021170Y008128D01*
X021226Y008226D02*
X020929Y008226D01*
X020831Y008325D02*
X021325Y008325D01*
X021831Y008325D02*
X022325Y008325D01*
X022226Y008226D02*
X021929Y008226D01*
X021122Y007734D02*
X020970Y007734D01*
X021024Y007635D02*
X020893Y007635D01*
X020925Y007537D02*
X020744Y007537D01*
X017728Y007340D02*
X016250Y007340D01*
X016250Y007241D02*
X017630Y007241D01*
X017531Y007143D02*
X016250Y007143D01*
X011133Y005271D02*
X011084Y005271D01*
X011133Y005173D02*
X010986Y005173D01*
X010887Y005074D02*
X011133Y005074D01*
X011133Y004976D02*
X010789Y004976D01*
X010690Y004877D02*
X011133Y004877D01*
X011133Y004779D02*
X010592Y004779D01*
X010676Y005370D02*
X010702Y005370D01*
X010700Y005468D02*
X010760Y005468D01*
X021884Y005271D02*
X022271Y005271D01*
X022189Y005173D02*
X021966Y005173D01*
X022007Y005074D02*
X022148Y005074D01*
X022133Y004976D02*
X022022Y004976D01*
X022022Y004877D02*
X022133Y004877D01*
X022167Y004779D02*
X021988Y004779D01*
X021938Y004680D02*
X022218Y004680D01*
X022316Y004582D02*
X022063Y004582D01*
X022162Y004483D02*
X030885Y004483D01*
X030787Y004385D02*
X022260Y004385D01*
X022359Y004286D02*
X030688Y004286D01*
X030590Y004188D02*
X022457Y004188D01*
X022556Y004089D02*
X030491Y004089D01*
X030393Y003991D02*
X022654Y003991D01*
X022753Y003892D02*
X030294Y003892D01*
X030196Y003794D02*
X022851Y003794D01*
X022950Y003695D02*
X030097Y003695D01*
X029999Y003597D02*
X023048Y003597D01*
X023147Y003498D02*
X029900Y003498D01*
X029802Y003400D02*
X024641Y003400D01*
X024740Y003301D02*
X029703Y003301D01*
X029605Y003203D02*
X024838Y003203D01*
X024843Y003104D02*
X029506Y003104D01*
X029408Y003006D02*
X024443Y003006D01*
X024443Y003104D02*
X024343Y003104D01*
X024343Y003062D02*
X024343Y003462D01*
X024206Y003462D01*
X023943Y003199D01*
X023943Y003062D01*
X024343Y003062D01*
X024343Y003006D02*
X023803Y003006D01*
X023803Y003104D02*
X023943Y003104D01*
X023947Y003203D02*
X023782Y003203D01*
X023683Y003301D02*
X024046Y003301D01*
X024144Y003400D02*
X023585Y003400D01*
X024343Y003400D02*
X024443Y003400D01*
X024443Y003301D02*
X024343Y003301D01*
X024343Y003203D02*
X024443Y003203D01*
X024843Y002907D02*
X029309Y002907D01*
X029211Y002809D02*
X027705Y002809D01*
X027685Y002817D02*
X027522Y002817D01*
X027372Y002755D01*
X027256Y002639D01*
X027194Y002489D01*
X027194Y001725D01*
X027047Y001725D01*
X027054Y001824D02*
X027194Y001824D01*
X027194Y001922D02*
X027054Y001922D01*
X027054Y002021D02*
X027194Y002021D01*
X027194Y002119D02*
X026654Y002119D01*
X026654Y002218D02*
X026554Y002218D01*
X026554Y002316D02*
X026654Y002316D01*
X026654Y002415D02*
X026554Y002415D01*
X026554Y002513D02*
X026654Y002513D01*
X026654Y002612D02*
X026554Y002612D01*
X026554Y002710D02*
X026654Y002710D01*
X026654Y002809D02*
X026554Y002809D01*
X026401Y002809D02*
X024826Y002809D01*
X024727Y002710D02*
X026271Y002710D01*
X026203Y002612D02*
X025166Y002612D01*
X025264Y002513D02*
X026165Y002513D01*
X026154Y002415D02*
X025363Y002415D01*
X025461Y002316D02*
X026154Y002316D01*
X026154Y002218D02*
X025560Y002218D01*
X025658Y002119D02*
X026554Y002119D01*
X026154Y002021D02*
X025757Y002021D01*
X025855Y001922D02*
X026154Y001922D01*
X026154Y001824D02*
X025954Y001824D01*
X026052Y001725D02*
X026161Y001725D01*
X026151Y001627D02*
X026191Y001627D01*
X026249Y001528D02*
X026250Y001528D01*
X026850Y001430D02*
X027443Y001430D01*
X027372Y001459D02*
X027522Y001397D01*
X027685Y001397D01*
X027836Y001459D01*
X027951Y001575D01*
X028014Y001725D01*
X028127Y001725D01*
X028014Y001725D02*
X028014Y002489D01*
X027951Y002639D01*
X027836Y002755D01*
X027685Y002817D01*
X027503Y002809D02*
X026806Y002809D01*
X026937Y002710D02*
X027327Y002710D01*
X027245Y002612D02*
X027004Y002612D01*
X027042Y002513D02*
X027204Y002513D01*
X027194Y002415D02*
X027054Y002415D01*
X027054Y002316D02*
X027194Y002316D01*
X027194Y002218D02*
X027054Y002218D01*
X027194Y001725D02*
X027256Y001575D01*
X027372Y001459D01*
X027303Y001528D02*
X026958Y001528D01*
X027017Y001627D02*
X027235Y001627D01*
X027765Y001430D02*
X027832Y001430D01*
X027905Y001528D02*
X027930Y001528D01*
X027973Y001627D02*
X028029Y001627D01*
X028014Y001824D02*
X028226Y001824D01*
X028324Y001922D02*
X028014Y001922D01*
X028014Y002021D02*
X028423Y002021D01*
X028521Y002119D02*
X028014Y002119D01*
X028014Y002218D02*
X028620Y002218D01*
X028718Y002316D02*
X028014Y002316D01*
X028014Y002415D02*
X028817Y002415D01*
X028915Y002513D02*
X028004Y002513D01*
X027963Y002612D02*
X029014Y002612D01*
X029112Y002710D02*
X027880Y002710D01*
X024058Y002710D02*
X023671Y002710D01*
X023769Y002809D02*
X023960Y002809D01*
X023943Y002907D02*
X023803Y002907D01*
X023839Y004582D02*
X024316Y004582D01*
X024218Y004680D02*
X023938Y004680D01*
X023988Y004779D02*
X024167Y004779D01*
X024133Y004877D02*
X024022Y004877D01*
X024022Y004976D02*
X024133Y004976D01*
X024148Y005074D02*
X024007Y005074D01*
X023966Y005173D02*
X024189Y005173D01*
X024271Y005271D02*
X023884Y005271D01*
X023271Y005271D02*
X022884Y005271D01*
X022966Y005173D02*
X023189Y005173D01*
X023148Y005074D02*
X023007Y005074D01*
X023022Y004976D02*
X023133Y004976D01*
X023133Y004877D02*
X023022Y004877D01*
X022988Y004779D02*
X023167Y004779D01*
X023218Y004680D02*
X022938Y004680D01*
X022839Y004582D02*
X023316Y004582D01*
X024839Y004582D02*
X030984Y004582D01*
X031040Y004680D02*
X024938Y004680D01*
X024988Y004779D02*
X026650Y004779D01*
X026467Y004877D02*
X025022Y004877D01*
X025022Y004976D02*
X026368Y004976D01*
X026270Y005074D02*
X025007Y005074D01*
X024966Y005173D02*
X026218Y005173D01*
X026177Y005271D02*
X024884Y005271D01*
X027379Y004779D02*
X029485Y004779D01*
X029339Y004839D02*
X029670Y004702D01*
X030029Y004702D01*
X030360Y004839D01*
X030613Y005093D01*
X030750Y005424D01*
X030750Y005782D01*
X030613Y006113D01*
X030360Y006366D01*
X030029Y006503D01*
X029670Y006503D01*
X029339Y006366D01*
X029086Y006113D01*
X028949Y005782D01*
X028949Y005424D01*
X029086Y005093D01*
X029339Y004839D01*
X029301Y004877D02*
X027563Y004877D01*
X027661Y004976D02*
X029203Y004976D01*
X029104Y005074D02*
X027760Y005074D01*
X027811Y005173D02*
X029053Y005173D01*
X029012Y005271D02*
X027852Y005271D01*
X027893Y005370D02*
X028971Y005370D01*
X028949Y005468D02*
X027915Y005468D01*
X027915Y005567D02*
X028949Y005567D01*
X028949Y005665D02*
X027915Y005665D01*
X027915Y005764D02*
X028949Y005764D01*
X028982Y005862D02*
X027882Y005862D01*
X027841Y005961D02*
X029023Y005961D01*
X029064Y006059D02*
X027800Y006059D01*
X027733Y006158D02*
X029131Y006158D01*
X029229Y006256D02*
X027635Y006256D01*
X027536Y006355D02*
X029328Y006355D01*
X029550Y006453D02*
X027314Y006453D01*
X030149Y006453D02*
X031040Y006453D01*
X031040Y006355D02*
X030371Y006355D01*
X030469Y006256D02*
X031040Y006256D01*
X031040Y006158D02*
X030568Y006158D01*
X030635Y006059D02*
X031040Y006059D01*
X031040Y005961D02*
X030676Y005961D01*
X030717Y005862D02*
X031040Y005862D01*
X031040Y005764D02*
X030750Y005764D01*
X030750Y005665D02*
X031040Y005665D01*
X031040Y005567D02*
X030750Y005567D01*
X030750Y005468D02*
X031040Y005468D01*
X031040Y005370D02*
X030728Y005370D01*
X030687Y005271D02*
X031040Y005271D01*
X031040Y005173D02*
X030646Y005173D01*
X030595Y005074D02*
X031040Y005074D01*
X031040Y004976D02*
X030496Y004976D01*
X030398Y004877D02*
X031040Y004877D01*
X031040Y004779D02*
X030214Y004779D01*
X029761Y008916D02*
X029229Y008916D01*
X029328Y009014D02*
X029663Y009014D01*
X029625Y009113D02*
X029365Y009113D01*
X029365Y009211D02*
X029625Y009211D01*
X029625Y009310D02*
X029365Y009310D01*
X029315Y009408D02*
X029675Y009408D01*
X029774Y009507D02*
X029217Y009507D01*
M02*
