G75*
%MOIN*%
%OFA0B0*%
%FSLAX24Y24*%
%IPPOS*%
%LPD*%
%AMOC8*
5,1,8,0,0,1.08239X$1,22.5*
%
%ADD10C,0.0000*%
%ADD11R,0.0669X0.0669*%
%ADD12C,0.0669*%
%ADD13C,0.1890*%
%ADD14C,0.1266*%
%ADD15C,0.0594*%
%ADD16C,0.1581*%
%ADD17C,0.0600*%
%ADD18OC8,0.0520*%
%ADD19C,0.0436*%
%ADD20OC8,0.0600*%
%ADD21C,0.0500*%
%ADD22C,0.0120*%
%ADD23C,0.0100*%
D10*
X001936Y000937D02*
X001936Y010268D01*
X034082Y010268D01*
X034082Y000937D01*
X001936Y000937D01*
D11*
X011578Y004949D03*
D12*
X012578Y004949D03*
X013578Y004949D03*
X014578Y004949D03*
X015578Y004949D03*
X016578Y004949D03*
X017578Y004949D03*
X018578Y004949D03*
X019578Y004949D03*
X020578Y004949D03*
X021578Y004949D03*
X022578Y004949D03*
X023578Y004949D03*
X024578Y004949D03*
X024578Y007949D03*
X023578Y007949D03*
X022578Y007949D03*
X021578Y007949D03*
X020578Y007949D03*
X019578Y007949D03*
X018578Y007949D03*
X017578Y007949D03*
X016578Y007949D03*
X015578Y007949D03*
X014578Y007949D03*
X013578Y007949D03*
X012578Y007949D03*
X011578Y007949D03*
D13*
X005515Y007256D03*
X003192Y007256D03*
X004334Y005406D03*
D14*
X006464Y005603D03*
X009928Y005603D03*
D15*
X009180Y003144D02*
X009180Y002550D01*
X008196Y002550D02*
X008196Y003144D01*
X007212Y003144D02*
X007212Y002550D01*
D16*
X027015Y005603D03*
X029849Y005603D03*
X032684Y005603D03*
D17*
X027604Y002407D02*
X027604Y001807D01*
X026604Y001807D02*
X026604Y002407D01*
X016247Y002946D02*
X016247Y003546D01*
X015247Y003546D02*
X015247Y002946D01*
X014247Y002946D02*
X014247Y003546D01*
X013247Y003546D02*
X013247Y002946D01*
X012247Y002946D02*
X012247Y003546D01*
X011247Y003546D02*
X011247Y002946D01*
X010991Y002025D02*
X010991Y001425D01*
X009991Y001425D02*
X009991Y002025D01*
X011991Y002025D02*
X011991Y001425D01*
X006479Y001425D02*
X006479Y002025D01*
X005479Y002025D02*
X005479Y001425D01*
X004479Y001425D02*
X004479Y002025D01*
X007235Y008693D02*
X007235Y009293D01*
X008235Y009293D02*
X008235Y008693D01*
X009235Y008693D02*
X009235Y009293D01*
D18*
X010779Y009599D03*
X012779Y009599D03*
X004511Y009599D03*
X002511Y009599D03*
X017617Y003474D03*
X018617Y003474D03*
X019617Y003474D03*
X020617Y003474D03*
X020617Y001474D03*
X019617Y001474D03*
X018617Y001474D03*
X017617Y001474D03*
X023653Y008969D03*
X025653Y008969D03*
X025653Y009756D03*
X023653Y009756D03*
X028995Y009205D03*
X029995Y009205D03*
X032145Y009205D03*
X033145Y009205D03*
D19*
X022002Y009796D03*
X018002Y009796D03*
D20*
X022393Y003012D03*
X023393Y003012D03*
X024393Y003012D03*
X024393Y002012D03*
X023393Y002012D03*
X022393Y002012D03*
D21*
X027604Y002107D02*
X029849Y004353D01*
X029849Y005603D01*
X028375Y007077D01*
X011010Y007077D01*
X010690Y007397D01*
X007620Y007397D01*
X007235Y007782D01*
X007235Y008993D01*
X006629Y009599D01*
X004511Y009599D01*
X003192Y008918D02*
X002511Y009599D01*
X003192Y008918D02*
X003192Y007256D01*
X002730Y006794D01*
X002730Y004277D01*
X003220Y003787D01*
X004490Y003787D01*
X004490Y001735D01*
X004479Y001725D01*
X005875Y004184D02*
X007212Y002847D01*
X005875Y004292D02*
X005370Y003787D01*
X004490Y003787D01*
X005875Y004184D02*
X005875Y004292D01*
X006464Y004881D01*
X006464Y005603D01*
X009928Y005603D01*
X010560Y006407D02*
X010360Y006607D01*
X007290Y006607D01*
X006641Y007256D01*
X005515Y007256D01*
X009235Y008993D02*
X010172Y008993D01*
X010779Y009599D01*
X012779Y009599D02*
X017805Y009599D01*
X017862Y009655D01*
X018002Y009796D01*
X018680Y009117D01*
X022320Y009117D01*
X022959Y009756D01*
X023653Y009756D01*
X026210Y006407D02*
X010560Y006407D01*
X026210Y006407D02*
X027015Y005603D01*
D22*
X029849Y005603D02*
X033145Y008898D01*
X033145Y009205D01*
X020617Y003474D02*
X019763Y004327D01*
X014200Y004327D01*
X013578Y004949D01*
X013440Y004087D02*
X012578Y004949D01*
X011578Y004949D02*
X012750Y003777D01*
X012750Y001567D01*
X012950Y001367D01*
X017511Y001367D01*
X017617Y001474D01*
X018617Y001474D01*
X019153Y001937D02*
X017300Y001937D01*
X017000Y001637D01*
X014420Y001637D01*
X014247Y001810D01*
X014247Y003246D01*
X015247Y003246D02*
X015247Y002170D01*
X015510Y001907D01*
X016950Y001907D01*
X017230Y002187D01*
X019903Y002187D01*
X020617Y001474D01*
X019617Y001474D02*
X019153Y001937D01*
X019079Y003012D02*
X022393Y003012D01*
X024393Y003012D02*
X025298Y002107D01*
X026604Y002107D01*
X019617Y003474D02*
X019003Y004087D01*
X013440Y004087D01*
X012247Y003246D02*
X011991Y002990D01*
X012247Y003246D02*
X011247Y003246D01*
X010606Y002667D02*
X010776Y002497D01*
X011646Y002497D01*
X011991Y002152D01*
X011991Y001725D01*
X010606Y002667D02*
X010606Y004864D01*
X011480Y005737D01*
X015230Y005737D01*
X015578Y005389D01*
X015578Y004949D01*
X016578Y004949D02*
X016578Y005709D01*
X016320Y005967D01*
X011380Y005967D01*
X009810Y004397D01*
X009810Y002497D01*
X009037Y001725D01*
X006479Y001725D01*
X016247Y003246D02*
X016475Y003474D01*
X017617Y003474D01*
X018617Y003474D02*
X019079Y003012D01*
X017578Y007949D02*
X017578Y009371D01*
X017862Y009655D01*
D23*
X017993Y009704D02*
X018011Y009704D01*
X018011Y009787D02*
X018011Y009428D01*
X018038Y009428D01*
X018110Y009442D01*
X018177Y009469D01*
X018237Y009510D01*
X018288Y009561D01*
X018328Y009621D01*
X018356Y009688D01*
X018370Y009759D01*
X018370Y009787D01*
X018011Y009787D01*
X018011Y009805D01*
X018370Y009805D01*
X018370Y009832D01*
X018356Y009903D01*
X018328Y009970D01*
X018288Y010030D01*
X018237Y010082D01*
X018182Y010118D01*
X021923Y010118D01*
X021816Y010074D01*
X021724Y009982D01*
X021674Y009861D01*
X021674Y009730D01*
X021724Y009610D01*
X021816Y009518D01*
X021937Y009468D01*
X022067Y009468D01*
X022188Y009518D01*
X022280Y009610D01*
X022330Y009730D01*
X022330Y009861D01*
X022280Y009982D01*
X022188Y010074D01*
X022081Y010118D01*
X023435Y010118D01*
X023243Y009926D01*
X023243Y009786D01*
X023623Y009786D01*
X023623Y009726D01*
X023683Y009726D01*
X023683Y009786D01*
X024063Y009786D01*
X024063Y009926D01*
X023871Y010118D01*
X025491Y010118D01*
X025283Y009910D01*
X025283Y009603D01*
X025499Y009386D01*
X025806Y009386D01*
X026023Y009603D01*
X026023Y009910D01*
X025814Y010118D01*
X033932Y010118D01*
X033932Y001087D01*
X012234Y001087D01*
X012339Y001193D01*
X012401Y001343D01*
X012401Y002106D01*
X012339Y002257D01*
X012223Y002372D01*
X012073Y002435D01*
X011949Y002435D01*
X011716Y002667D01*
X011601Y002667D01*
X011632Y002710D01*
X011664Y002773D01*
X011686Y002841D01*
X011697Y002910D01*
X011697Y003196D01*
X011297Y003196D01*
X011297Y003296D01*
X011197Y003296D01*
X011197Y003994D01*
X011142Y003985D01*
X011074Y003963D01*
X011011Y003931D01*
X010954Y003889D01*
X010904Y003839D01*
X010862Y003782D01*
X010830Y003719D01*
X010808Y003651D01*
X010797Y003581D01*
X010797Y003296D01*
X011197Y003296D01*
X011197Y003196D01*
X010797Y003196D01*
X010797Y002910D01*
X010808Y002841D01*
X010830Y002773D01*
X010862Y002710D01*
X010893Y002667D01*
X010846Y002667D01*
X010776Y002738D01*
X010776Y004793D01*
X011133Y005150D01*
X011133Y004569D01*
X011198Y004505D01*
X011782Y004505D01*
X012297Y003990D01*
X012297Y003296D01*
X012197Y003296D01*
X012197Y003994D01*
X012142Y003985D01*
X012074Y003963D01*
X012011Y003931D01*
X011954Y003889D01*
X011904Y003839D01*
X011862Y003782D01*
X011830Y003719D01*
X011808Y003651D01*
X011797Y003581D01*
X011797Y003296D01*
X012197Y003296D01*
X012197Y003196D01*
X011797Y003196D01*
X011797Y002910D01*
X011808Y002841D01*
X011830Y002773D01*
X011862Y002710D01*
X011904Y002653D01*
X011954Y002603D01*
X012011Y002561D01*
X012074Y002529D01*
X012142Y002507D01*
X012197Y002498D01*
X012197Y003196D01*
X012297Y003196D01*
X012297Y002498D01*
X012352Y002507D01*
X012420Y002529D01*
X012483Y002561D01*
X012540Y002603D01*
X012580Y002642D01*
X012580Y001497D01*
X012780Y001297D01*
X012879Y001197D01*
X017370Y001197D01*
X017464Y001104D01*
X017770Y001104D01*
X017970Y001304D01*
X018264Y001304D01*
X018464Y001104D01*
X018770Y001104D01*
X018987Y001320D01*
X018987Y001627D01*
X018847Y001767D01*
X019083Y001767D01*
X019247Y001603D01*
X019247Y001320D01*
X019464Y001104D01*
X019770Y001104D01*
X019987Y001320D01*
X019987Y001627D01*
X019770Y001844D01*
X019488Y001844D01*
X019314Y002017D01*
X019833Y002017D01*
X020247Y001603D01*
X020247Y001320D01*
X020464Y001104D01*
X020770Y001104D01*
X020987Y001320D01*
X020987Y001627D01*
X020770Y001844D01*
X020488Y001844D01*
X020073Y002258D01*
X019974Y002357D01*
X017159Y002357D01*
X016879Y002077D01*
X015580Y002077D01*
X015417Y002240D01*
X015417Y002573D01*
X015479Y002598D01*
X015595Y002714D01*
X015657Y002864D01*
X015657Y003627D01*
X015595Y003778D01*
X015479Y003893D01*
X015422Y003917D01*
X016073Y003917D01*
X016015Y003893D01*
X015899Y003778D01*
X015837Y003627D01*
X015837Y002864D01*
X015899Y002714D01*
X016015Y002598D01*
X016165Y002536D01*
X016329Y002536D01*
X016479Y002598D01*
X016595Y002714D01*
X016657Y002864D01*
X016657Y003304D01*
X017264Y003304D01*
X017464Y003104D01*
X017770Y003104D01*
X017987Y003320D01*
X017987Y003627D01*
X017770Y003844D01*
X017464Y003844D01*
X017264Y003644D01*
X016650Y003644D01*
X016595Y003778D01*
X016479Y003893D01*
X016422Y003917D01*
X018933Y003917D01*
X019247Y003603D01*
X019247Y003320D01*
X019385Y003182D01*
X019149Y003182D01*
X018987Y003344D01*
X018987Y003627D01*
X018770Y003844D01*
X018464Y003844D01*
X018247Y003627D01*
X018247Y003320D01*
X018464Y003104D01*
X018747Y003104D01*
X018909Y002942D01*
X019008Y002842D01*
X021983Y002842D01*
X022223Y002602D01*
X022563Y002602D01*
X022803Y002842D01*
X022803Y003182D01*
X022563Y003422D01*
X022223Y003422D01*
X021983Y003182D01*
X020849Y003182D01*
X020987Y003320D01*
X020987Y003627D01*
X020770Y003844D01*
X020488Y003844D01*
X019933Y004398D01*
X019834Y004497D01*
X018756Y004497D01*
X018764Y004500D01*
X018832Y004535D01*
X018893Y004580D01*
X018947Y004633D01*
X018992Y004695D01*
X019027Y004763D01*
X019050Y004836D01*
X019061Y004901D01*
X018626Y004901D01*
X018626Y004998D01*
X018529Y004998D01*
X018529Y005432D01*
X018464Y005422D01*
X018392Y005398D01*
X018324Y005364D01*
X018262Y005319D01*
X018208Y005265D01*
X018163Y005203D01*
X018129Y005135D01*
X018105Y005063D01*
X018095Y004998D01*
X018529Y004998D01*
X018529Y004901D01*
X018095Y004901D01*
X018105Y004836D01*
X018129Y004763D01*
X018163Y004695D01*
X018208Y004633D01*
X018262Y004580D01*
X018324Y004535D01*
X018392Y004500D01*
X018400Y004497D01*
X014270Y004497D01*
X013988Y004779D01*
X014022Y004861D01*
X014022Y005038D01*
X013955Y005201D01*
X013830Y005326D01*
X013666Y005394D01*
X013489Y005394D01*
X013326Y005326D01*
X013201Y005201D01*
X013133Y005038D01*
X013133Y004861D01*
X013201Y004697D01*
X013326Y004572D01*
X013489Y004505D01*
X013666Y004505D01*
X013748Y004538D01*
X014029Y004257D01*
X013510Y004257D01*
X012988Y004779D01*
X013022Y004861D01*
X013022Y005038D01*
X012955Y005201D01*
X012830Y005326D01*
X012666Y005394D01*
X012489Y005394D01*
X012326Y005326D01*
X012201Y005201D01*
X012133Y005038D01*
X012133Y004861D01*
X012201Y004697D01*
X012326Y004572D01*
X012489Y004505D01*
X012666Y004505D01*
X012748Y004538D01*
X013332Y003954D01*
X013329Y003956D01*
X013165Y003956D01*
X013015Y003893D01*
X012920Y003798D01*
X012920Y003848D01*
X012820Y003947D01*
X012022Y004745D01*
X012022Y005329D01*
X011958Y005394D01*
X011377Y005394D01*
X011550Y005567D01*
X015160Y005567D01*
X015159Y005567D02*
X015379Y005348D01*
X015326Y005326D01*
X015201Y005201D01*
X015133Y005038D01*
X015133Y004861D01*
X015201Y004697D01*
X015326Y004572D01*
X015489Y004505D01*
X015666Y004505D01*
X015830Y004572D01*
X015955Y004697D01*
X016022Y004861D01*
X016022Y005038D01*
X015955Y005201D01*
X015830Y005326D01*
X015748Y005360D01*
X015748Y005460D01*
X015410Y005797D01*
X016249Y005797D01*
X016408Y005639D01*
X016408Y005360D01*
X016326Y005326D01*
X016201Y005201D01*
X016133Y005038D01*
X016133Y004861D01*
X016201Y004697D01*
X016326Y004572D01*
X016489Y004505D01*
X016666Y004505D01*
X016830Y004572D01*
X016955Y004697D01*
X017022Y004861D01*
X017022Y005038D01*
X016955Y005201D01*
X016830Y005326D01*
X016748Y005360D01*
X016748Y005780D01*
X016648Y005879D01*
X016480Y006047D01*
X026061Y006047D01*
X026176Y005932D01*
X026114Y005782D01*
X026114Y005424D01*
X026251Y005093D01*
X026505Y004839D01*
X026836Y004702D01*
X027194Y004702D01*
X027525Y004839D01*
X027778Y005093D01*
X027915Y005424D01*
X027915Y005782D01*
X027778Y006113D01*
X027525Y006366D01*
X027194Y006503D01*
X026836Y006503D01*
X026686Y006441D01*
X026515Y006611D01*
X026414Y006713D01*
X026402Y006717D01*
X028226Y006717D01*
X029011Y005932D01*
X028949Y005782D01*
X028949Y005424D01*
X029086Y005093D01*
X029339Y004839D01*
X029489Y004777D01*
X029489Y004502D01*
X027770Y002782D01*
X027685Y002817D01*
X027522Y002817D01*
X027372Y002755D01*
X027256Y002639D01*
X027194Y002489D01*
X027194Y001725D01*
X027047Y001725D01*
X027043Y001702D02*
X027054Y001772D01*
X027054Y002057D01*
X026654Y002057D01*
X026654Y002157D01*
X027054Y002157D01*
X027054Y002442D01*
X027043Y002512D01*
X027021Y002580D01*
X026989Y002643D01*
X026947Y002700D01*
X026897Y002750D01*
X026840Y002792D01*
X026777Y002824D01*
X026709Y002846D01*
X026654Y002855D01*
X026654Y002157D01*
X026554Y002157D01*
X026554Y002855D01*
X026498Y002846D01*
X026431Y002824D01*
X026368Y002792D01*
X026311Y002750D01*
X026261Y002700D01*
X026219Y002643D01*
X026187Y002580D01*
X026165Y002512D01*
X026154Y002442D01*
X026154Y002157D01*
X026554Y002157D01*
X026554Y002057D01*
X026654Y002057D01*
X026654Y001359D01*
X026709Y001368D01*
X026777Y001390D01*
X026840Y001422D01*
X026897Y001464D01*
X026947Y001514D01*
X026989Y001571D01*
X027021Y001634D01*
X027043Y001702D01*
X027017Y001627D02*
X027235Y001627D01*
X027256Y001575D02*
X027372Y001459D01*
X027522Y001397D01*
X027685Y001397D01*
X027836Y001459D01*
X027951Y001575D01*
X028014Y001725D01*
X033932Y001725D01*
X033932Y001627D02*
X027973Y001627D01*
X028014Y001725D02*
X028014Y002008D01*
X030155Y004149D01*
X030209Y004281D01*
X030209Y004777D01*
X030360Y004839D01*
X030613Y005093D01*
X030750Y005424D01*
X030750Y005782D01*
X030613Y006113D01*
X030606Y006119D01*
X033215Y008728D01*
X033315Y008828D01*
X033315Y008852D01*
X033515Y009052D01*
X033515Y009358D01*
X033298Y009575D01*
X032991Y009575D01*
X032775Y009358D01*
X032775Y009052D01*
X032916Y008910D01*
X030366Y006360D01*
X030360Y006366D01*
X030029Y006503D01*
X029670Y006503D01*
X029520Y006441D01*
X028680Y007281D01*
X028579Y007383D01*
X028446Y007437D01*
X011159Y007437D01*
X010894Y007703D01*
X010761Y007757D01*
X007769Y007757D01*
X007595Y007931D01*
X007595Y008490D01*
X007645Y008611D01*
X007645Y009374D01*
X007583Y009525D01*
X007467Y009640D01*
X007317Y009703D01*
X007154Y009703D01*
X007069Y009668D01*
X006833Y009904D01*
X006701Y009959D01*
X004674Y009959D01*
X004664Y009969D01*
X004358Y009969D01*
X004141Y009752D01*
X004141Y009446D01*
X004358Y009229D01*
X004664Y009229D01*
X004674Y009239D01*
X006480Y009239D01*
X006825Y008893D01*
X006825Y008611D01*
X006875Y008490D01*
X006875Y007710D01*
X006930Y007578D01*
X007315Y007193D01*
X007416Y007092D01*
X007548Y007037D01*
X010541Y007037D01*
X010806Y006772D01*
X010817Y006767D01*
X010709Y006767D01*
X010665Y006811D01*
X010665Y006811D01*
X010564Y006913D01*
X010431Y006967D01*
X007439Y006967D01*
X006845Y007561D01*
X006712Y007616D01*
X006510Y007616D01*
X006498Y007663D01*
X006359Y007904D01*
X006162Y008100D01*
X005922Y008239D01*
X005654Y008311D01*
X005376Y008311D01*
X005108Y008239D01*
X004867Y008100D01*
X004671Y007904D01*
X004532Y007663D01*
X004460Y007395D01*
X004460Y007117D01*
X004532Y006849D01*
X004671Y006609D01*
X004867Y006412D01*
X005108Y006273D01*
X005376Y006201D01*
X005654Y006201D01*
X005922Y006273D01*
X006162Y006412D01*
X006359Y006609D01*
X006498Y006849D01*
X006506Y006882D01*
X006985Y006403D01*
X007086Y006302D01*
X007218Y006247D01*
X009482Y006247D01*
X009411Y006193D01*
X009338Y006120D01*
X009276Y006039D01*
X009224Y005950D01*
X009185Y005855D01*
X009158Y005756D01*
X009145Y005654D01*
X009145Y005653D01*
X009878Y005653D01*
X009878Y005553D01*
X009145Y005553D01*
X009145Y005551D01*
X009158Y005450D01*
X009185Y005351D01*
X009224Y005256D01*
X009276Y005167D01*
X009338Y005085D01*
X009411Y005013D01*
X009492Y004950D01*
X009581Y004899D01*
X009676Y004860D01*
X009775Y004833D01*
X009877Y004820D01*
X009878Y004820D01*
X009878Y005553D01*
X009978Y005553D01*
X009978Y005653D01*
X010711Y005653D01*
X010711Y005654D01*
X010698Y005756D01*
X010671Y005855D01*
X010632Y005950D01*
X010581Y006039D01*
X010574Y006047D01*
X011219Y006047D01*
X011210Y006038D01*
X010709Y005537D01*
X010711Y005551D01*
X010711Y005553D01*
X009978Y005553D01*
X009978Y004820D01*
X009979Y004820D01*
X009993Y004822D01*
X009640Y004468D01*
X009640Y002568D01*
X009587Y002515D01*
X009587Y003225D01*
X009525Y003374D01*
X009411Y003489D01*
X009261Y003551D01*
X009099Y003551D01*
X008950Y003489D01*
X008835Y003374D01*
X008773Y003225D01*
X008773Y002469D01*
X008835Y002320D01*
X008950Y002205D01*
X009099Y002143D01*
X009215Y002143D01*
X008967Y001895D01*
X006889Y001895D01*
X006889Y002106D01*
X006827Y002257D01*
X006712Y002372D01*
X006561Y002435D01*
X006398Y002435D01*
X006247Y002372D01*
X006132Y002257D01*
X006069Y002106D01*
X006069Y001343D01*
X006132Y001193D01*
X006237Y001087D01*
X005722Y001087D01*
X005827Y001193D01*
X005889Y001343D01*
X005889Y002106D01*
X005827Y002257D01*
X005712Y002372D01*
X005561Y002435D01*
X005398Y002435D01*
X005247Y002372D01*
X005132Y002257D01*
X005069Y002106D01*
X005069Y001343D01*
X005132Y001193D01*
X005237Y001087D01*
X004778Y001087D01*
X004823Y001132D01*
X004864Y001189D01*
X004896Y001252D01*
X004918Y001319D01*
X004929Y001389D01*
X004929Y001675D01*
X004529Y001675D01*
X004529Y001775D01*
X004429Y001775D01*
X004429Y001675D01*
X004029Y001675D01*
X004029Y001389D01*
X004040Y001319D01*
X004062Y001252D01*
X004094Y001189D01*
X004136Y001132D01*
X004180Y001087D01*
X002086Y001087D01*
X002086Y010118D01*
X017822Y010118D01*
X017768Y010082D01*
X017716Y010030D01*
X017676Y009970D01*
X017648Y009903D01*
X017634Y009832D01*
X017634Y009805D01*
X017993Y009805D01*
X017993Y009787D01*
X017634Y009787D01*
X017634Y009759D01*
X017648Y009688D01*
X017676Y009621D01*
X017716Y009561D01*
X017768Y009510D01*
X017828Y009469D01*
X017895Y009442D01*
X017966Y009428D01*
X017993Y009428D01*
X017993Y009787D01*
X018011Y009787D01*
X018011Y009802D02*
X021674Y009802D01*
X021685Y009704D02*
X018359Y009704D01*
X018318Y009605D02*
X021728Y009605D01*
X021842Y009507D02*
X018233Y009507D01*
X018011Y009507D02*
X017993Y009507D01*
X017993Y009605D02*
X018011Y009605D01*
X017993Y009802D02*
X013155Y009802D01*
X013189Y009769D02*
X012948Y010009D01*
X012809Y010009D01*
X012809Y009629D01*
X013189Y009629D01*
X013189Y009769D01*
X013189Y009704D02*
X017645Y009704D01*
X017687Y009605D02*
X012809Y009605D01*
X012809Y009629D02*
X012809Y009569D01*
X013189Y009569D01*
X013189Y009429D01*
X012948Y009189D01*
X012809Y009189D01*
X012809Y009569D01*
X012749Y009569D01*
X012749Y009189D01*
X012609Y009189D01*
X012369Y009429D01*
X012369Y009569D01*
X012749Y009569D01*
X012749Y009629D01*
X012749Y010009D01*
X012609Y010009D01*
X012369Y009769D01*
X012369Y009629D01*
X012749Y009629D01*
X012809Y009629D01*
X012749Y009605D02*
X011149Y009605D01*
X011149Y009507D02*
X012369Y009507D01*
X012389Y009408D02*
X011111Y009408D01*
X011149Y009446D02*
X010932Y009229D01*
X010918Y009229D01*
X010376Y008687D01*
X010244Y008633D01*
X009645Y008633D01*
X009645Y008611D01*
X009583Y008460D01*
X009467Y008345D01*
X009317Y008283D01*
X009154Y008283D01*
X009003Y008345D01*
X008888Y008460D01*
X008825Y008611D01*
X008825Y009374D01*
X008888Y009525D01*
X009003Y009640D01*
X009154Y009703D01*
X009317Y009703D01*
X009467Y009640D01*
X009583Y009525D01*
X009645Y009374D01*
X009645Y009353D01*
X010023Y009353D01*
X010409Y009738D01*
X010409Y009752D01*
X010625Y009969D01*
X010932Y009969D01*
X011149Y009752D01*
X011149Y009446D01*
X011013Y009310D02*
X012488Y009310D01*
X012586Y009211D02*
X010900Y009211D01*
X010802Y009113D02*
X023283Y009113D01*
X023283Y009122D02*
X023283Y008816D01*
X023499Y008599D01*
X023806Y008599D01*
X024023Y008816D01*
X024023Y009122D01*
X023806Y009339D01*
X023499Y009339D01*
X023283Y009122D01*
X023283Y009014D02*
X010703Y009014D01*
X010605Y008916D02*
X023283Y008916D01*
X023283Y008817D02*
X010506Y008817D01*
X010408Y008719D02*
X023379Y008719D01*
X023478Y008620D02*
X009645Y008620D01*
X009608Y008522D02*
X032528Y008522D01*
X032430Y008423D02*
X017682Y008423D01*
X017691Y008422D02*
X017626Y008432D01*
X017626Y007998D01*
X017529Y007998D01*
X017529Y008432D01*
X017464Y008422D01*
X017392Y008398D01*
X017324Y008364D01*
X017262Y008319D01*
X017208Y008265D01*
X017163Y008203D01*
X017129Y008135D01*
X017105Y008063D01*
X017095Y007998D01*
X017529Y007998D01*
X017529Y007901D01*
X017095Y007901D01*
X017105Y007836D01*
X017129Y007763D01*
X017163Y007695D01*
X017208Y007633D01*
X017262Y007580D01*
X017324Y007535D01*
X017392Y007500D01*
X017464Y007477D01*
X017529Y007466D01*
X017529Y007901D01*
X017626Y007901D01*
X017626Y007998D01*
X018061Y007998D01*
X018050Y008063D01*
X018027Y008135D01*
X017992Y008203D01*
X017947Y008265D01*
X017893Y008319D01*
X017832Y008364D01*
X017764Y008398D01*
X017691Y008422D01*
X017626Y008423D02*
X017529Y008423D01*
X017474Y008423D02*
X009546Y008423D01*
X009419Y008325D02*
X011325Y008325D01*
X011326Y008326D02*
X011201Y008201D01*
X011133Y008038D01*
X011133Y007861D01*
X011201Y007697D01*
X011326Y007572D01*
X011489Y007505D01*
X011666Y007505D01*
X011830Y007572D01*
X011955Y007697D01*
X012022Y007861D01*
X012022Y008038D01*
X011955Y008201D01*
X011830Y008326D01*
X011666Y008394D01*
X011489Y008394D01*
X011326Y008326D01*
X011226Y008226D02*
X007595Y008226D01*
X007595Y008128D02*
X011170Y008128D01*
X011133Y008029D02*
X007595Y008029D01*
X007595Y007931D02*
X011133Y007931D01*
X011145Y007832D02*
X007694Y007832D01*
X006906Y007635D02*
X006505Y007635D01*
X006457Y007734D02*
X006875Y007734D01*
X006875Y007832D02*
X006400Y007832D01*
X006332Y007931D02*
X006875Y007931D01*
X006875Y008029D02*
X006233Y008029D01*
X006115Y008128D02*
X006875Y008128D01*
X006875Y008226D02*
X005944Y008226D01*
X005085Y008226D02*
X003701Y008226D01*
X003722Y008216D02*
X003612Y008269D01*
X003496Y008310D01*
X003376Y008337D01*
X003253Y008351D01*
X003242Y008351D01*
X003242Y007306D01*
X004287Y007306D01*
X004287Y007318D01*
X004273Y007440D01*
X004246Y007560D01*
X004205Y007676D01*
X004152Y007787D01*
X004086Y007891D01*
X004010Y007987D01*
X003923Y008074D01*
X003827Y008151D01*
X003722Y008216D01*
X003855Y008128D02*
X004915Y008128D01*
X004796Y008029D02*
X003967Y008029D01*
X004054Y007931D02*
X004698Y007931D01*
X004629Y007832D02*
X004123Y007832D01*
X004177Y007734D02*
X004572Y007734D01*
X004524Y007635D02*
X004219Y007635D01*
X004251Y007537D02*
X004498Y007537D01*
X004471Y007438D02*
X004273Y007438D01*
X004284Y007340D02*
X004460Y007340D01*
X004460Y007241D02*
X003242Y007241D01*
X003242Y007206D02*
X003242Y007306D01*
X003142Y007306D01*
X003142Y007206D01*
X003242Y007206D01*
X003242Y006161D01*
X003253Y006161D01*
X003376Y006175D01*
X003496Y006203D01*
X003612Y006243D01*
X003722Y006297D01*
X003827Y006362D01*
X003923Y006439D01*
X004010Y006526D01*
X004086Y006622D01*
X004152Y006726D01*
X004205Y006837D01*
X004246Y006953D01*
X004273Y007073D01*
X004287Y007195D01*
X004287Y007206D01*
X003242Y007206D01*
X003242Y007143D02*
X003142Y007143D01*
X003142Y007206D02*
X003142Y006161D01*
X003130Y006161D01*
X003008Y006175D01*
X002888Y006203D01*
X002772Y006243D01*
X002661Y006297D01*
X002557Y006362D01*
X002461Y006439D01*
X002374Y006526D01*
X002298Y006622D01*
X002232Y006726D01*
X002179Y006837D01*
X002138Y006953D01*
X002111Y007073D01*
X002097Y007195D01*
X002097Y007206D01*
X003142Y007206D01*
X003142Y007241D02*
X002086Y007241D01*
X002097Y007306D02*
X003142Y007306D01*
X003142Y008351D01*
X003130Y008351D01*
X003008Y008337D01*
X002888Y008310D01*
X002772Y008269D01*
X002661Y008216D01*
X002557Y008151D01*
X002461Y008074D01*
X002374Y007987D01*
X002298Y007891D01*
X002232Y007787D01*
X002179Y007676D01*
X002138Y007560D01*
X002111Y007440D01*
X002097Y007318D01*
X002097Y007306D01*
X002100Y007340D02*
X002086Y007340D01*
X002086Y007438D02*
X002111Y007438D01*
X002133Y007537D02*
X002086Y007537D01*
X002086Y007635D02*
X002165Y007635D01*
X002207Y007734D02*
X002086Y007734D01*
X002086Y007832D02*
X002261Y007832D01*
X002330Y007931D02*
X002086Y007931D01*
X002086Y008029D02*
X002417Y008029D01*
X002529Y008128D02*
X002086Y008128D01*
X002086Y008226D02*
X002683Y008226D01*
X002954Y008325D02*
X002086Y008325D01*
X002086Y008423D02*
X006875Y008423D01*
X006875Y008325D02*
X003430Y008325D01*
X003242Y008325D02*
X003142Y008325D01*
X003142Y008226D02*
X003242Y008226D01*
X003242Y008128D02*
X003142Y008128D01*
X003142Y008029D02*
X003242Y008029D01*
X003242Y007931D02*
X003142Y007931D01*
X003142Y007832D02*
X003242Y007832D01*
X003242Y007734D02*
X003142Y007734D01*
X003142Y007635D02*
X003242Y007635D01*
X003242Y007537D02*
X003142Y007537D01*
X003142Y007438D02*
X003242Y007438D01*
X003242Y007340D02*
X003142Y007340D01*
X003142Y007044D02*
X003242Y007044D01*
X003242Y006946D02*
X003142Y006946D01*
X003142Y006847D02*
X003242Y006847D01*
X003242Y006749D02*
X003142Y006749D01*
X003142Y006650D02*
X003242Y006650D01*
X003242Y006552D02*
X003142Y006552D01*
X003142Y006453D02*
X003242Y006453D01*
X003242Y006355D02*
X003142Y006355D01*
X003142Y006256D02*
X003242Y006256D01*
X003490Y006054D02*
X003686Y006250D01*
X003926Y006389D01*
X004195Y006461D01*
X004473Y006461D01*
X004741Y006389D01*
X004981Y006250D01*
X005178Y006054D01*
X005317Y005813D01*
X005389Y005545D01*
X005389Y005267D01*
X005317Y004999D01*
X005178Y004758D01*
X004981Y004562D01*
X004741Y004423D01*
X004473Y004351D01*
X004195Y004351D01*
X003926Y004423D01*
X003686Y004562D01*
X003490Y004758D01*
X003351Y004999D01*
X003279Y005267D01*
X003279Y005545D01*
X003351Y005813D01*
X003490Y006054D01*
X003495Y006059D02*
X002086Y006059D01*
X002086Y005961D02*
X003436Y005961D01*
X003379Y005862D02*
X002086Y005862D01*
X002086Y005764D02*
X003337Y005764D01*
X003311Y005665D02*
X002086Y005665D01*
X002086Y005567D02*
X003285Y005567D01*
X003279Y005468D02*
X002086Y005468D01*
X002086Y005370D02*
X003279Y005370D01*
X003279Y005271D02*
X002086Y005271D01*
X002086Y005173D02*
X003304Y005173D01*
X003330Y005074D02*
X002086Y005074D01*
X002086Y004976D02*
X003364Y004976D01*
X003421Y004877D02*
X002086Y004877D01*
X002086Y004779D02*
X003478Y004779D01*
X003567Y004680D02*
X002086Y004680D01*
X002086Y004582D02*
X003666Y004582D01*
X003822Y004483D02*
X002086Y004483D01*
X002086Y004385D02*
X004068Y004385D01*
X004599Y004385D02*
X009640Y004385D01*
X009640Y004286D02*
X002086Y004286D01*
X002086Y004188D02*
X009640Y004188D01*
X009640Y004089D02*
X002086Y004089D01*
X002086Y003991D02*
X009640Y003991D01*
X009640Y003892D02*
X002086Y003892D01*
X002086Y003794D02*
X009640Y003794D01*
X009640Y003695D02*
X002086Y003695D01*
X002086Y003597D02*
X009640Y003597D01*
X009640Y003498D02*
X009387Y003498D01*
X009499Y003400D02*
X009640Y003400D01*
X009640Y003301D02*
X009555Y003301D01*
X009587Y003203D02*
X009640Y003203D01*
X009640Y003104D02*
X009587Y003104D01*
X009587Y003006D02*
X009640Y003006D01*
X009640Y002907D02*
X009587Y002907D01*
X009587Y002809D02*
X009640Y002809D01*
X009640Y002710D02*
X009587Y002710D01*
X009587Y002612D02*
X009640Y002612D01*
X009980Y002612D02*
X010436Y002612D01*
X010436Y002597D02*
X010606Y002427D01*
X010706Y002327D01*
X010714Y002327D01*
X010644Y002257D01*
X010581Y002106D01*
X010581Y001343D01*
X010644Y001193D01*
X010749Y001087D01*
X010290Y001087D01*
X010334Y001132D01*
X010376Y001189D01*
X010408Y001252D01*
X010430Y001319D01*
X010441Y001389D01*
X010441Y001675D01*
X010041Y001675D01*
X010041Y001775D01*
X009941Y001775D01*
X009941Y002388D01*
X009980Y002427D01*
X009980Y004327D01*
X010436Y004783D01*
X010436Y002597D01*
X010436Y002710D02*
X009980Y002710D01*
X009980Y002809D02*
X010436Y002809D01*
X010436Y002907D02*
X009980Y002907D01*
X009980Y003006D02*
X010436Y003006D01*
X010436Y003104D02*
X009980Y003104D01*
X009980Y003203D02*
X010436Y003203D01*
X010436Y003301D02*
X009980Y003301D01*
X009980Y003400D02*
X010436Y003400D01*
X010436Y003498D02*
X009980Y003498D01*
X009980Y003597D02*
X010436Y003597D01*
X010436Y003695D02*
X009980Y003695D01*
X009980Y003794D02*
X010436Y003794D01*
X010436Y003892D02*
X009980Y003892D01*
X009980Y003991D02*
X010436Y003991D01*
X010436Y004089D02*
X009980Y004089D01*
X009980Y004188D02*
X010436Y004188D01*
X010436Y004286D02*
X009980Y004286D01*
X010038Y004385D02*
X010436Y004385D01*
X010436Y004483D02*
X010136Y004483D01*
X010235Y004582D02*
X010436Y004582D01*
X010436Y004680D02*
X010333Y004680D01*
X010432Y004779D02*
X010436Y004779D01*
X010776Y004779D02*
X011133Y004779D01*
X011133Y004877D02*
X010860Y004877D01*
X010959Y004976D02*
X011133Y004976D01*
X011133Y005074D02*
X011057Y005074D01*
X011133Y004680D02*
X010776Y004680D01*
X010776Y004582D02*
X011133Y004582D01*
X010776Y004483D02*
X011803Y004483D01*
X011902Y004385D02*
X010776Y004385D01*
X010776Y004286D02*
X012000Y004286D01*
X012099Y004188D02*
X010776Y004188D01*
X010776Y004089D02*
X012197Y004089D01*
X012197Y003991D02*
X012296Y003991D01*
X012297Y003892D02*
X012197Y003892D01*
X012197Y003794D02*
X012297Y003794D01*
X012297Y003695D02*
X012197Y003695D01*
X012197Y003597D02*
X012297Y003597D01*
X012297Y003498D02*
X012197Y003498D01*
X012197Y003400D02*
X012297Y003400D01*
X012297Y003301D02*
X012197Y003301D01*
X012197Y003203D02*
X011297Y003203D01*
X011297Y003296D02*
X011697Y003296D01*
X011697Y003581D01*
X011686Y003651D01*
X011664Y003719D01*
X011632Y003782D01*
X011590Y003839D01*
X011540Y003889D01*
X011483Y003931D01*
X011420Y003963D01*
X011352Y003985D01*
X011297Y003994D01*
X011297Y003296D01*
X011297Y003301D02*
X011197Y003301D01*
X011197Y003203D02*
X010776Y003203D01*
X010776Y003301D02*
X010797Y003301D01*
X010797Y003400D02*
X010776Y003400D01*
X010776Y003498D02*
X010797Y003498D01*
X010800Y003597D02*
X010776Y003597D01*
X010776Y003695D02*
X010822Y003695D01*
X010776Y003794D02*
X010871Y003794D01*
X010958Y003892D02*
X010776Y003892D01*
X010776Y003991D02*
X011180Y003991D01*
X011197Y003991D02*
X011297Y003991D01*
X011314Y003991D02*
X012180Y003991D01*
X011958Y003892D02*
X011536Y003892D01*
X011623Y003794D02*
X011871Y003794D01*
X011822Y003695D02*
X011672Y003695D01*
X011695Y003597D02*
X011800Y003597D01*
X011797Y003498D02*
X011697Y003498D01*
X011697Y003400D02*
X011797Y003400D01*
X011797Y003301D02*
X011697Y003301D01*
X011697Y003104D02*
X011797Y003104D01*
X011797Y003006D02*
X011697Y003006D01*
X011697Y002907D02*
X011798Y002907D01*
X011818Y002809D02*
X011676Y002809D01*
X011632Y002710D02*
X011862Y002710D01*
X011945Y002612D02*
X011772Y002612D01*
X011870Y002513D02*
X012122Y002513D01*
X012197Y002513D02*
X012297Y002513D01*
X012372Y002513D02*
X012580Y002513D01*
X012580Y002415D02*
X012121Y002415D01*
X012279Y002316D02*
X012580Y002316D01*
X012580Y002218D02*
X012355Y002218D01*
X012396Y002119D02*
X012580Y002119D01*
X012580Y002021D02*
X012401Y002021D01*
X012401Y001922D02*
X012580Y001922D01*
X012580Y001824D02*
X012401Y001824D01*
X012401Y001725D02*
X012580Y001725D01*
X012580Y001627D02*
X012401Y001627D01*
X012401Y001528D02*
X012580Y001528D01*
X012647Y001430D02*
X012401Y001430D01*
X012396Y001331D02*
X012745Y001331D01*
X012844Y001233D02*
X012355Y001233D01*
X012281Y001134D02*
X017433Y001134D01*
X017801Y001134D02*
X018433Y001134D01*
X018335Y001233D02*
X017900Y001233D01*
X018801Y001134D02*
X019433Y001134D01*
X019335Y001233D02*
X018900Y001233D01*
X018987Y001331D02*
X019247Y001331D01*
X019247Y001430D02*
X018987Y001430D01*
X018987Y001528D02*
X019247Y001528D01*
X019224Y001627D02*
X018987Y001627D01*
X018889Y001725D02*
X019125Y001725D01*
X019409Y001922D02*
X019928Y001922D01*
X020027Y001824D02*
X019790Y001824D01*
X019889Y001725D02*
X020125Y001725D01*
X020224Y001627D02*
X019987Y001627D01*
X019987Y001528D02*
X020247Y001528D01*
X020247Y001430D02*
X019987Y001430D01*
X019987Y001331D02*
X020247Y001331D01*
X020335Y001233D02*
X019900Y001233D01*
X019801Y001134D02*
X020433Y001134D01*
X020801Y001134D02*
X033932Y001134D01*
X033932Y001233D02*
X020900Y001233D01*
X020987Y001331D02*
X033932Y001331D01*
X033932Y001430D02*
X027765Y001430D01*
X027905Y001528D02*
X033932Y001528D01*
X033932Y001824D02*
X028014Y001824D01*
X028014Y001922D02*
X033932Y001922D01*
X033932Y002021D02*
X028027Y002021D01*
X028125Y002119D02*
X033932Y002119D01*
X033932Y002218D02*
X028224Y002218D01*
X028322Y002316D02*
X033932Y002316D01*
X033932Y002415D02*
X028421Y002415D01*
X028519Y002513D02*
X033932Y002513D01*
X033932Y002612D02*
X028618Y002612D01*
X028716Y002710D02*
X033932Y002710D01*
X033932Y002809D02*
X028815Y002809D01*
X028913Y002907D02*
X033932Y002907D01*
X033932Y003006D02*
X029012Y003006D01*
X029110Y003104D02*
X033932Y003104D01*
X033932Y003203D02*
X029209Y003203D01*
X029307Y003301D02*
X033932Y003301D01*
X033932Y003400D02*
X029406Y003400D01*
X029504Y003498D02*
X033932Y003498D01*
X033932Y003597D02*
X029603Y003597D01*
X029701Y003695D02*
X033932Y003695D01*
X033932Y003794D02*
X029800Y003794D01*
X029898Y003892D02*
X033932Y003892D01*
X033932Y003991D02*
X029997Y003991D01*
X030095Y004089D02*
X033932Y004089D01*
X033932Y004188D02*
X030171Y004188D01*
X030209Y004286D02*
X033932Y004286D01*
X033932Y004385D02*
X030209Y004385D01*
X030209Y004483D02*
X033932Y004483D01*
X033932Y004582D02*
X030209Y004582D01*
X030209Y004680D02*
X033932Y004680D01*
X033932Y004779D02*
X033048Y004779D01*
X033194Y004839D02*
X033448Y005093D01*
X033585Y005424D01*
X033585Y005782D01*
X033448Y006113D01*
X033194Y006366D01*
X032863Y006503D01*
X032505Y006503D01*
X032174Y006366D01*
X031921Y006113D01*
X031784Y005782D01*
X031784Y005424D01*
X031921Y005093D01*
X032174Y004839D01*
X032505Y004702D01*
X032863Y004702D01*
X033194Y004839D01*
X033232Y004877D02*
X033932Y004877D01*
X033932Y004976D02*
X033331Y004976D01*
X033429Y005074D02*
X033932Y005074D01*
X033932Y005173D02*
X033481Y005173D01*
X033522Y005271D02*
X033932Y005271D01*
X033932Y005370D02*
X033562Y005370D01*
X033585Y005468D02*
X033932Y005468D01*
X033932Y005567D02*
X033585Y005567D01*
X033585Y005665D02*
X033932Y005665D01*
X033932Y005764D02*
X033585Y005764D01*
X033551Y005862D02*
X033932Y005862D01*
X033932Y005961D02*
X033510Y005961D01*
X033470Y006059D02*
X033932Y006059D01*
X033932Y006158D02*
X033402Y006158D01*
X033304Y006256D02*
X033932Y006256D01*
X033932Y006355D02*
X033205Y006355D01*
X032984Y006453D02*
X033932Y006453D01*
X033932Y006552D02*
X031039Y006552D01*
X031137Y006650D02*
X033932Y006650D01*
X033932Y006749D02*
X031236Y006749D01*
X031334Y006847D02*
X033932Y006847D01*
X033932Y006946D02*
X031433Y006946D01*
X031531Y007044D02*
X033932Y007044D01*
X033932Y007143D02*
X031630Y007143D01*
X031728Y007241D02*
X033932Y007241D01*
X033932Y007340D02*
X031827Y007340D01*
X031925Y007438D02*
X033932Y007438D01*
X033932Y007537D02*
X032024Y007537D01*
X032122Y007635D02*
X033932Y007635D01*
X033932Y007734D02*
X032221Y007734D01*
X032319Y007832D02*
X033932Y007832D01*
X033932Y007931D02*
X032418Y007931D01*
X032516Y008029D02*
X033932Y008029D01*
X033932Y008128D02*
X032615Y008128D01*
X032713Y008226D02*
X033932Y008226D01*
X033932Y008325D02*
X032812Y008325D01*
X032910Y008423D02*
X033932Y008423D01*
X033932Y008522D02*
X033009Y008522D01*
X033107Y008620D02*
X033932Y008620D01*
X033932Y008719D02*
X033206Y008719D01*
X033304Y008817D02*
X033932Y008817D01*
X033932Y008916D02*
X033379Y008916D01*
X033477Y009014D02*
X033932Y009014D01*
X033932Y009113D02*
X033515Y009113D01*
X033515Y009211D02*
X033932Y009211D01*
X033932Y009310D02*
X033515Y009310D01*
X033465Y009408D02*
X033932Y009408D01*
X033932Y009507D02*
X033366Y009507D01*
X032923Y009507D02*
X032366Y009507D01*
X032298Y009575D02*
X031991Y009575D01*
X031775Y009358D01*
X031775Y009052D01*
X031991Y008835D01*
X032298Y008835D01*
X032515Y009052D01*
X032515Y009358D01*
X032298Y009575D01*
X031923Y009507D02*
X030217Y009507D01*
X030148Y009575D02*
X029842Y009575D01*
X029625Y009358D01*
X029625Y009052D01*
X029842Y008835D01*
X030148Y008835D01*
X030365Y009052D01*
X030365Y009358D01*
X030148Y009575D01*
X029774Y009507D02*
X029217Y009507D01*
X029148Y009575D02*
X028842Y009575D01*
X028625Y009358D01*
X028625Y009052D01*
X028842Y008835D01*
X029148Y008835D01*
X029365Y009052D01*
X029365Y009358D01*
X029148Y009575D01*
X028774Y009507D02*
X025926Y009507D01*
X026023Y009605D02*
X033932Y009605D01*
X033932Y009704D02*
X026023Y009704D01*
X026023Y009802D02*
X033932Y009802D01*
X033932Y009901D02*
X026023Y009901D01*
X025933Y009999D02*
X033932Y009999D01*
X033932Y010098D02*
X025834Y010098D01*
X025471Y010098D02*
X023891Y010098D01*
X023989Y009999D02*
X025372Y009999D01*
X025283Y009901D02*
X024063Y009901D01*
X024063Y009802D02*
X025283Y009802D01*
X025283Y009704D02*
X024063Y009704D01*
X024063Y009726D02*
X023683Y009726D01*
X023683Y009346D01*
X023822Y009346D01*
X024063Y009586D01*
X024063Y009726D01*
X024063Y009605D02*
X025283Y009605D01*
X025379Y009507D02*
X023983Y009507D01*
X023885Y009408D02*
X025477Y009408D01*
X025499Y009339D02*
X025283Y009122D01*
X025283Y008816D01*
X025499Y008599D01*
X025806Y008599D01*
X026023Y008816D01*
X026023Y009122D01*
X025806Y009339D01*
X025499Y009339D01*
X025470Y009310D02*
X023835Y009310D01*
X023933Y009211D02*
X025372Y009211D01*
X025283Y009113D02*
X024023Y009113D01*
X024023Y009014D02*
X025283Y009014D01*
X025283Y008916D02*
X024023Y008916D01*
X024023Y008817D02*
X025283Y008817D01*
X025379Y008719D02*
X023926Y008719D01*
X023827Y008620D02*
X025478Y008620D01*
X025827Y008620D02*
X032627Y008620D01*
X032725Y008719D02*
X025926Y008719D01*
X026023Y008817D02*
X032824Y008817D01*
X032911Y008916D02*
X032379Y008916D01*
X032477Y009014D02*
X032812Y009014D01*
X032775Y009113D02*
X032515Y009113D01*
X032515Y009211D02*
X032775Y009211D01*
X032775Y009310D02*
X032515Y009310D01*
X032465Y009408D02*
X032825Y009408D01*
X031825Y009408D02*
X030315Y009408D01*
X030365Y009310D02*
X031775Y009310D01*
X031775Y009211D02*
X030365Y009211D01*
X030365Y009113D02*
X031775Y009113D01*
X031812Y009014D02*
X030328Y009014D01*
X030229Y008916D02*
X031911Y008916D01*
X032331Y008325D02*
X024831Y008325D01*
X024830Y008326D02*
X024666Y008394D01*
X024489Y008394D01*
X024326Y008326D01*
X024201Y008201D01*
X024133Y008038D01*
X024133Y007861D01*
X024201Y007697D01*
X024326Y007572D01*
X024489Y007505D01*
X024666Y007505D01*
X024830Y007572D01*
X024955Y007697D01*
X025022Y007861D01*
X025022Y008038D01*
X024955Y008201D01*
X024830Y008326D01*
X024929Y008226D02*
X032233Y008226D01*
X032134Y008128D02*
X024985Y008128D01*
X025022Y008029D02*
X032036Y008029D01*
X031937Y007931D02*
X025022Y007931D01*
X025011Y007832D02*
X031839Y007832D01*
X031740Y007734D02*
X024970Y007734D01*
X024893Y007635D02*
X031642Y007635D01*
X031543Y007537D02*
X024744Y007537D01*
X024411Y007537D02*
X023744Y007537D01*
X023666Y007505D02*
X023830Y007572D01*
X023955Y007697D01*
X024022Y007861D01*
X024022Y008038D01*
X023955Y008201D01*
X023830Y008326D01*
X023666Y008394D01*
X023489Y008394D01*
X023326Y008326D01*
X023201Y008201D01*
X023133Y008038D01*
X023133Y007861D01*
X023201Y007697D01*
X023326Y007572D01*
X023489Y007505D01*
X023666Y007505D01*
X023411Y007537D02*
X022744Y007537D01*
X022666Y007505D02*
X022830Y007572D01*
X022955Y007697D01*
X023022Y007861D01*
X023022Y008038D01*
X022955Y008201D01*
X022830Y008326D01*
X022666Y008394D01*
X022489Y008394D01*
X022326Y008326D01*
X022201Y008201D01*
X022133Y008038D01*
X022133Y007861D01*
X022201Y007697D01*
X022326Y007572D01*
X022489Y007505D01*
X022666Y007505D01*
X022411Y007537D02*
X021744Y007537D01*
X021666Y007505D02*
X021830Y007572D01*
X021955Y007697D01*
X022022Y007861D01*
X022022Y008038D01*
X021955Y008201D01*
X021830Y008326D01*
X021666Y008394D01*
X021489Y008394D01*
X021326Y008326D01*
X021201Y008201D01*
X021133Y008038D01*
X021133Y007861D01*
X021201Y007697D01*
X021326Y007572D01*
X021489Y007505D01*
X021666Y007505D01*
X021411Y007537D02*
X020744Y007537D01*
X020666Y007505D02*
X020830Y007572D01*
X020955Y007697D01*
X021022Y007861D01*
X021022Y008038D01*
X020955Y008201D01*
X020830Y008326D01*
X020666Y008394D01*
X020489Y008394D01*
X020326Y008326D01*
X020201Y008201D01*
X020133Y008038D01*
X020133Y007861D01*
X020201Y007697D01*
X020326Y007572D01*
X020489Y007505D01*
X020666Y007505D01*
X020411Y007537D02*
X019744Y007537D01*
X019666Y007505D02*
X019830Y007572D01*
X019955Y007697D01*
X020022Y007861D01*
X020022Y008038D01*
X019955Y008201D01*
X019830Y008326D01*
X019666Y008394D01*
X019489Y008394D01*
X019326Y008326D01*
X019201Y008201D01*
X019133Y008038D01*
X019133Y007861D01*
X019201Y007697D01*
X019326Y007572D01*
X019489Y007505D01*
X019666Y007505D01*
X019411Y007537D02*
X018744Y007537D01*
X018666Y007505D02*
X018830Y007572D01*
X018955Y007697D01*
X019022Y007861D01*
X019022Y008038D01*
X018955Y008201D01*
X018830Y008326D01*
X018666Y008394D01*
X018489Y008394D01*
X018326Y008326D01*
X018201Y008201D01*
X018133Y008038D01*
X018133Y007861D01*
X018201Y007697D01*
X018326Y007572D01*
X018489Y007505D01*
X018666Y007505D01*
X018411Y007537D02*
X017835Y007537D01*
X017832Y007535D02*
X017893Y007580D01*
X017947Y007633D01*
X017992Y007695D01*
X018027Y007763D01*
X018050Y007836D01*
X018061Y007901D01*
X017626Y007901D01*
X017626Y007466D01*
X017691Y007477D01*
X017764Y007500D01*
X017832Y007535D01*
X017949Y007635D02*
X018263Y007635D01*
X018186Y007734D02*
X018012Y007734D01*
X018049Y007832D02*
X018145Y007832D01*
X018133Y007931D02*
X017626Y007931D01*
X017529Y007931D02*
X017022Y007931D01*
X017022Y007861D02*
X016955Y007697D01*
X016830Y007572D01*
X016666Y007505D01*
X016489Y007505D01*
X016326Y007572D01*
X016201Y007697D01*
X016133Y007861D01*
X016133Y008038D01*
X016201Y008201D01*
X016326Y008326D01*
X016489Y008394D01*
X016666Y008394D01*
X016830Y008326D01*
X016955Y008201D01*
X017022Y008038D01*
X017022Y007861D01*
X017011Y007832D02*
X017106Y007832D01*
X017144Y007734D02*
X016970Y007734D01*
X016893Y007635D02*
X017207Y007635D01*
X017321Y007537D02*
X016744Y007537D01*
X016411Y007537D02*
X015744Y007537D01*
X015666Y007505D02*
X015830Y007572D01*
X015955Y007697D01*
X016022Y007861D01*
X016022Y008038D01*
X015955Y008201D01*
X015830Y008326D01*
X015666Y008394D01*
X015489Y008394D01*
X015326Y008326D01*
X015201Y008201D01*
X015133Y008038D01*
X015133Y007861D01*
X015201Y007697D01*
X015326Y007572D01*
X015489Y007505D01*
X015666Y007505D01*
X015411Y007537D02*
X014744Y007537D01*
X014666Y007505D02*
X014830Y007572D01*
X014955Y007697D01*
X015022Y007861D01*
X015022Y008038D01*
X014955Y008201D01*
X014830Y008326D01*
X014666Y008394D01*
X014489Y008394D01*
X014326Y008326D01*
X014201Y008201D01*
X014133Y008038D01*
X014133Y007861D01*
X014201Y007697D01*
X014326Y007572D01*
X014489Y007505D01*
X014666Y007505D01*
X014411Y007537D02*
X013744Y007537D01*
X013666Y007505D02*
X013830Y007572D01*
X013955Y007697D01*
X014022Y007861D01*
X014022Y008038D01*
X013955Y008201D01*
X013830Y008326D01*
X013666Y008394D01*
X013489Y008394D01*
X013326Y008326D01*
X013201Y008201D01*
X013133Y008038D01*
X013133Y007861D01*
X013201Y007697D01*
X013326Y007572D01*
X013489Y007505D01*
X013666Y007505D01*
X013411Y007537D02*
X012744Y007537D01*
X012666Y007505D02*
X012830Y007572D01*
X012955Y007697D01*
X013022Y007861D01*
X013022Y008038D01*
X012955Y008201D01*
X012830Y008326D01*
X012666Y008394D01*
X012489Y008394D01*
X012326Y008326D01*
X012201Y008201D01*
X012133Y008038D01*
X012133Y007861D01*
X012201Y007697D01*
X012326Y007572D01*
X012489Y007505D01*
X012666Y007505D01*
X012411Y007537D02*
X011744Y007537D01*
X011893Y007635D02*
X012263Y007635D01*
X012186Y007734D02*
X011970Y007734D01*
X012011Y007832D02*
X012145Y007832D01*
X012133Y007931D02*
X012022Y007931D01*
X012022Y008029D02*
X012133Y008029D01*
X012170Y008128D02*
X011985Y008128D01*
X011929Y008226D02*
X012226Y008226D01*
X012325Y008325D02*
X011831Y008325D01*
X012831Y008325D02*
X013325Y008325D01*
X013226Y008226D02*
X012929Y008226D01*
X012985Y008128D02*
X013170Y008128D01*
X013133Y008029D02*
X013022Y008029D01*
X013022Y007931D02*
X013133Y007931D01*
X013145Y007832D02*
X013011Y007832D01*
X012970Y007734D02*
X013186Y007734D01*
X013263Y007635D02*
X012893Y007635D01*
X013893Y007635D02*
X014263Y007635D01*
X014186Y007734D02*
X013970Y007734D01*
X014011Y007832D02*
X014145Y007832D01*
X014133Y007931D02*
X014022Y007931D01*
X014022Y008029D02*
X014133Y008029D01*
X014170Y008128D02*
X013985Y008128D01*
X013929Y008226D02*
X014226Y008226D01*
X014325Y008325D02*
X013831Y008325D01*
X014831Y008325D02*
X015325Y008325D01*
X015226Y008226D02*
X014929Y008226D01*
X014985Y008128D02*
X015170Y008128D01*
X015133Y008029D02*
X015022Y008029D01*
X015022Y007931D02*
X015133Y007931D01*
X015145Y007832D02*
X015011Y007832D01*
X014970Y007734D02*
X015186Y007734D01*
X015263Y007635D02*
X014893Y007635D01*
X015893Y007635D02*
X016263Y007635D01*
X016186Y007734D02*
X015970Y007734D01*
X016011Y007832D02*
X016145Y007832D01*
X016133Y007931D02*
X016022Y007931D01*
X016022Y008029D02*
X016133Y008029D01*
X016170Y008128D02*
X015985Y008128D01*
X015929Y008226D02*
X016226Y008226D01*
X016325Y008325D02*
X015831Y008325D01*
X016831Y008325D02*
X017270Y008325D01*
X017180Y008226D02*
X016929Y008226D01*
X016985Y008128D02*
X017126Y008128D01*
X017100Y008029D02*
X017022Y008029D01*
X017529Y008029D02*
X017626Y008029D01*
X017626Y008128D02*
X017529Y008128D01*
X017529Y008226D02*
X017626Y008226D01*
X017626Y008325D02*
X017529Y008325D01*
X017885Y008325D02*
X018325Y008325D01*
X018226Y008226D02*
X017975Y008226D01*
X018029Y008128D02*
X018170Y008128D01*
X018133Y008029D02*
X018056Y008029D01*
X017626Y007832D02*
X017529Y007832D01*
X017529Y007734D02*
X017626Y007734D01*
X017626Y007635D02*
X017529Y007635D01*
X017529Y007537D02*
X017626Y007537D01*
X018893Y007635D02*
X019263Y007635D01*
X019186Y007734D02*
X018970Y007734D01*
X019011Y007832D02*
X019145Y007832D01*
X019133Y007931D02*
X019022Y007931D01*
X019022Y008029D02*
X019133Y008029D01*
X019170Y008128D02*
X018985Y008128D01*
X018929Y008226D02*
X019226Y008226D01*
X019325Y008325D02*
X018831Y008325D01*
X019831Y008325D02*
X020325Y008325D01*
X020226Y008226D02*
X019929Y008226D01*
X019985Y008128D02*
X020170Y008128D01*
X020133Y008029D02*
X020022Y008029D01*
X020022Y007931D02*
X020133Y007931D01*
X020145Y007832D02*
X020011Y007832D01*
X019970Y007734D02*
X020186Y007734D01*
X020263Y007635D02*
X019893Y007635D01*
X020893Y007635D02*
X021263Y007635D01*
X021186Y007734D02*
X020970Y007734D01*
X021011Y007832D02*
X021145Y007832D01*
X021133Y007931D02*
X021022Y007931D01*
X021022Y008029D02*
X021133Y008029D01*
X021170Y008128D02*
X020985Y008128D01*
X020929Y008226D02*
X021226Y008226D01*
X021325Y008325D02*
X020831Y008325D01*
X021831Y008325D02*
X022325Y008325D01*
X022226Y008226D02*
X021929Y008226D01*
X021985Y008128D02*
X022170Y008128D01*
X022133Y008029D02*
X022022Y008029D01*
X022022Y007931D02*
X022133Y007931D01*
X022145Y007832D02*
X022011Y007832D01*
X021970Y007734D02*
X022186Y007734D01*
X022263Y007635D02*
X021893Y007635D01*
X022893Y007635D02*
X023263Y007635D01*
X023186Y007734D02*
X022970Y007734D01*
X023011Y007832D02*
X023145Y007832D01*
X023133Y007931D02*
X023022Y007931D01*
X023022Y008029D02*
X023133Y008029D01*
X023170Y008128D02*
X022985Y008128D01*
X022929Y008226D02*
X023226Y008226D01*
X023325Y008325D02*
X022831Y008325D01*
X023831Y008325D02*
X024325Y008325D01*
X024226Y008226D02*
X023929Y008226D01*
X023985Y008128D02*
X024170Y008128D01*
X024133Y008029D02*
X024022Y008029D01*
X024022Y007931D02*
X024133Y007931D01*
X024145Y007832D02*
X024011Y007832D01*
X023970Y007734D02*
X024186Y007734D01*
X024263Y007635D02*
X023893Y007635D01*
X026476Y006650D02*
X028293Y006650D01*
X028391Y006552D02*
X026575Y006552D01*
X026515Y006611D02*
X026515Y006611D01*
X026673Y006453D02*
X026715Y006453D01*
X027314Y006453D02*
X028490Y006453D01*
X028588Y006355D02*
X027536Y006355D01*
X027635Y006256D02*
X028687Y006256D01*
X028785Y006158D02*
X027733Y006158D01*
X027800Y006059D02*
X028884Y006059D01*
X028982Y005961D02*
X027841Y005961D01*
X027882Y005862D02*
X028982Y005862D01*
X028949Y005764D02*
X027915Y005764D01*
X027915Y005665D02*
X028949Y005665D01*
X028949Y005567D02*
X027915Y005567D01*
X027915Y005468D02*
X028949Y005468D01*
X028971Y005370D02*
X027893Y005370D01*
X027852Y005271D02*
X029012Y005271D01*
X029053Y005173D02*
X027811Y005173D01*
X027760Y005074D02*
X029104Y005074D01*
X029203Y004976D02*
X027661Y004976D01*
X027563Y004877D02*
X029301Y004877D01*
X029485Y004779D02*
X027379Y004779D01*
X026650Y004779D02*
X024988Y004779D01*
X024955Y004697D02*
X025022Y004861D01*
X025022Y005038D01*
X024955Y005201D01*
X024830Y005326D01*
X024666Y005394D01*
X024489Y005394D01*
X024326Y005326D01*
X024201Y005201D01*
X024133Y005038D01*
X024133Y004861D01*
X024201Y004697D01*
X024326Y004572D01*
X024489Y004505D01*
X024666Y004505D01*
X024830Y004572D01*
X024955Y004697D01*
X024938Y004680D02*
X029489Y004680D01*
X029489Y004582D02*
X024839Y004582D01*
X024316Y004582D02*
X023839Y004582D01*
X023830Y004572D02*
X023955Y004697D01*
X024022Y004861D01*
X024022Y005038D01*
X023955Y005201D01*
X023830Y005326D01*
X023666Y005394D01*
X023489Y005394D01*
X023326Y005326D01*
X023201Y005201D01*
X023133Y005038D01*
X023133Y004861D01*
X023201Y004697D01*
X023326Y004572D01*
X023489Y004505D01*
X023666Y004505D01*
X023830Y004572D01*
X023938Y004680D02*
X024218Y004680D01*
X024167Y004779D02*
X023988Y004779D01*
X024022Y004877D02*
X024133Y004877D01*
X024133Y004976D02*
X024022Y004976D01*
X024007Y005074D02*
X024148Y005074D01*
X024189Y005173D02*
X023966Y005173D01*
X023884Y005271D02*
X024271Y005271D01*
X024432Y005370D02*
X023724Y005370D01*
X023432Y005370D02*
X022724Y005370D01*
X022666Y005394D02*
X022489Y005394D01*
X022326Y005326D01*
X022201Y005201D01*
X022133Y005038D01*
X022133Y004861D01*
X022201Y004697D01*
X022326Y004572D01*
X022489Y004505D01*
X022666Y004505D01*
X022830Y004572D01*
X022955Y004697D01*
X023022Y004861D01*
X023022Y005038D01*
X022955Y005201D01*
X022830Y005326D01*
X022666Y005394D01*
X022432Y005370D02*
X021724Y005370D01*
X021666Y005394D02*
X021489Y005394D01*
X021326Y005326D01*
X021201Y005201D01*
X021133Y005038D01*
X021133Y004861D01*
X021201Y004697D01*
X021326Y004572D01*
X021489Y004505D01*
X021666Y004505D01*
X021830Y004572D01*
X021955Y004697D01*
X022022Y004861D01*
X022022Y005038D01*
X021955Y005201D01*
X021830Y005326D01*
X021666Y005394D01*
X021432Y005370D02*
X020724Y005370D01*
X020666Y005394D02*
X020489Y005394D01*
X020326Y005326D01*
X020201Y005201D01*
X020133Y005038D01*
X020133Y004861D01*
X020201Y004697D01*
X020326Y004572D01*
X020489Y004505D01*
X020666Y004505D01*
X020830Y004572D01*
X020955Y004697D01*
X021022Y004861D01*
X021022Y005038D01*
X020955Y005201D01*
X020830Y005326D01*
X020666Y005394D01*
X020432Y005370D02*
X019724Y005370D01*
X019666Y005394D02*
X019830Y005326D01*
X019955Y005201D01*
X020022Y005038D01*
X020022Y004861D01*
X019955Y004697D01*
X019830Y004572D01*
X019666Y004505D01*
X019489Y004505D01*
X019326Y004572D01*
X019201Y004697D01*
X019133Y004861D01*
X019133Y005038D01*
X019201Y005201D01*
X019326Y005326D01*
X019489Y005394D01*
X019666Y005394D01*
X019432Y005370D02*
X018820Y005370D01*
X018832Y005364D02*
X018764Y005398D01*
X018691Y005422D01*
X018626Y005432D01*
X018626Y004998D01*
X019061Y004998D01*
X019050Y005063D01*
X019027Y005135D01*
X018992Y005203D01*
X018947Y005265D01*
X018893Y005319D01*
X018832Y005364D01*
X018941Y005271D02*
X019271Y005271D01*
X019189Y005173D02*
X019008Y005173D01*
X019047Y005074D02*
X019148Y005074D01*
X019133Y004976D02*
X018626Y004976D01*
X018529Y004976D02*
X018022Y004976D01*
X018022Y005038D02*
X017955Y005201D01*
X017830Y005326D01*
X017666Y005394D01*
X017489Y005394D01*
X017326Y005326D01*
X017201Y005201D01*
X017133Y005038D01*
X017133Y004861D01*
X017201Y004697D01*
X017326Y004572D01*
X017489Y004505D01*
X017666Y004505D01*
X017830Y004572D01*
X017955Y004697D01*
X018022Y004861D01*
X018022Y005038D01*
X018007Y005074D02*
X018109Y005074D01*
X018148Y005173D02*
X017966Y005173D01*
X017884Y005271D02*
X018215Y005271D01*
X018336Y005370D02*
X017724Y005370D01*
X017432Y005370D02*
X016748Y005370D01*
X016748Y005468D02*
X026114Y005468D01*
X026114Y005567D02*
X016748Y005567D01*
X016748Y005665D02*
X026114Y005665D01*
X026114Y005764D02*
X016748Y005764D01*
X016665Y005862D02*
X026148Y005862D01*
X026147Y005961D02*
X016567Y005961D01*
X016283Y005764D02*
X015444Y005764D01*
X015542Y005665D02*
X016381Y005665D01*
X016408Y005567D02*
X015641Y005567D01*
X015739Y005468D02*
X016408Y005468D01*
X016408Y005370D02*
X015748Y005370D01*
X015884Y005271D02*
X016271Y005271D01*
X016189Y005173D02*
X015966Y005173D01*
X016007Y005074D02*
X016148Y005074D01*
X016133Y004976D02*
X016022Y004976D01*
X016022Y004877D02*
X016133Y004877D01*
X016167Y004779D02*
X015988Y004779D01*
X015938Y004680D02*
X016218Y004680D01*
X016316Y004582D02*
X015839Y004582D01*
X015316Y004582D02*
X014839Y004582D01*
X014830Y004572D02*
X014955Y004697D01*
X015022Y004861D01*
X015022Y005038D01*
X014955Y005201D01*
X014830Y005326D01*
X014666Y005394D01*
X014489Y005394D01*
X014326Y005326D01*
X014201Y005201D01*
X014133Y005038D01*
X014133Y004861D01*
X014201Y004697D01*
X014326Y004572D01*
X014489Y004505D01*
X014666Y004505D01*
X014830Y004572D01*
X014938Y004680D02*
X015218Y004680D01*
X015167Y004779D02*
X014988Y004779D01*
X015022Y004877D02*
X015133Y004877D01*
X015133Y004976D02*
X015022Y004976D01*
X015007Y005074D02*
X015148Y005074D01*
X015189Y005173D02*
X014966Y005173D01*
X014884Y005271D02*
X015271Y005271D01*
X015357Y005370D02*
X014724Y005370D01*
X014432Y005370D02*
X013724Y005370D01*
X013884Y005271D02*
X014271Y005271D01*
X014189Y005173D02*
X013966Y005173D01*
X014007Y005074D02*
X014148Y005074D01*
X014133Y004976D02*
X014022Y004976D01*
X014022Y004877D02*
X014133Y004877D01*
X014167Y004779D02*
X013988Y004779D01*
X014087Y004680D02*
X014218Y004680D01*
X014185Y004582D02*
X014316Y004582D01*
X013902Y004385D02*
X013382Y004385D01*
X013284Y004483D02*
X013803Y004483D01*
X014000Y004286D02*
X013481Y004286D01*
X013099Y004188D02*
X012579Y004188D01*
X012481Y004286D02*
X013000Y004286D01*
X012902Y004385D02*
X012382Y004385D01*
X012284Y004483D02*
X012803Y004483D01*
X013185Y004582D02*
X013316Y004582D01*
X013218Y004680D02*
X013087Y004680D01*
X013167Y004779D02*
X012988Y004779D01*
X013022Y004877D02*
X013133Y004877D01*
X013133Y004976D02*
X013022Y004976D01*
X013007Y005074D02*
X013148Y005074D01*
X013189Y005173D02*
X012966Y005173D01*
X012884Y005271D02*
X013271Y005271D01*
X013432Y005370D02*
X012724Y005370D01*
X012432Y005370D02*
X011982Y005370D01*
X012022Y005271D02*
X012271Y005271D01*
X012189Y005173D02*
X012022Y005173D01*
X012022Y005074D02*
X012148Y005074D01*
X012133Y004976D02*
X012022Y004976D01*
X012022Y004877D02*
X012133Y004877D01*
X012167Y004779D02*
X012022Y004779D01*
X012087Y004680D02*
X012218Y004680D01*
X012185Y004582D02*
X012316Y004582D01*
X012678Y004089D02*
X013197Y004089D01*
X013296Y003991D02*
X012776Y003991D01*
X012875Y003892D02*
X013014Y003892D01*
X011297Y003892D02*
X011197Y003892D01*
X011197Y003794D02*
X011297Y003794D01*
X011297Y003695D02*
X011197Y003695D01*
X011197Y003597D02*
X011297Y003597D01*
X011297Y003498D02*
X011197Y003498D01*
X011197Y003400D02*
X011297Y003400D01*
X010797Y003104D02*
X010776Y003104D01*
X010776Y003006D02*
X010797Y003006D01*
X010798Y002907D02*
X010776Y002907D01*
X010776Y002809D02*
X010818Y002809D01*
X010803Y002710D02*
X010862Y002710D01*
X010618Y002415D02*
X010217Y002415D01*
X010227Y002410D02*
X010164Y002442D01*
X010097Y002464D01*
X010041Y002472D01*
X010041Y001775D01*
X010441Y001775D01*
X010441Y002060D01*
X010430Y002130D01*
X010408Y002198D01*
X010376Y002261D01*
X010334Y002318D01*
X010284Y002368D01*
X010227Y002410D01*
X010336Y002316D02*
X010703Y002316D01*
X010627Y002218D02*
X010398Y002218D01*
X010432Y002119D02*
X010587Y002119D01*
X010581Y002021D02*
X010441Y002021D01*
X010441Y001922D02*
X010581Y001922D01*
X010581Y001824D02*
X010441Y001824D01*
X010581Y001725D02*
X010041Y001725D01*
X010041Y001824D02*
X009941Y001824D01*
X009941Y001775D02*
X009941Y001675D01*
X009541Y001675D01*
X009541Y001389D01*
X009552Y001319D01*
X009574Y001252D01*
X009606Y001189D01*
X009648Y001132D01*
X009692Y001087D01*
X006722Y001087D01*
X006827Y001193D01*
X006889Y001343D01*
X006889Y001555D01*
X009108Y001555D01*
X009541Y001988D01*
X009541Y001775D01*
X009941Y001775D01*
X009941Y001725D02*
X009278Y001725D01*
X009180Y001627D02*
X009541Y001627D01*
X009541Y001528D02*
X006889Y001528D01*
X006889Y001430D02*
X009541Y001430D01*
X009550Y001331D02*
X006884Y001331D01*
X006844Y001233D02*
X009584Y001233D01*
X009646Y001134D02*
X006769Y001134D01*
X006190Y001134D02*
X005769Y001134D01*
X005844Y001233D02*
X006115Y001233D01*
X006074Y001331D02*
X005884Y001331D01*
X005889Y001430D02*
X006069Y001430D01*
X006069Y001528D02*
X005889Y001528D01*
X005889Y001627D02*
X006069Y001627D01*
X006069Y001725D02*
X005889Y001725D01*
X005889Y001824D02*
X006069Y001824D01*
X006069Y001922D02*
X005889Y001922D01*
X005889Y002021D02*
X006069Y002021D01*
X006075Y002119D02*
X005884Y002119D01*
X005843Y002218D02*
X006116Y002218D01*
X006191Y002316D02*
X005768Y002316D01*
X005609Y002415D02*
X006350Y002415D01*
X006609Y002415D02*
X006786Y002415D01*
X006776Y002445D02*
X006798Y002378D01*
X006829Y002316D01*
X006768Y002316D01*
X006829Y002316D02*
X006871Y002259D01*
X006921Y002209D01*
X006977Y002168D01*
X007040Y002136D01*
X007107Y002114D01*
X007163Y002105D01*
X007163Y002798D01*
X007260Y002798D01*
X007260Y002105D01*
X007316Y002114D01*
X007383Y002136D01*
X007446Y002168D01*
X007503Y002209D01*
X007552Y002259D01*
X007594Y002316D01*
X007626Y002378D01*
X007647Y002445D01*
X007658Y002515D01*
X007658Y002798D01*
X007260Y002798D01*
X007260Y002895D01*
X007658Y002895D01*
X007658Y003179D01*
X007647Y003248D01*
X007626Y003315D01*
X007594Y003378D01*
X007552Y003435D01*
X007503Y003485D01*
X007446Y003526D01*
X007383Y003558D01*
X007316Y003580D01*
X007260Y003588D01*
X007260Y002895D01*
X007163Y002895D01*
X007163Y002798D01*
X006765Y002798D01*
X006765Y002515D01*
X006776Y002445D01*
X006765Y002513D02*
X002086Y002513D01*
X002086Y002415D02*
X004254Y002415D01*
X004243Y002410D02*
X004186Y002368D01*
X004136Y002318D01*
X004094Y002261D01*
X004062Y002198D01*
X004040Y002130D01*
X004029Y002060D01*
X004029Y001775D01*
X004429Y001775D01*
X004429Y002472D01*
X004374Y002464D01*
X004307Y002442D01*
X004243Y002410D01*
X004135Y002316D02*
X002086Y002316D01*
X002086Y002218D02*
X004073Y002218D01*
X004039Y002119D02*
X002086Y002119D01*
X002086Y002021D02*
X004029Y002021D01*
X004029Y001922D02*
X002086Y001922D01*
X002086Y001824D02*
X004029Y001824D01*
X004029Y001627D02*
X002086Y001627D01*
X002086Y001725D02*
X004429Y001725D01*
X004429Y001824D02*
X004529Y001824D01*
X004529Y001775D02*
X004529Y002472D01*
X004585Y002464D01*
X004652Y002442D01*
X004715Y002410D01*
X004772Y002368D01*
X004823Y002318D01*
X004864Y002261D01*
X004896Y002198D01*
X004918Y002130D01*
X004929Y002060D01*
X004929Y001775D01*
X004529Y001775D01*
X004529Y001725D02*
X005069Y001725D01*
X005069Y001627D02*
X004929Y001627D01*
X004929Y001528D02*
X005069Y001528D01*
X005069Y001430D02*
X004929Y001430D01*
X004920Y001331D02*
X005074Y001331D01*
X005115Y001233D02*
X004887Y001233D01*
X004825Y001134D02*
X005190Y001134D01*
X004134Y001134D02*
X002086Y001134D01*
X002086Y001233D02*
X004072Y001233D01*
X004039Y001331D02*
X002086Y001331D01*
X002086Y001430D02*
X004029Y001430D01*
X004029Y001528D02*
X002086Y001528D01*
X004429Y001922D02*
X004529Y001922D01*
X004529Y002021D02*
X004429Y002021D01*
X004429Y002119D02*
X004529Y002119D01*
X004529Y002218D02*
X004429Y002218D01*
X004429Y002316D02*
X004529Y002316D01*
X004529Y002415D02*
X004429Y002415D01*
X004705Y002415D02*
X005350Y002415D01*
X005191Y002316D02*
X004824Y002316D01*
X004886Y002218D02*
X005116Y002218D01*
X005075Y002119D02*
X004920Y002119D01*
X004929Y002021D02*
X005069Y002021D01*
X005069Y001922D02*
X004929Y001922D01*
X004929Y001824D02*
X005069Y001824D01*
X006843Y002218D02*
X006912Y002218D01*
X006884Y002119D02*
X007091Y002119D01*
X007163Y002119D02*
X007260Y002119D01*
X007332Y002119D02*
X009191Y002119D01*
X009093Y002021D02*
X006889Y002021D01*
X006889Y001922D02*
X008994Y001922D01*
X009377Y001824D02*
X009541Y001824D01*
X009541Y001922D02*
X009475Y001922D01*
X009941Y001922D02*
X010041Y001922D01*
X010041Y002021D02*
X009941Y002021D01*
X009941Y002119D02*
X010041Y002119D01*
X010041Y002218D02*
X009941Y002218D01*
X009941Y002316D02*
X010041Y002316D01*
X010041Y002415D02*
X009968Y002415D01*
X009980Y002513D02*
X010520Y002513D01*
X008937Y002218D02*
X008439Y002218D01*
X008426Y002205D02*
X008541Y002320D01*
X008603Y002469D01*
X008603Y003225D01*
X008541Y003374D01*
X008426Y003489D01*
X008277Y003551D01*
X008115Y003551D01*
X007965Y003489D01*
X007851Y003374D01*
X007789Y003225D01*
X007789Y002469D01*
X007851Y002320D01*
X007965Y002205D01*
X008115Y002143D01*
X008277Y002143D01*
X008426Y002205D01*
X008538Y002316D02*
X008838Y002316D01*
X008796Y002415D02*
X008580Y002415D01*
X008603Y002513D02*
X008773Y002513D01*
X008773Y002612D02*
X008603Y002612D01*
X008603Y002710D02*
X008773Y002710D01*
X008773Y002809D02*
X008603Y002809D01*
X008603Y002907D02*
X008773Y002907D01*
X008773Y003006D02*
X008603Y003006D01*
X008603Y003104D02*
X008773Y003104D01*
X008773Y003203D02*
X008603Y003203D01*
X008571Y003301D02*
X008805Y003301D01*
X008861Y003400D02*
X008515Y003400D01*
X008403Y003498D02*
X008973Y003498D01*
X007989Y003498D02*
X007484Y003498D01*
X007578Y003400D02*
X007877Y003400D01*
X007821Y003301D02*
X007630Y003301D01*
X007655Y003203D02*
X007789Y003203D01*
X007789Y003104D02*
X007658Y003104D01*
X007658Y003006D02*
X007789Y003006D01*
X007789Y002907D02*
X007658Y002907D01*
X007789Y002809D02*
X007260Y002809D01*
X007163Y002809D02*
X002086Y002809D01*
X002086Y002907D02*
X006765Y002907D01*
X006765Y002895D02*
X007163Y002895D01*
X007163Y003588D01*
X007107Y003580D01*
X007040Y003558D01*
X006977Y003526D01*
X006921Y003485D01*
X006871Y003435D01*
X006829Y003378D01*
X006798Y003315D01*
X006776Y003248D01*
X006765Y003179D01*
X006765Y002895D01*
X006765Y003006D02*
X002086Y003006D01*
X002086Y003104D02*
X006765Y003104D01*
X006769Y003203D02*
X002086Y003203D01*
X002086Y003301D02*
X006793Y003301D01*
X006845Y003400D02*
X002086Y003400D01*
X002086Y003498D02*
X006940Y003498D01*
X007163Y003498D02*
X007260Y003498D01*
X007260Y003400D02*
X007163Y003400D01*
X007163Y003301D02*
X007260Y003301D01*
X007260Y003203D02*
X007163Y003203D01*
X007163Y003104D02*
X007260Y003104D01*
X007260Y003006D02*
X007163Y003006D01*
X007163Y002907D02*
X007260Y002907D01*
X007260Y002710D02*
X007163Y002710D01*
X007163Y002612D02*
X007260Y002612D01*
X007260Y002513D02*
X007163Y002513D01*
X007163Y002415D02*
X007260Y002415D01*
X007260Y002316D02*
X007163Y002316D01*
X007163Y002218D02*
X007260Y002218D01*
X007511Y002218D02*
X007953Y002218D01*
X007854Y002316D02*
X007594Y002316D01*
X007638Y002415D02*
X007811Y002415D01*
X007789Y002513D02*
X007658Y002513D01*
X007658Y002612D02*
X007789Y002612D01*
X007789Y002710D02*
X007658Y002710D01*
X006765Y002710D02*
X002086Y002710D01*
X002086Y002612D02*
X006765Y002612D01*
X010441Y001627D02*
X010581Y001627D01*
X010581Y001528D02*
X010441Y001528D01*
X010441Y001430D02*
X010581Y001430D01*
X010586Y001331D02*
X010432Y001331D01*
X010398Y001233D02*
X010627Y001233D01*
X010702Y001134D02*
X010336Y001134D01*
X012197Y002612D02*
X012297Y002612D01*
X012297Y002710D02*
X012197Y002710D01*
X012197Y002809D02*
X012297Y002809D01*
X012297Y002907D02*
X012197Y002907D01*
X012197Y003006D02*
X012297Y003006D01*
X012297Y003104D02*
X012197Y003104D01*
X012549Y002612D02*
X012580Y002612D01*
X015417Y002513D02*
X026165Y002513D01*
X026154Y002415D02*
X024570Y002415D01*
X024563Y002422D02*
X024223Y002422D01*
X023983Y002182D01*
X023983Y001842D01*
X024223Y001602D01*
X024563Y001602D01*
X024803Y001842D01*
X024803Y002182D01*
X024563Y002422D01*
X024579Y002562D02*
X024843Y002826D01*
X024843Y002962D01*
X024443Y002962D01*
X024443Y003062D01*
X024843Y003062D01*
X024843Y003199D01*
X024579Y003462D01*
X024443Y003462D01*
X024443Y003062D01*
X024343Y003062D01*
X024343Y002962D01*
X024443Y002962D01*
X024443Y002562D01*
X024579Y002562D01*
X024629Y002612D02*
X026203Y002612D01*
X026271Y002710D02*
X024727Y002710D01*
X024826Y002809D02*
X026401Y002809D01*
X026554Y002809D02*
X026654Y002809D01*
X026654Y002710D02*
X026554Y002710D01*
X026554Y002612D02*
X026654Y002612D01*
X026654Y002513D02*
X026554Y002513D01*
X026554Y002415D02*
X026654Y002415D01*
X026654Y002316D02*
X026554Y002316D01*
X026554Y002218D02*
X026654Y002218D01*
X026654Y002119D02*
X027194Y002119D01*
X027194Y002021D02*
X027054Y002021D01*
X027054Y001922D02*
X027194Y001922D01*
X027194Y001824D02*
X027054Y001824D01*
X027194Y001725D02*
X027256Y001575D01*
X027303Y001528D02*
X026958Y001528D01*
X026850Y001430D02*
X027443Y001430D01*
X026654Y001430D02*
X026554Y001430D01*
X026554Y001359D02*
X026554Y002057D01*
X026154Y002057D01*
X026154Y001772D01*
X026165Y001702D01*
X026187Y001634D01*
X026219Y001571D01*
X026261Y001514D01*
X026311Y001464D01*
X026368Y001422D01*
X026431Y001390D01*
X026498Y001368D01*
X026554Y001359D01*
X026554Y001528D02*
X026654Y001528D01*
X026654Y001627D02*
X026554Y001627D01*
X026554Y001725D02*
X026654Y001725D01*
X026654Y001824D02*
X026554Y001824D01*
X026554Y001922D02*
X026654Y001922D01*
X026654Y002021D02*
X026554Y002021D01*
X026554Y002119D02*
X024803Y002119D01*
X024803Y002021D02*
X026154Y002021D01*
X026154Y001922D02*
X024803Y001922D01*
X024784Y001824D02*
X026154Y001824D01*
X026161Y001725D02*
X024686Y001725D01*
X024587Y001627D02*
X026191Y001627D01*
X026250Y001528D02*
X020987Y001528D01*
X020987Y001430D02*
X026357Y001430D01*
X026154Y002218D02*
X024767Y002218D01*
X024668Y002316D02*
X026154Y002316D01*
X027054Y002316D02*
X027194Y002316D01*
X027194Y002218D02*
X027054Y002218D01*
X027054Y002415D02*
X027194Y002415D01*
X027204Y002513D02*
X027042Y002513D01*
X027004Y002612D02*
X027245Y002612D01*
X027327Y002710D02*
X026937Y002710D01*
X026806Y002809D02*
X027503Y002809D01*
X027705Y002809D02*
X027797Y002809D01*
X027895Y002907D02*
X024843Y002907D01*
X024443Y002907D02*
X024343Y002907D01*
X024343Y002962D02*
X024343Y002562D01*
X024206Y002562D01*
X023943Y002826D01*
X023943Y002962D01*
X024343Y002962D01*
X024343Y003006D02*
X023803Y003006D01*
X023803Y003104D02*
X023943Y003104D01*
X023943Y003062D02*
X024343Y003062D01*
X024343Y003462D01*
X024206Y003462D01*
X023943Y003199D01*
X023943Y003062D01*
X023947Y003203D02*
X023782Y003203D01*
X023803Y003182D02*
X023563Y003422D01*
X023223Y003422D01*
X022983Y003182D01*
X022983Y002842D01*
X023223Y002602D01*
X023563Y002602D01*
X023803Y002842D01*
X023803Y003182D01*
X023683Y003301D02*
X024046Y003301D01*
X024144Y003400D02*
X023585Y003400D01*
X023201Y003400D02*
X022585Y003400D01*
X022683Y003301D02*
X023102Y003301D01*
X023004Y003203D02*
X022782Y003203D01*
X022803Y003104D02*
X022983Y003104D01*
X022983Y003006D02*
X022803Y003006D01*
X022803Y002907D02*
X022983Y002907D01*
X023016Y002809D02*
X022769Y002809D01*
X022671Y002710D02*
X023115Y002710D01*
X023213Y002612D02*
X022572Y002612D01*
X022563Y002422D02*
X022223Y002422D01*
X021983Y002182D01*
X021983Y001842D01*
X022223Y001602D01*
X022563Y001602D01*
X022803Y001842D01*
X022803Y002182D01*
X022563Y002422D01*
X022570Y002415D02*
X023216Y002415D01*
X023223Y002422D02*
X022983Y002182D01*
X022983Y001842D01*
X023223Y001602D01*
X023563Y001602D01*
X023803Y001842D01*
X023803Y002182D01*
X023563Y002422D01*
X023223Y002422D01*
X023117Y002316D02*
X022668Y002316D01*
X022767Y002218D02*
X023019Y002218D01*
X022983Y002119D02*
X022803Y002119D01*
X022803Y002021D02*
X022983Y002021D01*
X022983Y001922D02*
X022803Y001922D01*
X022784Y001824D02*
X023001Y001824D01*
X023100Y001725D02*
X022686Y001725D01*
X022587Y001627D02*
X023198Y001627D01*
X023587Y001627D02*
X024198Y001627D01*
X024100Y001725D02*
X023686Y001725D01*
X023784Y001824D02*
X024001Y001824D01*
X023983Y001922D02*
X023803Y001922D01*
X023803Y002021D02*
X023983Y002021D01*
X023983Y002119D02*
X023803Y002119D01*
X023767Y002218D02*
X024019Y002218D01*
X024117Y002316D02*
X023668Y002316D01*
X023570Y002415D02*
X024216Y002415D01*
X024157Y002612D02*
X023572Y002612D01*
X023671Y002710D02*
X024058Y002710D01*
X023960Y002809D02*
X023769Y002809D01*
X023803Y002907D02*
X023943Y002907D01*
X024343Y002809D02*
X024443Y002809D01*
X024443Y002710D02*
X024343Y002710D01*
X024343Y002612D02*
X024443Y002612D01*
X024443Y003006D02*
X027994Y003006D01*
X028092Y003104D02*
X024843Y003104D01*
X024838Y003203D02*
X028191Y003203D01*
X028289Y003301D02*
X024740Y003301D01*
X024641Y003400D02*
X028388Y003400D01*
X028486Y003498D02*
X020987Y003498D01*
X020987Y003400D02*
X022201Y003400D01*
X022102Y003301D02*
X020968Y003301D01*
X020870Y003203D02*
X022004Y003203D01*
X022016Y002809D02*
X016634Y002809D01*
X016657Y002907D02*
X018943Y002907D01*
X018845Y003006D02*
X016657Y003006D01*
X016657Y003104D02*
X017463Y003104D01*
X017365Y003203D02*
X016657Y003203D01*
X016657Y003301D02*
X017266Y003301D01*
X017771Y003104D02*
X018463Y003104D01*
X018365Y003203D02*
X017870Y003203D01*
X017968Y003301D02*
X018266Y003301D01*
X018247Y003400D02*
X017987Y003400D01*
X017987Y003498D02*
X018247Y003498D01*
X018247Y003597D02*
X017987Y003597D01*
X017919Y003695D02*
X018316Y003695D01*
X018414Y003794D02*
X017820Y003794D01*
X017414Y003794D02*
X016579Y003794D01*
X016629Y003695D02*
X017316Y003695D01*
X016480Y003892D02*
X018958Y003892D01*
X019057Y003794D02*
X018820Y003794D01*
X018919Y003695D02*
X019155Y003695D01*
X019247Y003597D02*
X018987Y003597D01*
X018987Y003498D02*
X019247Y003498D01*
X019247Y003400D02*
X018987Y003400D01*
X019030Y003301D02*
X019266Y003301D01*
X019365Y003203D02*
X019128Y003203D01*
X020439Y003892D02*
X028880Y003892D01*
X028782Y003794D02*
X020820Y003794D01*
X020919Y003695D02*
X028683Y003695D01*
X028585Y003597D02*
X020987Y003597D01*
X020340Y003991D02*
X028979Y003991D01*
X029077Y004089D02*
X020242Y004089D01*
X020143Y004188D02*
X029176Y004188D01*
X029274Y004286D02*
X020045Y004286D01*
X019946Y004385D02*
X029373Y004385D01*
X029471Y004483D02*
X019848Y004483D01*
X019839Y004582D02*
X020316Y004582D01*
X020218Y004680D02*
X019938Y004680D01*
X019988Y004779D02*
X020167Y004779D01*
X020133Y004877D02*
X020022Y004877D01*
X020022Y004976D02*
X020133Y004976D01*
X020148Y005074D02*
X020007Y005074D01*
X019966Y005173D02*
X020189Y005173D01*
X020271Y005271D02*
X019884Y005271D01*
X019133Y004877D02*
X019057Y004877D01*
X019032Y004779D02*
X019167Y004779D01*
X019218Y004680D02*
X018982Y004680D01*
X018896Y004582D02*
X019316Y004582D01*
X018260Y004582D02*
X017839Y004582D01*
X017938Y004680D02*
X018174Y004680D01*
X018124Y004779D02*
X017988Y004779D01*
X018022Y004877D02*
X018098Y004877D01*
X018529Y005074D02*
X018626Y005074D01*
X018626Y005173D02*
X018529Y005173D01*
X018529Y005271D02*
X018626Y005271D01*
X018626Y005370D02*
X018529Y005370D01*
X017271Y005271D02*
X016884Y005271D01*
X016966Y005173D02*
X017189Y005173D01*
X017148Y005074D02*
X017007Y005074D01*
X017022Y004976D02*
X017133Y004976D01*
X017133Y004877D02*
X017022Y004877D01*
X016988Y004779D02*
X017167Y004779D01*
X017218Y004680D02*
X016938Y004680D01*
X016839Y004582D02*
X017316Y004582D01*
X016014Y003892D02*
X015480Y003892D01*
X015579Y003794D02*
X015915Y003794D01*
X015865Y003695D02*
X015629Y003695D01*
X015657Y003597D02*
X015837Y003597D01*
X015837Y003498D02*
X015657Y003498D01*
X015657Y003400D02*
X015837Y003400D01*
X015837Y003301D02*
X015657Y003301D01*
X015657Y003203D02*
X015837Y003203D01*
X015837Y003104D02*
X015657Y003104D01*
X015657Y003006D02*
X015837Y003006D01*
X015837Y002907D02*
X015657Y002907D01*
X015634Y002809D02*
X015860Y002809D01*
X015903Y002710D02*
X015591Y002710D01*
X015493Y002612D02*
X016001Y002612D01*
X016493Y002612D02*
X022213Y002612D01*
X022115Y002710D02*
X016591Y002710D01*
X017118Y002316D02*
X015417Y002316D01*
X015417Y002415D02*
X022216Y002415D01*
X022117Y002316D02*
X020015Y002316D01*
X020113Y002218D02*
X022019Y002218D01*
X021983Y002119D02*
X020212Y002119D01*
X020310Y002021D02*
X021983Y002021D01*
X021983Y001922D02*
X020409Y001922D01*
X020790Y001824D02*
X022001Y001824D01*
X022100Y001725D02*
X020889Y001725D01*
X020987Y001627D02*
X022198Y001627D01*
X024343Y003104D02*
X024443Y003104D01*
X024443Y003203D02*
X024343Y003203D01*
X024343Y003301D02*
X024443Y003301D01*
X024443Y003400D02*
X024343Y003400D01*
X023316Y004582D02*
X022839Y004582D01*
X022938Y004680D02*
X023218Y004680D01*
X023167Y004779D02*
X022988Y004779D01*
X023022Y004877D02*
X023133Y004877D01*
X023133Y004976D02*
X023022Y004976D01*
X023007Y005074D02*
X023148Y005074D01*
X023189Y005173D02*
X022966Y005173D01*
X022884Y005271D02*
X023271Y005271D01*
X022271Y005271D02*
X021884Y005271D01*
X021966Y005173D02*
X022189Y005173D01*
X022148Y005074D02*
X022007Y005074D01*
X022022Y004976D02*
X022133Y004976D01*
X022133Y004877D02*
X022022Y004877D01*
X021988Y004779D02*
X022167Y004779D01*
X022218Y004680D02*
X021938Y004680D01*
X021839Y004582D02*
X022316Y004582D01*
X021316Y004582D02*
X020839Y004582D01*
X020938Y004680D02*
X021218Y004680D01*
X021167Y004779D02*
X020988Y004779D01*
X021022Y004877D02*
X021133Y004877D01*
X021133Y004976D02*
X021022Y004976D01*
X021007Y005074D02*
X021148Y005074D01*
X021189Y005173D02*
X020966Y005173D01*
X020884Y005271D02*
X021271Y005271D01*
X024724Y005370D02*
X026136Y005370D01*
X026177Y005271D02*
X024884Y005271D01*
X024966Y005173D02*
X026218Y005173D01*
X026270Y005074D02*
X025007Y005074D01*
X025022Y004976D02*
X026368Y004976D01*
X026467Y004877D02*
X025022Y004877D01*
X029508Y006453D02*
X029550Y006453D01*
X029409Y006552D02*
X030558Y006552D01*
X030460Y006453D02*
X030149Y006453D01*
X030657Y006650D02*
X029311Y006650D01*
X029212Y006749D02*
X030755Y006749D01*
X030854Y006847D02*
X029114Y006847D01*
X029015Y006946D02*
X030952Y006946D01*
X031051Y007044D02*
X028917Y007044D01*
X028818Y007143D02*
X031149Y007143D01*
X031248Y007241D02*
X028720Y007241D01*
X028621Y007340D02*
X031346Y007340D01*
X031445Y007438D02*
X011158Y007438D01*
X011059Y007537D02*
X011411Y007537D01*
X011263Y007635D02*
X010961Y007635D01*
X010818Y007734D02*
X011186Y007734D01*
X010632Y006946D02*
X010483Y006946D01*
X010629Y006847D02*
X010731Y006847D01*
X009376Y006158D02*
X007016Y006158D01*
X006981Y006193D02*
X006900Y006255D01*
X006811Y006307D01*
X006716Y006346D01*
X006617Y006372D01*
X006515Y006386D01*
X006514Y006386D01*
X006514Y005653D01*
X007247Y005653D01*
X007247Y005654D01*
X007233Y005756D01*
X007207Y005855D01*
X007167Y005950D01*
X007116Y006039D01*
X007054Y006120D01*
X006981Y006193D01*
X006898Y006256D02*
X007196Y006256D01*
X007033Y006355D02*
X006682Y006355D01*
X006514Y006355D02*
X006414Y006355D01*
X006414Y006386D02*
X006412Y006386D01*
X006310Y006372D01*
X006211Y006346D01*
X006116Y006307D01*
X006028Y006255D01*
X005946Y006193D01*
X005874Y006120D01*
X005811Y006039D01*
X005760Y005950D01*
X005720Y005855D01*
X005694Y005756D01*
X005681Y005654D01*
X005681Y005653D01*
X006414Y005653D01*
X006414Y006386D01*
X006414Y006256D02*
X006514Y006256D01*
X006514Y006158D02*
X006414Y006158D01*
X006414Y006059D02*
X006514Y006059D01*
X006514Y005961D02*
X006414Y005961D01*
X006414Y005862D02*
X006514Y005862D01*
X006514Y005764D02*
X006414Y005764D01*
X006414Y005665D02*
X006514Y005665D01*
X006514Y005653D02*
X006414Y005653D01*
X006414Y005553D01*
X006514Y005553D01*
X006514Y005653D01*
X006514Y005567D02*
X009878Y005567D01*
X009878Y005468D02*
X009978Y005468D01*
X009978Y005370D02*
X009878Y005370D01*
X009878Y005271D02*
X009978Y005271D01*
X009978Y005173D02*
X009878Y005173D01*
X009878Y005074D02*
X009978Y005074D01*
X009978Y004976D02*
X009878Y004976D01*
X009878Y004877D02*
X009978Y004877D01*
X009951Y004779D02*
X005190Y004779D01*
X005247Y004877D02*
X006168Y004877D01*
X006211Y004860D02*
X006310Y004833D01*
X006412Y004820D01*
X006414Y004820D01*
X006414Y005553D01*
X005681Y005553D01*
X005681Y005551D01*
X005694Y005450D01*
X005720Y005351D01*
X005760Y005256D01*
X005811Y005167D01*
X005874Y005085D01*
X005946Y005013D01*
X006028Y004950D01*
X006116Y004899D01*
X006211Y004860D01*
X006414Y004877D02*
X006514Y004877D01*
X006514Y004820D02*
X006515Y004820D01*
X006617Y004833D01*
X006716Y004860D01*
X006811Y004899D01*
X006900Y004950D01*
X006981Y005013D01*
X007054Y005085D01*
X007116Y005167D01*
X007167Y005256D01*
X007207Y005351D01*
X007233Y005450D01*
X007247Y005551D01*
X007247Y005553D01*
X006514Y005553D01*
X006514Y004820D01*
X006514Y004976D02*
X006414Y004976D01*
X006414Y005074D02*
X006514Y005074D01*
X006514Y005173D02*
X006414Y005173D01*
X006414Y005271D02*
X006514Y005271D01*
X006514Y005370D02*
X006414Y005370D01*
X006414Y005468D02*
X006514Y005468D01*
X006414Y005567D02*
X005383Y005567D01*
X005389Y005468D02*
X005691Y005468D01*
X005715Y005370D02*
X005389Y005370D01*
X005389Y005271D02*
X005753Y005271D01*
X005808Y005173D02*
X005363Y005173D01*
X005337Y005074D02*
X005884Y005074D01*
X005994Y004976D02*
X005303Y004976D01*
X005100Y004680D02*
X009852Y004680D01*
X009754Y004582D02*
X005001Y004582D01*
X004846Y004483D02*
X009655Y004483D01*
X009633Y004877D02*
X006759Y004877D01*
X006933Y004976D02*
X009459Y004976D01*
X009349Y005074D02*
X007043Y005074D01*
X007120Y005173D02*
X009272Y005173D01*
X009218Y005271D02*
X007174Y005271D01*
X007212Y005370D02*
X009180Y005370D01*
X009156Y005468D02*
X007236Y005468D01*
X007245Y005665D02*
X009147Y005665D01*
X009161Y005764D02*
X007231Y005764D01*
X007204Y005862D02*
X009188Y005862D01*
X009231Y005961D02*
X007161Y005961D01*
X007100Y006059D02*
X009292Y006059D01*
X009978Y005567D02*
X010739Y005567D01*
X010710Y005665D02*
X010837Y005665D01*
X010936Y005764D02*
X010696Y005764D01*
X010668Y005862D02*
X011034Y005862D01*
X011133Y005961D02*
X010626Y005961D01*
X011451Y005468D02*
X015258Y005468D01*
X015159Y005567D02*
X011550Y005567D01*
X007531Y007044D02*
X007362Y007044D01*
X007365Y007143D02*
X007263Y007143D01*
X007267Y007241D02*
X007165Y007241D01*
X007168Y007340D02*
X007066Y007340D01*
X007070Y007438D02*
X006968Y007438D01*
X006971Y007537D02*
X006869Y007537D01*
X006541Y006847D02*
X006497Y006847D01*
X006440Y006749D02*
X006639Y006749D01*
X006738Y006650D02*
X006383Y006650D01*
X006302Y006552D02*
X006836Y006552D01*
X006935Y006453D02*
X006204Y006453D01*
X006245Y006355D02*
X006063Y006355D01*
X006030Y006256D02*
X005859Y006256D01*
X005911Y006158D02*
X005073Y006158D01*
X005171Y006256D02*
X004970Y006256D01*
X004966Y006355D02*
X004800Y006355D01*
X004826Y006453D02*
X004500Y006453D01*
X004727Y006552D02*
X004031Y006552D01*
X004104Y006650D02*
X004646Y006650D01*
X004590Y006749D02*
X004163Y006749D01*
X004209Y006847D02*
X004533Y006847D01*
X004506Y006946D02*
X004243Y006946D01*
X004267Y007044D02*
X004479Y007044D01*
X004460Y007143D02*
X004281Y007143D01*
X004167Y006453D02*
X003937Y006453D01*
X003868Y006355D02*
X003815Y006355D01*
X003697Y006256D02*
X003639Y006256D01*
X003594Y006158D02*
X002086Y006158D01*
X002086Y006256D02*
X002745Y006256D01*
X002569Y006355D02*
X002086Y006355D01*
X002086Y006453D02*
X002446Y006453D01*
X002353Y006552D02*
X002086Y006552D01*
X002086Y006650D02*
X002280Y006650D01*
X002221Y006749D02*
X002086Y006749D01*
X002086Y006847D02*
X002175Y006847D01*
X002141Y006946D02*
X002086Y006946D01*
X002086Y007044D02*
X002117Y007044D01*
X002103Y007143D02*
X002086Y007143D01*
X005172Y006059D02*
X005827Y006059D01*
X005766Y005961D02*
X005231Y005961D01*
X005288Y005862D02*
X005724Y005862D01*
X005696Y005764D02*
X005330Y005764D01*
X005356Y005665D02*
X005682Y005665D01*
X007595Y008325D02*
X007976Y008325D01*
X007999Y008308D02*
X008062Y008275D01*
X008130Y008254D01*
X008185Y008245D01*
X008185Y008943D01*
X007785Y008943D01*
X007785Y008657D01*
X007796Y008587D01*
X007818Y008520D01*
X007850Y008457D01*
X007892Y008399D01*
X007942Y008349D01*
X007999Y008308D01*
X007875Y008423D02*
X007595Y008423D01*
X007608Y008522D02*
X007818Y008522D01*
X007791Y008620D02*
X007645Y008620D01*
X007645Y008719D02*
X007785Y008719D01*
X007785Y008817D02*
X007645Y008817D01*
X007645Y008916D02*
X007785Y008916D01*
X007785Y009043D02*
X008185Y009043D01*
X008185Y009740D01*
X008130Y009731D01*
X008062Y009710D01*
X007999Y009677D01*
X007942Y009636D01*
X007892Y009586D01*
X007850Y009528D01*
X007818Y009465D01*
X007796Y009398D01*
X007785Y009328D01*
X007785Y009043D01*
X007785Y009113D02*
X007645Y009113D01*
X007645Y009211D02*
X007785Y009211D01*
X007785Y009310D02*
X007645Y009310D01*
X007631Y009408D02*
X007800Y009408D01*
X007839Y009507D02*
X007590Y009507D01*
X007502Y009605D02*
X007912Y009605D01*
X008051Y009704D02*
X007033Y009704D01*
X006934Y009802D02*
X010459Y009802D01*
X010375Y009704D02*
X008419Y009704D01*
X008408Y009710D02*
X008341Y009731D01*
X008285Y009740D01*
X008285Y009043D01*
X008185Y009043D01*
X008185Y008943D01*
X008285Y008943D01*
X008285Y009043D01*
X008685Y009043D01*
X008685Y009328D01*
X008674Y009398D01*
X008652Y009465D01*
X008620Y009528D01*
X008578Y009586D01*
X008528Y009636D01*
X008471Y009677D01*
X008408Y009710D01*
X008285Y009704D02*
X008185Y009704D01*
X008185Y009605D02*
X008285Y009605D01*
X008285Y009507D02*
X008185Y009507D01*
X008185Y009408D02*
X008285Y009408D01*
X008285Y009310D02*
X008185Y009310D01*
X008185Y009211D02*
X008285Y009211D01*
X008285Y009113D02*
X008185Y009113D01*
X008185Y009014D02*
X007645Y009014D01*
X008185Y008916D02*
X008285Y008916D01*
X008285Y008943D02*
X008285Y008245D01*
X008341Y008254D01*
X008408Y008275D01*
X008471Y008308D01*
X008528Y008349D01*
X008578Y008399D01*
X008620Y008457D01*
X008652Y008520D01*
X008674Y008587D01*
X008685Y008657D01*
X008685Y008943D01*
X008285Y008943D01*
X008285Y009014D02*
X008825Y009014D01*
X008825Y008916D02*
X008685Y008916D01*
X008685Y008817D02*
X008825Y008817D01*
X008825Y008719D02*
X008685Y008719D01*
X008679Y008620D02*
X008825Y008620D01*
X008862Y008522D02*
X008653Y008522D01*
X008596Y008423D02*
X008925Y008423D01*
X009051Y008325D02*
X008495Y008325D01*
X008285Y008325D02*
X008185Y008325D01*
X008185Y008423D02*
X008285Y008423D01*
X008285Y008522D02*
X008185Y008522D01*
X008185Y008620D02*
X008285Y008620D01*
X008285Y008719D02*
X008185Y008719D01*
X008185Y008817D02*
X008285Y008817D01*
X008685Y009113D02*
X008825Y009113D01*
X008825Y009211D02*
X008685Y009211D01*
X008685Y009310D02*
X008825Y009310D01*
X008839Y009408D02*
X008671Y009408D01*
X008631Y009507D02*
X008880Y009507D01*
X008968Y009605D02*
X008559Y009605D01*
X009502Y009605D02*
X010276Y009605D01*
X010178Y009507D02*
X009590Y009507D01*
X009631Y009408D02*
X010079Y009408D01*
X011098Y009802D02*
X012402Y009802D01*
X012369Y009704D02*
X011149Y009704D01*
X011000Y009901D02*
X012501Y009901D01*
X012599Y009999D02*
X002690Y009999D01*
X002681Y010009D02*
X002541Y010009D01*
X002541Y009629D01*
X002921Y009629D01*
X002921Y009769D01*
X002681Y010009D01*
X002541Y009999D02*
X002481Y009999D01*
X002481Y010009D02*
X002341Y010009D01*
X002101Y009769D01*
X002101Y009629D01*
X002481Y009629D01*
X002481Y010009D01*
X002481Y009901D02*
X002541Y009901D01*
X002541Y009802D02*
X002481Y009802D01*
X002481Y009704D02*
X002541Y009704D01*
X002541Y009629D02*
X002481Y009629D01*
X002481Y009569D01*
X002541Y009569D01*
X002541Y009629D01*
X002541Y009605D02*
X004141Y009605D01*
X004141Y009507D02*
X002921Y009507D01*
X002921Y009569D02*
X002921Y009429D01*
X002681Y009189D01*
X002541Y009189D01*
X002541Y009569D01*
X002921Y009569D01*
X002921Y009704D02*
X004141Y009704D01*
X004191Y009802D02*
X002887Y009802D01*
X002789Y009901D02*
X004290Y009901D01*
X004178Y009408D02*
X002900Y009408D01*
X002802Y009310D02*
X004276Y009310D01*
X002703Y009211D02*
X006507Y009211D01*
X006606Y009113D02*
X002086Y009113D01*
X002086Y009211D02*
X002318Y009211D01*
X002341Y009189D02*
X002481Y009189D01*
X002481Y009569D01*
X002101Y009569D01*
X002101Y009429D01*
X002341Y009189D01*
X002481Y009211D02*
X002541Y009211D01*
X002541Y009310D02*
X002481Y009310D01*
X002481Y009408D02*
X002541Y009408D01*
X002541Y009507D02*
X002481Y009507D01*
X002481Y009605D02*
X002086Y009605D01*
X002086Y009507D02*
X002101Y009507D01*
X002086Y009408D02*
X002121Y009408D01*
X002086Y009310D02*
X002220Y009310D01*
X002086Y009014D02*
X006704Y009014D01*
X006803Y008916D02*
X002086Y008916D01*
X002086Y008817D02*
X006825Y008817D01*
X006825Y008719D02*
X002086Y008719D01*
X002086Y008620D02*
X006825Y008620D01*
X006862Y008522D02*
X002086Y008522D01*
X002086Y009704D02*
X002101Y009704D01*
X002086Y009802D02*
X002135Y009802D01*
X002086Y009901D02*
X002233Y009901D01*
X002332Y009999D02*
X002086Y009999D01*
X002086Y010098D02*
X017792Y010098D01*
X017696Y009999D02*
X012958Y009999D01*
X013056Y009901D02*
X017648Y009901D01*
X018212Y010098D02*
X021874Y010098D01*
X021742Y009999D02*
X018309Y009999D01*
X018357Y009901D02*
X021691Y009901D01*
X022130Y010098D02*
X023414Y010098D01*
X023316Y009999D02*
X022262Y009999D01*
X022314Y009901D02*
X023243Y009901D01*
X023243Y009802D02*
X022330Y009802D01*
X022319Y009704D02*
X023243Y009704D01*
X023243Y009726D02*
X023243Y009586D01*
X023483Y009346D01*
X023623Y009346D01*
X023623Y009726D01*
X023243Y009726D01*
X023243Y009605D02*
X022276Y009605D01*
X022162Y009507D02*
X023322Y009507D01*
X023421Y009408D02*
X013168Y009408D01*
X013189Y009507D02*
X017772Y009507D01*
X013069Y009310D02*
X023470Y009310D01*
X023372Y009211D02*
X012971Y009211D01*
X012809Y009211D02*
X012749Y009211D01*
X012749Y009310D02*
X012809Y009310D01*
X012809Y009408D02*
X012749Y009408D01*
X012749Y009507D02*
X012809Y009507D01*
X012809Y009704D02*
X012749Y009704D01*
X012749Y009802D02*
X012809Y009802D01*
X012809Y009901D02*
X012749Y009901D01*
X012749Y009999D02*
X012809Y009999D01*
X010557Y009901D02*
X006836Y009901D01*
X023623Y009704D02*
X023683Y009704D01*
X023683Y009605D02*
X023623Y009605D01*
X023623Y009507D02*
X023683Y009507D01*
X023683Y009408D02*
X023623Y009408D01*
X025828Y009408D02*
X028675Y009408D01*
X028625Y009310D02*
X025835Y009310D01*
X025933Y009211D02*
X028625Y009211D01*
X028625Y009113D02*
X026023Y009113D01*
X026023Y009014D02*
X028663Y009014D01*
X028761Y008916D02*
X026023Y008916D01*
X029229Y008916D02*
X029761Y008916D01*
X029663Y009014D02*
X029328Y009014D01*
X029365Y009113D02*
X029625Y009113D01*
X029625Y009211D02*
X029365Y009211D01*
X029365Y009310D02*
X029625Y009310D01*
X029675Y009408D02*
X029315Y009408D01*
X030940Y006453D02*
X032384Y006453D01*
X032163Y006355D02*
X030842Y006355D01*
X030743Y006256D02*
X032064Y006256D01*
X031966Y006158D02*
X030645Y006158D01*
X030635Y006059D02*
X031898Y006059D01*
X031858Y005961D02*
X030676Y005961D01*
X030717Y005862D02*
X031817Y005862D01*
X031784Y005764D02*
X030750Y005764D01*
X030750Y005665D02*
X031784Y005665D01*
X031784Y005567D02*
X030750Y005567D01*
X030750Y005468D02*
X031784Y005468D01*
X031806Y005370D02*
X030728Y005370D01*
X030687Y005271D02*
X031847Y005271D01*
X031887Y005173D02*
X030646Y005173D01*
X030595Y005074D02*
X031939Y005074D01*
X032037Y004976D02*
X030496Y004976D01*
X030398Y004877D02*
X032136Y004877D01*
X032320Y004779D02*
X030214Y004779D01*
X017020Y002218D02*
X015440Y002218D01*
X015538Y002119D02*
X016921Y002119D01*
M02*
