%
M48
M72
T01C0.0236
T02C0.0320
T03C0.0394
T04C0.0400
T05C0.0866
T06C0.1181
%
T01
X18002Y9796
X22002Y9796
T02
X2511Y9599
X4511Y9599
X10779Y9599
X12779Y9599
X23653Y9756
X25653Y9756
X25653Y8969
X23653Y8969
X28995Y9205
X29995Y9205
X32145Y9205
X33145Y9205
X20617Y3474
X19617Y3474
X18617Y3474
X17617Y3474
X17617Y1474
X18617Y1474
X19617Y1474
X20617Y1474
T03
X7212Y2847
X8196Y2847
X9180Y2847
X11578Y4949
X12578Y4949
X13578Y4949
X14578Y4949
X15578Y4949
X16578Y4949
X17578Y4949
X18578Y4949
X19578Y4949
X20578Y4949
X21578Y4949
X22578Y4949
X23578Y4949
X24578Y4949
X24578Y7949
X23578Y7949
X22578Y7949
X21578Y7949
X20578Y7949
X19578Y7949
X18578Y7949
X17578Y7949
X16578Y7949
X15578Y7949
X14578Y7949
X13578Y7949
X12578Y7949
X11578Y7949
T04
X7235Y8993
X8235Y8993
X9235Y8993
X11247Y3246
X12247Y3246
X13247Y3246
X14247Y3246
X15247Y3246
X16247Y3246
X11991Y1725
X10991Y1725
X9991Y1725
X6479Y1725
X5479Y1725
X4479Y1725
X22393Y2012
X23393Y2012
X24393Y2012
X26604Y2107
X27604Y2107
X24393Y3012
X23393Y3012
X22393Y3012
T05
X6464Y5603
X9928Y5603
T06
X3192Y7256
X5515Y7256
X4334Y5406
X27015Y5603
X29849Y5603
X32684Y5603
M30
