G75*
%MOIN*%
%OFA0B0*%
%FSLAX24Y24*%
%IPPOS*%
%LPD*%
%AMOC8*
5,1,8,0,0,1.08239X$1,22.5*
%
%ADD10C,0.0000*%
%ADD11R,0.0709X0.0709*%
%ADD12C,0.0709*%
%ADD13C,0.1930*%
%ADD14C,0.1306*%
%ADD15C,0.0634*%
%ADD16C,0.1621*%
%ADD17C,0.0640*%
%ADD18OC8,0.0560*%
%ADD19C,0.0476*%
%ADD20OC8,0.0640*%
D10*
X001936Y000937D02*
X001936Y010268D01*
X034082Y010268D01*
X034082Y000937D01*
X001936Y000937D01*
D11*
X011578Y004949D03*
D12*
X012578Y004949D03*
X013578Y004949D03*
X014578Y004949D03*
X015578Y004949D03*
X016578Y004949D03*
X017578Y004949D03*
X018578Y004949D03*
X019578Y004949D03*
X020578Y004949D03*
X021578Y004949D03*
X022578Y004949D03*
X023578Y004949D03*
X024578Y004949D03*
X024578Y007949D03*
X023578Y007949D03*
X022578Y007949D03*
X021578Y007949D03*
X020578Y007949D03*
X019578Y007949D03*
X018578Y007949D03*
X017578Y007949D03*
X016578Y007949D03*
X015578Y007949D03*
X014578Y007949D03*
X013578Y007949D03*
X012578Y007949D03*
X011578Y007949D03*
D13*
X005515Y007256D03*
X003192Y007256D03*
X004334Y005406D03*
D14*
X006464Y005603D03*
X009928Y005603D03*
D15*
X009180Y003144D02*
X009180Y002550D01*
X008196Y002550D02*
X008196Y003144D01*
X007212Y003144D02*
X007212Y002550D01*
D16*
X027015Y005603D03*
X029849Y005603D03*
X032684Y005603D03*
D17*
X027604Y002407D02*
X027604Y001807D01*
X026604Y001807D02*
X026604Y002407D01*
X016247Y002946D02*
X016247Y003546D01*
X015247Y003546D02*
X015247Y002946D01*
X014247Y002946D02*
X014247Y003546D01*
X013247Y003546D02*
X013247Y002946D01*
X012247Y002946D02*
X012247Y003546D01*
X011247Y003546D02*
X011247Y002946D01*
X010991Y002025D02*
X010991Y001425D01*
X009991Y001425D02*
X009991Y002025D01*
X011991Y002025D02*
X011991Y001425D01*
X006479Y001425D02*
X006479Y002025D01*
X005479Y002025D02*
X005479Y001425D01*
X004479Y001425D02*
X004479Y002025D01*
X007235Y008693D02*
X007235Y009293D01*
X008235Y009293D02*
X008235Y008693D01*
X009235Y008693D02*
X009235Y009293D01*
D18*
X010779Y009599D03*
X012779Y009599D03*
X004511Y009599D03*
X002511Y009599D03*
X017617Y003474D03*
X018617Y003474D03*
X019617Y003474D03*
X020617Y003474D03*
X020617Y001474D03*
X019617Y001474D03*
X018617Y001474D03*
X017617Y001474D03*
X023653Y008969D03*
X025653Y008969D03*
X025653Y009756D03*
X023653Y009756D03*
X028995Y009205D03*
X029995Y009205D03*
X032145Y009205D03*
X033145Y009205D03*
D19*
X022002Y009796D03*
X018002Y009796D03*
D20*
X022393Y003012D03*
X023393Y003012D03*
X024393Y003012D03*
X024393Y002012D03*
X023393Y002012D03*
X022393Y002012D03*
M02*
