G75*
%MOIN*%
%OFA0B0*%
%FSLAX24Y24*%
%IPPOS*%
%LPD*%
%AMOC8*
5,1,8,0,0,1.08239X$1,22.5*
%
%ADD10C,0.0000*%
%ADD11C,0.0160*%
%ADD12C,0.0040*%
%ADD13C,0.0120*%
%ADD14C,0.0150*%
%ADD15C,0.0050*%
%ADD16C,0.0060*%
%ADD17R,0.4200X0.0300*%
%ADD18R,0.0750X0.0200*%
%ADD19R,0.0300X0.0200*%
D10*
X001936Y000937D02*
X001936Y010268D01*
X034082Y010268D01*
X034082Y000937D01*
X001936Y000937D01*
D11*
X027015Y006056D02*
X027015Y006843D01*
X029849Y006843D01*
X029849Y006056D01*
D12*
X028708Y006076D02*
X028708Y006536D01*
X028401Y006536D02*
X028708Y006076D01*
X028401Y006076D02*
X028401Y006536D01*
X028247Y006459D02*
X028170Y006536D01*
X028017Y006536D01*
X027940Y006459D01*
X027940Y006152D01*
X028017Y006076D01*
X028170Y006076D01*
X028247Y006152D01*
X028247Y006459D01*
X028284Y004530D02*
X028284Y004070D01*
X028207Y004070D02*
X028361Y004070D01*
X028514Y004070D02*
X028514Y004530D01*
X028744Y004530D01*
X028821Y004453D01*
X028821Y004300D01*
X028744Y004223D01*
X028514Y004223D01*
X028667Y004223D02*
X028821Y004070D01*
X028974Y004070D02*
X028974Y004530D01*
X029128Y004377D01*
X029281Y004530D01*
X029281Y004070D01*
X029281Y003780D02*
X029128Y003780D01*
X029205Y003780D02*
X029205Y003320D01*
X029281Y003320D02*
X029128Y003320D01*
X028974Y003320D02*
X028821Y003473D01*
X028898Y003473D02*
X028667Y003473D01*
X028667Y003320D02*
X028667Y003780D01*
X028898Y003780D01*
X028974Y003703D01*
X028974Y003550D01*
X028898Y003473D01*
X028514Y003320D02*
X028207Y003320D01*
X028207Y003780D01*
X028514Y003780D01*
X028361Y003550D02*
X028207Y003550D01*
X028054Y003703D02*
X028054Y003396D01*
X027977Y003320D01*
X027747Y003320D01*
X027747Y003780D01*
X027977Y003780D01*
X028054Y003703D01*
X027593Y003320D02*
X027286Y003320D01*
X027286Y003780D01*
X027133Y003703D02*
X027056Y003780D01*
X026903Y003780D01*
X026826Y003703D01*
X026826Y003396D01*
X026903Y003320D01*
X027056Y003320D01*
X027133Y003396D01*
X027133Y003703D01*
X026672Y003703D02*
X026596Y003780D01*
X026442Y003780D01*
X026365Y003703D01*
X026365Y003627D01*
X026442Y003550D01*
X026596Y003550D01*
X026672Y003473D01*
X026672Y003396D01*
X026596Y003320D01*
X026442Y003320D01*
X026365Y003396D01*
X026442Y004070D02*
X026596Y004070D01*
X026672Y004146D01*
X026826Y004146D02*
X026903Y004070D01*
X027056Y004070D01*
X027133Y004146D01*
X027133Y004453D01*
X027056Y004530D01*
X026903Y004530D01*
X026826Y004453D01*
X026826Y004146D01*
X026442Y004070D02*
X026365Y004146D01*
X026365Y004453D01*
X026442Y004530D01*
X026596Y004530D01*
X026672Y004453D01*
X027286Y004530D02*
X027593Y004070D01*
X027593Y004530D01*
X027747Y004530D02*
X028054Y004530D01*
X028207Y004530D02*
X028361Y004530D01*
X027900Y004300D02*
X027747Y004300D01*
X027747Y004070D02*
X027747Y004530D01*
X027286Y004530D02*
X027286Y004070D01*
X029435Y003780D02*
X029435Y003320D01*
X029742Y003320D02*
X029742Y003780D01*
X029895Y003703D02*
X029895Y003396D01*
X029972Y003320D01*
X030125Y003320D01*
X030202Y003396D01*
X030202Y003550D01*
X030049Y003550D01*
X030202Y003703D02*
X030125Y003780D01*
X029972Y003780D01*
X029895Y003703D01*
X029742Y003320D02*
X029435Y003780D01*
X030356Y004070D02*
X030586Y004070D01*
X030662Y004146D01*
X030662Y004223D01*
X030586Y004300D01*
X030356Y004300D01*
X030586Y004300D02*
X030662Y004377D01*
X030662Y004453D01*
X030586Y004530D01*
X030356Y004530D01*
X030356Y004070D01*
X030816Y004070D02*
X031123Y004070D01*
X031276Y004070D02*
X031276Y004530D01*
X031583Y004530D01*
X031737Y004453D02*
X031737Y004146D01*
X031813Y004070D01*
X031967Y004070D01*
X032044Y004146D01*
X032044Y004453D01*
X031967Y004530D01*
X031813Y004530D01*
X031737Y004453D01*
X031430Y004300D02*
X031276Y004300D01*
X030969Y004300D02*
X030816Y004300D01*
X030816Y004530D02*
X030816Y004070D01*
X030816Y004530D02*
X031123Y004530D01*
X032197Y004530D02*
X032427Y004530D01*
X032504Y004453D01*
X032504Y004300D01*
X032427Y004223D01*
X032197Y004223D01*
X032197Y004070D02*
X032197Y004530D01*
X032658Y004530D02*
X032658Y004070D01*
X032964Y004070D01*
X032504Y004070D02*
X032351Y004223D01*
X032658Y004300D02*
X032811Y004300D01*
X032964Y004530D02*
X032658Y004530D01*
X024875Y008877D02*
X024817Y008819D01*
X024700Y008819D01*
X024642Y008877D01*
X024642Y008994D02*
X024758Y009052D01*
X024817Y009052D01*
X024875Y008994D01*
X024875Y008877D01*
X024642Y008994D02*
X024642Y009169D01*
X024875Y009169D01*
X024516Y009111D02*
X024516Y008994D01*
X024458Y008936D01*
X024283Y008936D01*
X024399Y008936D02*
X024516Y008819D01*
X024283Y008819D02*
X024283Y009169D01*
X024458Y009169D01*
X024516Y009111D01*
X024536Y009606D02*
X024419Y009723D01*
X024478Y009723D02*
X024303Y009723D01*
X024303Y009606D02*
X024303Y009957D01*
X024478Y009957D01*
X024536Y009898D01*
X024536Y009781D01*
X024478Y009723D01*
X024662Y009781D02*
X024895Y009781D01*
X024837Y009606D02*
X024837Y009957D01*
X024662Y009781D01*
X020772Y002794D02*
X020772Y002560D01*
X020772Y002677D02*
X020422Y002677D01*
X020539Y002560D01*
X020597Y002435D02*
X020656Y002376D01*
X020656Y002201D01*
X020772Y002201D02*
X020422Y002201D01*
X020422Y002376D01*
X020480Y002435D01*
X020597Y002435D01*
X020656Y002318D02*
X020772Y002435D01*
X019772Y002395D02*
X019656Y002278D01*
X019656Y002336D02*
X019656Y002161D01*
X019772Y002161D02*
X019422Y002161D01*
X019422Y002336D01*
X019480Y002395D01*
X019597Y002395D01*
X019656Y002336D01*
X019772Y002520D02*
X019539Y002754D01*
X019480Y002754D01*
X019422Y002695D01*
X019422Y002579D01*
X019480Y002520D01*
X019772Y002520D02*
X019772Y002754D01*
X018757Y002678D02*
X018757Y002561D01*
X018699Y002503D01*
X018757Y002377D02*
X018640Y002260D01*
X018640Y002319D02*
X018640Y002144D01*
X018757Y002144D02*
X018407Y002144D01*
X018407Y002319D01*
X018465Y002377D01*
X018582Y002377D01*
X018640Y002319D01*
X018465Y002503D02*
X018407Y002561D01*
X018407Y002678D01*
X018465Y002736D01*
X018524Y002736D01*
X018582Y002678D01*
X018640Y002736D01*
X018699Y002736D01*
X018757Y002678D01*
X018582Y002678D02*
X018582Y002620D01*
X005078Y008317D02*
X004848Y008548D01*
X004771Y008471D02*
X005078Y008778D01*
X004771Y008778D02*
X004771Y008317D01*
X004617Y008394D02*
X004541Y008317D01*
X004387Y008317D01*
X004311Y008394D01*
X004311Y008701D01*
X004387Y008778D01*
X004541Y008778D01*
X004617Y008701D01*
X004157Y008624D02*
X004157Y008317D01*
X003850Y008317D02*
X003850Y008624D01*
X004004Y008778D01*
X004157Y008624D01*
X004157Y008548D02*
X003850Y008548D01*
X003620Y008394D02*
X003620Y008778D01*
X003543Y008778D02*
X003697Y008778D01*
X003620Y008394D02*
X003543Y008317D01*
X003466Y008317D01*
X003390Y008394D01*
D13*
X003381Y009299D02*
X003381Y009599D01*
X003381Y009899D01*
X003631Y009899D02*
X003631Y009599D01*
X003631Y009299D01*
X011659Y009299D02*
X011659Y009599D01*
X011659Y009899D01*
X011909Y009899D02*
X011909Y009599D01*
X011909Y009299D01*
X005479Y002788D02*
X005479Y002630D01*
X005479Y002473D01*
X005479Y002630D02*
X005322Y002630D01*
X005479Y002630D02*
X005637Y002630D01*
X004653Y002630D02*
X004298Y002630D01*
X009818Y002564D02*
X010173Y002564D01*
X010646Y002554D02*
X010804Y002554D01*
X010804Y002397D01*
X010804Y002554D02*
X010804Y002712D01*
X010804Y002554D02*
X010961Y002554D01*
X017317Y002604D02*
X017617Y002604D01*
X017917Y002604D01*
X017917Y002354D02*
X017617Y002354D01*
X017317Y002354D01*
X021360Y001370D02*
X021362Y001404D01*
X021368Y001438D01*
X021377Y001471D01*
X021391Y001502D01*
X021408Y001532D01*
X021428Y001560D01*
X021451Y001585D01*
X021477Y001608D01*
X021505Y001627D01*
X021535Y001643D01*
X021567Y001655D01*
X021600Y001664D01*
X021634Y001669D01*
X021669Y001670D01*
X021703Y001667D01*
X021736Y001660D01*
X021769Y001650D01*
X021800Y001635D01*
X021829Y001618D01*
X021856Y001597D01*
X021881Y001573D01*
X021903Y001546D01*
X021921Y001518D01*
X021936Y001487D01*
X021948Y001455D01*
X021956Y001421D01*
X021960Y001387D01*
X021960Y001353D01*
X021956Y001319D01*
X021948Y001285D01*
X021936Y001253D01*
X021921Y001222D01*
X021903Y001194D01*
X021881Y001167D01*
X021856Y001143D01*
X021829Y001122D01*
X021800Y001105D01*
X021769Y001090D01*
X021736Y001080D01*
X021703Y001073D01*
X021669Y001070D01*
X021634Y001071D01*
X021600Y001076D01*
X021567Y001085D01*
X021535Y001097D01*
X021505Y001113D01*
X021477Y001132D01*
X021451Y001155D01*
X021428Y001180D01*
X021408Y001208D01*
X021391Y001238D01*
X021377Y001269D01*
X021368Y001302D01*
X021362Y001336D01*
X021360Y001370D01*
X026424Y001213D02*
X026779Y001213D01*
X027448Y001213D02*
X027605Y001213D01*
X027605Y001056D01*
X027605Y001213D02*
X027605Y001370D01*
X027605Y001213D02*
X027763Y001213D01*
D14*
X028412Y004874D02*
X028412Y005859D01*
X028806Y005465D01*
X028412Y005859D02*
X028019Y005465D01*
D15*
X025078Y004481D02*
X011078Y004481D01*
X011078Y005949D01*
X011121Y005950D01*
X011163Y005955D01*
X011205Y005963D01*
X011246Y005975D01*
X011286Y005991D01*
X011324Y006010D01*
X011361Y006032D01*
X011395Y006057D01*
X011427Y006086D01*
X011457Y006117D01*
X011484Y006150D01*
X011507Y006186D01*
X011528Y006223D01*
X011545Y006262D01*
X011559Y006303D01*
X011569Y006344D01*
X011575Y006387D01*
X011578Y006429D01*
X011578Y006430D02*
X011578Y006469D01*
X011575Y006511D01*
X011569Y006554D01*
X011559Y006595D01*
X011545Y006636D01*
X011528Y006675D01*
X011507Y006712D01*
X011484Y006748D01*
X011457Y006781D01*
X011427Y006812D01*
X011395Y006841D01*
X011361Y006866D01*
X011324Y006888D01*
X011286Y006907D01*
X011246Y006923D01*
X011205Y006935D01*
X011163Y006943D01*
X011121Y006948D01*
X011078Y006949D01*
X011078Y008418D01*
X025078Y008418D01*
X025078Y004481D01*
X023955Y004133D02*
X023955Y003982D01*
X023880Y003907D01*
X023655Y003907D01*
X023655Y003757D02*
X023655Y004208D01*
X023880Y004208D01*
X023955Y004133D01*
X023495Y004133D02*
X023420Y004208D01*
X023270Y004208D01*
X023195Y004133D01*
X023195Y004057D01*
X023270Y003982D01*
X023420Y003982D01*
X023495Y003907D01*
X023495Y003832D01*
X023420Y003757D01*
X023270Y003757D01*
X023195Y003832D01*
X023038Y003757D02*
X022888Y003757D01*
X022963Y003757D02*
X022963Y004208D01*
X022888Y004208D02*
X023038Y004208D01*
X017052Y002744D02*
X017052Y002594D01*
X016977Y002519D01*
X016977Y002359D02*
X017052Y002284D01*
X017052Y002134D01*
X016977Y002059D01*
X016677Y002059D01*
X016602Y002134D01*
X016602Y002284D01*
X016677Y002359D01*
X016677Y002519D02*
X016602Y002594D01*
X016602Y002744D01*
X016677Y002819D01*
X016752Y002819D01*
X016827Y002744D01*
X016902Y002819D01*
X016977Y002819D01*
X017052Y002744D01*
X016827Y002744D02*
X016827Y002669D01*
X015665Y001610D02*
X015590Y001685D01*
X015440Y001685D01*
X015365Y001610D01*
X015365Y001310D01*
X015440Y001235D01*
X015590Y001235D01*
X015665Y001310D01*
X015665Y001460D01*
X015515Y001460D01*
X015208Y001685D02*
X015058Y001685D01*
X015133Y001685D02*
X015133Y001235D01*
X015058Y001235D02*
X015208Y001235D01*
X014898Y001310D02*
X014898Y001385D01*
X014823Y001460D01*
X014673Y001460D01*
X014597Y001535D01*
X014597Y001610D01*
X014673Y001685D01*
X014823Y001685D01*
X014898Y001610D01*
X014898Y001310D02*
X014823Y001235D01*
X014673Y001235D01*
X014597Y001310D01*
X014437Y001160D02*
X014137Y001160D01*
X013977Y001310D02*
X013902Y001235D01*
X013752Y001235D01*
X013677Y001310D01*
X013677Y001610D01*
X013752Y001685D01*
X013902Y001685D01*
X013977Y001610D01*
X013517Y001610D02*
X013441Y001685D01*
X013291Y001685D01*
X013216Y001610D01*
X013216Y001535D01*
X013291Y001460D01*
X013441Y001460D01*
X013517Y001385D01*
X013517Y001310D01*
X013441Y001235D01*
X013291Y001235D01*
X013216Y001310D01*
X013056Y001235D02*
X012756Y001235D01*
X012756Y001685D01*
X013056Y001685D01*
X012906Y001460D02*
X012756Y001460D01*
X005954Y003026D02*
X005954Y003326D01*
X005879Y003401D01*
X005729Y003401D01*
X005654Y003326D01*
X005654Y003026D01*
X005729Y002951D01*
X005879Y002951D01*
X005954Y003026D01*
X005494Y003101D02*
X005494Y003401D01*
X005194Y003401D02*
X005194Y003101D01*
X005344Y002951D01*
X005494Y003101D01*
X005034Y003176D02*
X004958Y003101D01*
X004733Y003101D01*
X004733Y002951D02*
X004733Y003401D01*
X004958Y003401D01*
X005034Y003326D01*
X005034Y003176D01*
X004883Y003101D02*
X005034Y002951D01*
X004573Y002951D02*
X004273Y002951D01*
X004273Y003401D01*
X004573Y003401D01*
X004423Y003176D02*
X004273Y003176D01*
X004113Y003101D02*
X004113Y003026D01*
X004038Y002951D01*
X003888Y002951D01*
X003813Y003026D01*
X003888Y003176D02*
X004038Y003176D01*
X004113Y003101D01*
X003888Y003176D02*
X003813Y003251D01*
X003813Y003326D01*
X003888Y003401D01*
X004038Y003401D01*
X004113Y003326D01*
X005873Y005406D02*
X000125Y005406D01*
X000125Y008949D01*
X005873Y008949D01*
X005873Y005406D01*
X007620Y007678D02*
X007770Y007678D01*
X007695Y007678D02*
X007695Y008128D01*
X007620Y008128D02*
X007770Y008128D01*
X007927Y008053D02*
X008002Y008128D01*
X008152Y008128D01*
X008227Y008053D01*
X008388Y008053D02*
X008463Y008128D01*
X008613Y008128D01*
X008688Y008053D01*
X008688Y007978D01*
X008388Y007678D01*
X008688Y007678D01*
X008227Y007753D02*
X008152Y007678D01*
X008002Y007678D01*
X007927Y007753D01*
X007927Y008053D01*
X006365Y008533D02*
X006367Y008553D01*
X006373Y008571D01*
X006382Y008589D01*
X006394Y008604D01*
X006409Y008616D01*
X006427Y008625D01*
X006445Y008631D01*
X006465Y008633D01*
X006485Y008631D01*
X006503Y008625D01*
X006521Y008616D01*
X006536Y008604D01*
X006548Y008589D01*
X006557Y008571D01*
X006563Y008553D01*
X006565Y008533D01*
X006563Y008513D01*
X006557Y008495D01*
X006548Y008477D01*
X006536Y008462D01*
X006521Y008450D01*
X006503Y008441D01*
X006485Y008435D01*
X006465Y008433D01*
X006445Y008435D01*
X006427Y008441D01*
X006409Y008450D01*
X006394Y008462D01*
X006382Y008477D01*
X006373Y008495D01*
X006367Y008513D01*
X006365Y008533D01*
X006285Y008393D02*
X006235Y009543D01*
X005554Y009691D02*
X005254Y009691D01*
X005404Y009691D02*
X005404Y010141D01*
X005254Y009991D01*
X005094Y010066D02*
X005019Y010141D01*
X004869Y010141D01*
X004794Y010066D01*
X004794Y009766D01*
X004869Y009691D01*
X005019Y009691D01*
X005094Y009766D01*
X006285Y008393D02*
X006385Y008293D01*
X010085Y008293D01*
X010185Y008393D01*
X010235Y009543D01*
X013204Y009669D02*
X013279Y009594D01*
X013429Y009594D01*
X013504Y009669D01*
X013664Y009594D02*
X013964Y009894D01*
X013964Y009969D01*
X013889Y010044D01*
X013739Y010044D01*
X013664Y009969D01*
X013504Y009969D02*
X013429Y010044D01*
X013279Y010044D01*
X013204Y009969D01*
X013204Y009669D01*
X013664Y009594D02*
X013964Y009594D01*
X028302Y001706D02*
X028302Y001255D01*
X028602Y001255D01*
X028762Y001330D02*
X028837Y001255D01*
X028987Y001255D01*
X029063Y001330D01*
X029063Y001405D01*
X028987Y001480D01*
X028837Y001480D01*
X028762Y001555D01*
X028762Y001631D01*
X028837Y001706D01*
X028987Y001706D01*
X029063Y001631D01*
X029223Y001631D02*
X029223Y001330D01*
X029298Y001255D01*
X029448Y001255D01*
X029523Y001330D01*
X029683Y001180D02*
X029983Y001180D01*
X030143Y001255D02*
X030143Y001706D01*
X030369Y001706D01*
X030444Y001631D01*
X030444Y001480D01*
X030369Y001405D01*
X030143Y001405D01*
X030604Y001255D02*
X030604Y001706D01*
X030904Y001706D02*
X030904Y001255D01*
X030754Y001405D01*
X030604Y001255D01*
X029523Y001631D02*
X029448Y001706D01*
X029298Y001706D01*
X029223Y001631D01*
X028602Y001706D02*
X028302Y001706D01*
X028302Y001480D02*
X028452Y001480D01*
D16*
X028104Y001857D02*
X027854Y001607D01*
X027354Y001607D01*
X027104Y001857D01*
X026854Y001607D01*
X026354Y001607D01*
X026104Y001857D01*
X026104Y002357D01*
X026354Y002607D01*
X026854Y002607D01*
X027104Y002357D01*
X027354Y002607D01*
X027854Y002607D01*
X028104Y002357D01*
X028104Y001857D01*
X027104Y001857D02*
X027104Y002357D01*
X024893Y001762D02*
X024893Y003262D01*
X024643Y003512D01*
X024143Y003512D01*
X023893Y003262D01*
X023893Y001762D01*
X024143Y001512D01*
X024643Y001512D01*
X024893Y001762D01*
X023893Y001762D02*
X023643Y001512D01*
X023143Y001512D01*
X022893Y001762D01*
X022893Y003262D01*
X023143Y003512D01*
X023643Y003512D01*
X023893Y003262D01*
X022893Y003262D02*
X022643Y003512D01*
X022143Y003512D01*
X021893Y003262D01*
X021893Y001762D01*
X022143Y001512D01*
X022643Y001512D01*
X022893Y001762D01*
X020967Y001874D02*
X020967Y001974D01*
X020917Y002024D01*
X020917Y002924D01*
X020967Y002974D01*
X020967Y003074D01*
X020965Y003091D01*
X020961Y003108D01*
X020954Y003124D01*
X020944Y003138D01*
X020931Y003151D01*
X020917Y003161D01*
X020901Y003168D01*
X020884Y003172D01*
X020867Y003174D01*
X020367Y003174D02*
X020350Y003172D01*
X020333Y003168D01*
X020317Y003161D01*
X020303Y003151D01*
X020290Y003138D01*
X020280Y003124D01*
X020273Y003108D01*
X020269Y003091D01*
X020267Y003074D01*
X020267Y002974D01*
X020317Y002924D01*
X020317Y002024D01*
X020267Y001974D01*
X020267Y001874D01*
X020269Y001857D01*
X020273Y001840D01*
X020280Y001824D01*
X020290Y001810D01*
X020303Y001797D01*
X020317Y001787D01*
X020333Y001780D01*
X020350Y001776D01*
X020367Y001774D01*
X019967Y001874D02*
X019967Y001974D01*
X019917Y002024D01*
X019917Y002924D01*
X019967Y002974D01*
X019967Y003074D01*
X019965Y003091D01*
X019961Y003108D01*
X019954Y003124D01*
X019944Y003138D01*
X019931Y003151D01*
X019917Y003161D01*
X019901Y003168D01*
X019884Y003172D01*
X019867Y003174D01*
X019367Y003174D02*
X019350Y003172D01*
X019333Y003168D01*
X019317Y003161D01*
X019303Y003151D01*
X019290Y003138D01*
X019280Y003124D01*
X019273Y003108D01*
X019269Y003091D01*
X019267Y003074D01*
X019267Y002974D01*
X019317Y002924D01*
X019317Y002024D01*
X019267Y001974D01*
X019267Y001874D01*
X019269Y001857D01*
X019273Y001840D01*
X019280Y001824D01*
X019290Y001810D01*
X019303Y001797D01*
X019317Y001787D01*
X019333Y001780D01*
X019350Y001776D01*
X019367Y001774D01*
X019867Y001774D02*
X019884Y001776D01*
X019901Y001780D01*
X019917Y001787D01*
X019931Y001797D01*
X019944Y001810D01*
X019954Y001824D01*
X019961Y001840D01*
X019965Y001857D01*
X019967Y001874D01*
X020867Y001774D02*
X020884Y001776D01*
X020901Y001780D01*
X020917Y001787D01*
X020931Y001797D01*
X020944Y001810D01*
X020954Y001824D01*
X020961Y001840D01*
X020965Y001857D01*
X020967Y001874D01*
X018967Y001874D02*
X018967Y001974D01*
X018917Y002024D01*
X018917Y002924D01*
X018967Y002974D01*
X018967Y003074D01*
X018965Y003091D01*
X018961Y003108D01*
X018954Y003124D01*
X018944Y003138D01*
X018931Y003151D01*
X018917Y003161D01*
X018901Y003168D01*
X018884Y003172D01*
X018867Y003174D01*
X018367Y003174D02*
X018350Y003172D01*
X018333Y003168D01*
X018317Y003161D01*
X018303Y003151D01*
X018290Y003138D01*
X018280Y003124D01*
X018273Y003108D01*
X018269Y003091D01*
X018267Y003074D01*
X018267Y002974D01*
X018317Y002924D01*
X018317Y002024D01*
X018267Y001974D01*
X018267Y001874D01*
X018269Y001857D01*
X018273Y001840D01*
X018280Y001824D01*
X018290Y001810D01*
X018303Y001797D01*
X018317Y001787D01*
X018333Y001780D01*
X018350Y001776D01*
X018367Y001774D01*
X018067Y001824D02*
X018067Y003124D01*
X018065Y003150D01*
X018060Y003176D01*
X018052Y003201D01*
X018040Y003224D01*
X018026Y003246D01*
X018008Y003265D01*
X017989Y003283D01*
X017967Y003297D01*
X017944Y003309D01*
X017919Y003317D01*
X017893Y003322D01*
X017867Y003324D01*
X017367Y003324D02*
X017341Y003322D01*
X017315Y003317D01*
X017290Y003309D01*
X017267Y003297D01*
X017245Y003283D01*
X017226Y003265D01*
X017208Y003246D01*
X017194Y003224D01*
X017182Y003201D01*
X017174Y003176D01*
X017169Y003150D01*
X017167Y003124D01*
X017167Y001824D01*
X017169Y001798D01*
X017174Y001772D01*
X017182Y001747D01*
X017194Y001724D01*
X017208Y001702D01*
X017226Y001683D01*
X017245Y001665D01*
X017267Y001651D01*
X017290Y001639D01*
X017315Y001631D01*
X017341Y001626D01*
X017367Y001624D01*
X017867Y001624D02*
X017893Y001626D01*
X017919Y001631D01*
X017944Y001639D01*
X017967Y001651D01*
X017989Y001665D01*
X018008Y001683D01*
X018026Y001702D01*
X018040Y001724D01*
X018052Y001747D01*
X018060Y001772D01*
X018065Y001798D01*
X018067Y001824D01*
X017617Y001974D02*
X017617Y002354D01*
X017617Y002604D02*
X017617Y002974D01*
X018867Y001774D02*
X018884Y001776D01*
X018901Y001780D01*
X018917Y001787D01*
X018931Y001797D01*
X018944Y001810D01*
X018954Y001824D01*
X018961Y001840D01*
X018965Y001857D01*
X018967Y001874D01*
X012491Y001975D02*
X012491Y001475D01*
X012241Y001225D01*
X011741Y001225D01*
X011491Y001475D01*
X011241Y001225D01*
X010741Y001225D01*
X010491Y001475D01*
X010241Y001225D01*
X009741Y001225D01*
X009491Y001475D01*
X009491Y001975D01*
X009741Y002225D01*
X010241Y002225D01*
X010491Y001975D01*
X010741Y002225D01*
X011241Y002225D01*
X011491Y001975D01*
X011741Y002225D01*
X012241Y002225D01*
X012491Y001975D01*
X011491Y001975D02*
X011491Y001475D01*
X010491Y001475D02*
X010491Y001975D01*
X006979Y001975D02*
X006979Y001475D01*
X006729Y001225D01*
X006229Y001225D01*
X005979Y001475D01*
X005729Y001225D01*
X005229Y001225D01*
X004979Y001475D01*
X004729Y001225D01*
X004229Y001225D01*
X003979Y001475D01*
X003979Y001975D01*
X004229Y002225D01*
X004729Y002225D01*
X004979Y001975D01*
X005229Y002225D01*
X005729Y002225D01*
X005979Y001975D01*
X006229Y002225D01*
X006729Y002225D01*
X006979Y001975D01*
X005979Y001975D02*
X005979Y001475D01*
X004979Y001475D02*
X004979Y001975D01*
X017488Y006189D02*
X017635Y006189D01*
X017561Y006189D02*
X017561Y006630D01*
X017488Y006630D02*
X017635Y006630D01*
X017795Y006556D02*
X017795Y006263D01*
X017868Y006189D01*
X018015Y006189D01*
X018088Y006263D01*
X018255Y006189D02*
X018549Y006189D01*
X018402Y006189D02*
X018402Y006630D01*
X018255Y006483D01*
X018088Y006556D02*
X018015Y006630D01*
X017868Y006630D01*
X017795Y006556D01*
X024053Y008619D02*
X024153Y008619D01*
X024203Y008669D01*
X025103Y008669D01*
X025153Y008619D01*
X025253Y008619D01*
X025270Y008621D01*
X025287Y008625D01*
X025303Y008632D01*
X025317Y008642D01*
X025330Y008655D01*
X025340Y008669D01*
X025347Y008685D01*
X025351Y008702D01*
X025353Y008719D01*
X025353Y009219D02*
X025351Y009236D01*
X025347Y009253D01*
X025340Y009269D01*
X025330Y009283D01*
X025317Y009296D01*
X025303Y009306D01*
X025287Y009313D01*
X025270Y009317D01*
X025253Y009319D01*
X025153Y009319D01*
X025103Y009269D01*
X024203Y009269D01*
X024153Y009319D01*
X024053Y009319D01*
X024053Y009406D02*
X024153Y009406D01*
X024203Y009456D01*
X025103Y009456D01*
X025153Y009406D01*
X025253Y009406D01*
X025270Y009408D01*
X025287Y009412D01*
X025303Y009419D01*
X025317Y009429D01*
X025330Y009442D01*
X025340Y009456D01*
X025347Y009472D01*
X025351Y009489D01*
X025353Y009506D01*
X025353Y010006D02*
X025351Y010023D01*
X025347Y010040D01*
X025340Y010056D01*
X025330Y010070D01*
X025317Y010083D01*
X025303Y010093D01*
X025287Y010100D01*
X025270Y010104D01*
X025253Y010106D01*
X025153Y010106D01*
X025103Y010056D01*
X024203Y010056D01*
X024153Y010106D01*
X024053Y010106D01*
X024036Y010104D01*
X024019Y010100D01*
X024003Y010093D01*
X023989Y010083D01*
X023976Y010070D01*
X023966Y010056D01*
X023959Y010040D01*
X023955Y010023D01*
X023953Y010006D01*
X023953Y009506D02*
X023955Y009489D01*
X023959Y009472D01*
X023966Y009456D01*
X023976Y009442D01*
X023989Y009429D01*
X024003Y009419D01*
X024019Y009412D01*
X024036Y009408D01*
X024053Y009406D01*
X024053Y009319D02*
X024036Y009317D01*
X024019Y009313D01*
X024003Y009306D01*
X023989Y009296D01*
X023976Y009283D01*
X023966Y009269D01*
X023959Y009253D01*
X023955Y009236D01*
X023953Y009219D01*
X023953Y008719D02*
X023955Y008702D01*
X023959Y008685D01*
X023966Y008669D01*
X023976Y008655D01*
X023989Y008642D01*
X024003Y008632D01*
X024019Y008625D01*
X024036Y008621D01*
X024053Y008619D01*
X012429Y009149D02*
X011129Y009149D01*
X011103Y009151D01*
X011077Y009156D01*
X011052Y009164D01*
X011029Y009176D01*
X011007Y009190D01*
X010988Y009208D01*
X010970Y009227D01*
X010956Y009249D01*
X010944Y009272D01*
X010936Y009297D01*
X010931Y009323D01*
X010929Y009349D01*
X011279Y009599D02*
X011659Y009599D01*
X011909Y009599D02*
X012279Y009599D01*
X012629Y009849D02*
X012627Y009875D01*
X012622Y009901D01*
X012614Y009926D01*
X012602Y009949D01*
X012588Y009971D01*
X012570Y009990D01*
X012551Y010008D01*
X012529Y010022D01*
X012506Y010034D01*
X012481Y010042D01*
X012455Y010047D01*
X012429Y010049D01*
X011129Y010049D01*
X011103Y010047D01*
X011077Y010042D01*
X011052Y010034D01*
X011029Y010022D01*
X011007Y010008D01*
X010988Y009990D01*
X010970Y009971D01*
X010956Y009949D01*
X010944Y009926D01*
X010936Y009901D01*
X010931Y009875D01*
X010929Y009849D01*
X012429Y009149D02*
X012455Y009151D01*
X012481Y009156D01*
X012506Y009164D01*
X012529Y009176D01*
X012551Y009190D01*
X012570Y009208D01*
X012588Y009227D01*
X012602Y009249D01*
X012614Y009272D01*
X012622Y009297D01*
X012627Y009323D01*
X012629Y009349D01*
X004361Y009349D02*
X004359Y009323D01*
X004354Y009297D01*
X004346Y009272D01*
X004334Y009249D01*
X004320Y009227D01*
X004302Y009208D01*
X004283Y009190D01*
X004261Y009176D01*
X004238Y009164D01*
X004213Y009156D01*
X004187Y009151D01*
X004161Y009149D01*
X002861Y009149D01*
X002835Y009151D01*
X002809Y009156D01*
X002784Y009164D01*
X002761Y009176D01*
X002739Y009190D01*
X002720Y009208D01*
X002702Y009227D01*
X002688Y009249D01*
X002676Y009272D01*
X002668Y009297D01*
X002663Y009323D01*
X002661Y009349D01*
X003011Y009599D02*
X003381Y009599D01*
X003631Y009599D02*
X004011Y009599D01*
X004361Y009849D02*
X004359Y009875D01*
X004354Y009901D01*
X004346Y009926D01*
X004334Y009949D01*
X004320Y009971D01*
X004302Y009990D01*
X004283Y010008D01*
X004261Y010022D01*
X004238Y010034D01*
X004213Y010042D01*
X004187Y010047D01*
X004161Y010049D01*
X002861Y010049D01*
X002835Y010047D01*
X002809Y010042D01*
X002784Y010034D01*
X002761Y010022D01*
X002739Y010008D01*
X002720Y009990D01*
X002702Y009971D01*
X002688Y009949D01*
X002676Y009926D01*
X002668Y009901D01*
X002663Y009875D01*
X002661Y009849D01*
D17*
X008235Y009843D03*
D18*
X006510Y009593D03*
X009960Y009593D03*
D19*
X008735Y009593D03*
X007735Y009593D03*
M02*
